<?xml version="1.0" standalone="no"?>
<!DOCTYPE svg PUBLIC "-//W3C//DTD SVG 1.1//EN" "http://www.w3.org/Graphics/SVG/1.1/DTD/svg11.dtd" >
<svg xmlns="http://www.w3.org/2000/svg">
<metadata>Generated by IcoMoon</metadata>
<defs>
<font id="icomoon" horiz-adv-x="1024">
<font-face units-per-em="1024" ascent="960" descent="-64" />
<missing-glyph horiz-adv-x="1024" />
<glyph unicode="&#x20;" horiz-adv-x="512" d="" />
<glyph unicode="&#xe900;" glyph-name="003-heart" horiz-adv-x="1205" d="M1205.35 455.556l-35.436 289.742c-1.786 12.984-8.488 24.137-18.134 31.709l-0.105 0.079-225.645 173.012c-7.752 6.035-17.627 9.675-28.352 9.675-8.771 0-16.973-2.435-23.967-6.665l0.207 0.116-270.982-164.153-270.461 164.153c-6.795 3.985-14.965 6.338-23.685 6.338-10.718 0-20.605-3.556-28.547-9.552l0.12 0.087-228.25-173.012c-9.751-7.652-16.453-18.804-18.211-31.535l-0.029-0.253-33.873-289.742c-0.221-1.721-0.348-3.713-0.348-5.734 0-14.349 6.373-27.209 16.442-35.905l556.095-469.059c8.14-6.771 18.703-10.88 30.225-10.88s22.085 4.109 30.302 10.943l-0.077-0.062 555.513 469.008c10.661 9.044 17.383 22.451 17.383 37.428 0 1.5-0.067 2.985-0.199 4.451l0.014-0.189z" />
<glyph unicode="&#xe901;" glyph-name="001-placeholder" horiz-adv-x="864" d="M432.082 960c-217.721 0-432.082-135.936-432.082-341.333 0-157.596 129.961-277.1 283.449-321.167l112.035-333.864c5.399-16.107 20.353-27.507 37.969-27.507 4.589 0 8.996 0.773 13.1 2.197l-0.281-0.085c12.115 3.766 21.431 13.205 24.954 25.13l0.067 0.264 112.035 333.864c154.235 44.441 283.449 163.945 283.449 321.167-2.988 206.144-218.095 341.333-434.696 341.333zM539.635 369.575c-13.662-2.861-24.43-12.884-28.314-25.877l-0.068-0.264-79.171-239.755-79.545 239.755c-3.952 13.258-14.72 23.28-28.139 26.099l-0.243 0.043c-125.479 30.249-244.236 121.745-244.236 249.091 0 157.969 178.883 261.415 352.163 261.415s352.163-100.832 352.163-261.415c0-126.973-118.384-218.842-243.863-249.091zM432.082 738.544c-0.111 0-0.242 0.001-0.373 0.001-66.413 0-120.251-53.838-120.251-120.251s53.838-120.251 120.251-120.251c66.413 0 120.251 53.838 120.251 120.251 0 0.131 0 0.262-0.001 0.393v-0.020c-0.212 66.121-53.756 119.666-119.857 119.877h-0.020zM432.082 578.334c-0.111-0.001-0.242-0.002-0.373-0.002-22.275 0-40.333 18.058-40.333 40.333s18.058 40.333 40.333 40.333c22.274 0 40.332-18.057 40.333-40.331v0c0 0 0-0.001 0-0.002 0-22.144-17.845-40.12-39.939-40.331h-0.020z" />
<glyph unicode="&#xe902;" glyph-name="002-heart" horiz-adv-x="1205" d="M1205.35 455.556l-35.436 289.742c-1.786 12.984-8.488 24.137-18.134 31.709l-0.105 0.079-225.645 173.012c-7.752 6.035-17.627 9.675-28.352 9.675-8.771 0-16.973-2.435-23.967-6.665l0.207 0.116-270.982-164.153-270.461 164.153c-6.795 3.985-14.965 6.338-23.685 6.338-10.718 0-20.605-3.556-28.547-9.552l0.12 0.087-228.25-173.012c-9.751-7.652-16.453-18.804-18.211-31.535l-0.029-0.253-33.873-289.742c-0.221-1.721-0.348-3.713-0.348-5.734 0-14.349 6.373-27.209 16.442-35.905l556.095-469.059c8.14-6.771 18.703-10.88 30.225-10.88s22.085 4.109 30.302 10.943l-0.077-0.062 555.513 469.008c10.661 9.044 17.383 22.451 17.383 37.428 0 1.5-0.067 2.985-0.199 4.451l0.014-0.189zM602.935 44.393l-506.007 425.234 29.704 244.405 186.040 141.745 265.771-162.068c7.013-4.176 15.465-6.644 24.493-6.644s17.479 2.469 24.716 6.767l-0.224-0.123 266.813 162.068 184.476-141.745 29.704-244.405z" />
<glyph unicode="&#xe903;" glyph-name="002-myspace" d="M963.79 779.793c-0.112 49.87-20.706 94.909-53.812 127.168l-0.038 0.037c-32.633 32.743-77.774 53.002-127.646 53.002-99.526 0-180.207-80.681-180.207-180.207s80.681-180.207 180.207-180.207c49.872 0 95.013 20.259 127.641 52.997l0.005 0.005c33.183 32.271 53.789 77.326 53.85 127.194v0.011zM781.887 659.796c-65.354 1.191-117.877 54.451-117.877 119.978 0 66.272 53.724 119.997 119.997 119.997 66.266 0 119.986-53.714 119.997-119.977v-0.001c0-0.006 0-0.012 0-0.019 0-66.272-53.724-119.997-119.997-119.997-0.745 0-1.489 0.007-2.232 0.020l0.112-0.002zM539.773 779.793c0 66.272-53.724 119.997-119.997 119.997s-119.997-53.724-119.997-119.997c0-66.272 53.724-119.997 119.997-119.997v0c0.126 0 0.275-0.001 0.425-0.001 66.038 0 119.573 53.535 119.573 119.573 0 0.149 0 0.299-0.001 0.448v-0.023zM419.776 720.007c-33.253 0.001-60.209 26.958-60.209 60.21s26.957 60.21 60.21 60.21c33.253 0 60.21-26.957 60.21-60.21 0-0.149-0.001-0.298-0.002-0.447v0.023c0 0 0-0.001 0-0.002 0-33.019-26.767-59.786-59.786-59.786-0.149 0-0.298 0.001-0.447 0.002h0.023zM0 510.118v-270.947h239.993v-119.997h299.78v-181.903h484.227v424.017c-1.489 132.812-109.5 239.903-242.523 239.903-73.921 0-140.118-33.070-184.604-85.222l-0.281-0.338c-17.246 82.977-89.756 144.438-176.622 144.438-58.125 0-109.823-27.519-142.776-70.239l-0.311-0.42c-26.843 42.777-73.752 70.797-127.206 70.797-82.665 0-149.678-67.013-149.678-149.678 0-0.144 0-0.288 0.001-0.432v0.022zM781.887 540.224c0.252 0.001 0.551 0.002 0.85 0.002 99.697 0 180.573-80.58 181.053-180.163v-363.852h-363.806v363.806c0.48 99.629 81.357 180.209 181.053 180.209 0.299 0 0.598-0.001 0.896-0.002h-0.046zM419.776 600.010c66.272 0 119.997-53.724 119.997-119.997v0-301.9h-239.993v301.9c0.24 66.176 53.821 119.757 119.974 119.997h0.023zM59.786 510.118c3.334 47.147 42.4 84.131 90.104 84.131s86.769-36.984 90.087-83.843l0.016-0.287v-212.008h-180.207zM239.993 747.992c0.016 0.631 0.025 1.375 0.025 2.12 0 49.646-40.246 89.892-89.892 89.892s-89.892-40.246-89.892-89.892c0-49.637 40.232-89.877 89.865-89.892h0.001c0.007 0 0.016 0 0.025 0 48.9 0 88.681 39.046 89.864 87.662l0.002 0.11zM150.102 717.887c-16.627 0-30.105 13.479-30.105 30.105v0c0 0.001 0 0.002 0 0.003 0 16.392 13.289 29.681 29.681 29.681 0.149 0 0.298-0.001 0.447-0.003h-0.023c16.392 0 29.681-13.289 29.681-29.681v0c0.002-0.126 0.003-0.275 0.003-0.424 0-16.392-13.289-29.681-29.681-29.681-0.001 0-0.002 0-0.003 0v0z" />
<glyph unicode="&#xe904;" glyph-name="006-home" d="M1012.052 476.322l-471.73 471.73c-7.151 7.278-17.099 11.789-28.1 11.789s-20.949-4.511-28.095-11.783l-472.179-471.736c-7.278-7.151-11.789-17.099-11.789-28.1s4.511-20.949 11.783-28.095l0.006-0.006c3.422-3.889 7.731-6.916 12.614-8.777l0.219-0.073 116.826-50.005 18.586-387.208c0.973-21.221 18.414-38.057 39.788-38.057 0.014 0 0.028 0 0.041 0h623.956c0.012 0 0.026 0 0.039 0 21.373 0 38.814 16.836 39.785 37.97l0.003 0.087 18.586 387.208 117.269 50.005c14.447 6.192 24.384 20.291 24.384 36.711 0 5.6-1.156 10.93-3.242 15.765l0.099-0.258c-1.934 5.103-4.962 9.411-8.815 12.803l-0.035 0.030zM596.965 16.097h-169.929v231.882h169.929zM827.962 424.546c-13.671-5.939-23.203-19.035-23.893-34.432l-0.003-0.085-18.143-373.933h-108.861v272.152c-0.247 21.896-17.931 39.58-39.804 39.827h-250.049c-21.996 0-39.827-17.831-39.827-39.827v0-272.152h-109.303l-16.816 373.933c-0.517 15.658-10.097 28.957-23.642 34.861l-0.254 0.099-85.85 36.729 401.812 401.812 401.812-401.812z" />
<glyph unicode="&#xe905;" glyph-name="006-tumblr" horiz-adv-x="660" d="M180.132 960v-90.278c-0.241-82.682-67.324-149.616-150.039-149.616 0 0-0.001 0-0.001 0h-30.092v-239.894h119.947v-214.040c0.481-182.155 148.017-329.691 330.126-330.172h211.967v300.079h-211.921c-16.62 0-30.093 13.473-30.093 30.093v0 214.040h239.894v239.894h-239.894v239.894zM599.735 659.921v-119.947h-239.894v-273.801c0-49.859 40.419-90.278 90.278-90.278h150.040v-180.132h-150.040c-149.012 0.241-269.746 120.974-269.987 269.963v274.248h-120.371v123.338c42.582 5.985 80.131 24.071 109.986 50.621l-0.211-0.184c42.957 38.674 69.962 94.343 70.357 156.327v30.164h119.947v-240.318z" />
<glyph unicode="&#xe906;" glyph-name="008-search" d="M988.613 140.8l-184.895 184.895c-21.631 21.724-51.564 35.167-84.636 35.167-18.761 0-36.512-4.326-52.309-12.035l0.707 0.311-63.696 63.696c45.102 56.913 72.354 129.758 72.354 208.969 0 186.64-151.302 337.942-337.942 337.942s-337.942-151.302-337.942-337.942c0-186.64 151.302-337.942 337.942-337.942 79.211 0 152.056 27.252 209.672 72.892l-0.703-0.538 63.696-63.696c-7.513-15.127-11.91-32.943-11.91-51.787 0-33.049 13.524-62.939 35.339-84.438l184.909-184.909c21.949-23.553 53.149-38.238 87.779-38.238 66.204 0 119.872 53.669 119.872 119.872 0 34.63-14.684 65.83-38.166 87.713l-0.072 0.066zM338.384 361.966c-142.423 0-257.88 115.457-257.88 257.88s115.457 257.88 257.88 257.88c142.423 0 257.88-115.457 257.88-257.88v0c0-142.423-115.457-257.88-257.88-257.88v0zM932.437 25.794c-7.198-7.167-17.126-11.598-28.088-11.598s-20.89 4.431-28.090 11.6l0.001-0.001-184.895 185.337c-7.283 7.228-11.791 17.242-11.791 28.309 0 22.025 17.855 39.879 39.879 39.879 10.957 0 20.883-4.419 28.091-11.572l185.335-185.335c7.167-7.198 11.598-17.126 11.598-28.088s-4.431-20.89-11.6-28.090l0.001 0.001z" />
<glyph unicode="&#xe907;" glyph-name="009-share" horiz-adv-x="1001" d="M994.595 224.865c-6.942 25.742-21.054 47.563-40.046 63.858l-0.17 0.142c9.238 34.757 14.543 74.661 14.543 115.804 0 155.978-76.252 294.146-193.513 379.26l-1.354 0.936c-6.474 4.708-14.583 7.532-23.351 7.532-22.072 0-39.964-17.893-39.964-39.964 0-13.303 6.5-25.089 16.498-32.353l0.115-0.080c99.022-71.472 162.72-186.553 162.72-316.512 0-30.518-3.513-60.216-10.156-88.712l0.516 2.629c-2.313 0.15-5.016 0.235-7.738 0.235-70.454 0-127.568-57.114-127.568-127.568 0-46.687 25.080-87.515 62.501-109.749l0.588-0.323c17.916-9.939 39.289-15.789 62.027-15.789 46.796 0 87.805 24.777 110.623 61.928l0.322 0.564c11.22 18.53 17.86 40.92 17.86 64.86 0 11.848-1.626 23.316-4.668 34.193l0.213-0.892zM912.432 168.216c-8.269-14.324-23.506-23.809-40.959-23.809-8.815 0-17.065 2.42-24.122 6.631l0.216-0.119c-14.299 8.167-23.782 23.322-23.782 40.691 0 8.756 2.41 16.95 6.603 23.954l-0.118-0.213c7.959 15.789 24.043 26.43 42.613 26.43 26.271 0 47.568-21.297 47.568-47.568 0-9.853-2.996-19.006-8.126-26.598l0.107 0.168zM68.757 406.486h3.892c20.212 0.020 36.932 14.947 39.758 34.378l0.026 0.217c16.501 157.967 125.352 286.724 270.972 332.23l2.757 0.743c21.629-41.087 64.034-68.623 112.87-68.623 70.215 0 127.135 56.92 127.135 127.135s-56.92 127.135-127.135 127.135c-20.476 0-39.821-4.841-56.954-13.44l0.732 0.333c-35.045-18.183-60.388-50.918-68.187-89.983l-0.138-0.827c-184.892-52.609-321.629-210.749-341.88-403.583l-0.174-2.039c-0.083-0.971-0.13-2.102-0.13-3.244 0-20.972 15.882-38.235 36.275-40.416l0.179-0.015zM501.189 882.162c25.81-0.595 46.505-21.659 46.505-47.556 0-26.271-21.297-47.568-47.568-47.568-24.744 0-45.075 18.893-47.355 43.041l-0.015 0.19c0 26.271 21.297 47.568 47.568 47.568v0zM661.189 51.892c-47.368-22.111-102.843-35.013-161.33-35.013-102.514 0-195.77 39.635-265.281 104.417l0.233-0.215c12.722 19.715 20.283 43.8 20.283 69.651 0 71.648-58.082 129.73-129.73 129.73s-129.73-58.082-129.73-129.73c0-71.648 58.082-129.73 129.73-129.73 17.139 0 33.503 3.324 48.48 9.362l-0.871-0.31c84.895-83.013 201.18-134.232 329.428-134.232 70.227 0 136.868 15.358 196.745 42.9l-2.93-1.208c14.388 6.473 24.225 20.682 24.225 37.189 0 22.455-18.203 40.658-40.658 40.658-5.948 0-11.597-1.277-16.689-3.572l0.256 0.103zM172.973 177.73c-5.518-20.35-23.822-35.072-45.565-35.072-4.562 0-8.973 0.648-13.146 1.858l0.333-0.083c-12.069 3.598-21.912 11.474-27.986 21.828l-0.123 0.226c-4.075 6.791-6.485 14.985-6.485 23.741 0 17.37 9.482 32.525 23.553 40.571l0.229 0.121c6.837 3.918 15.028 6.229 23.76 6.229 17.551 0 32.921-9.335 41.416-23.311l0.121-0.215c4.085-6.681 6.504-14.766 6.504-23.417 0-4.443-0.638-8.738-1.828-12.796l0.081 0.321z" />
<glyph unicode="&#xe908;" glyph-name="010-clock" d="M551.827 55.924v-79.654c0-21.996-17.831-39.827-39.827-39.827s-39.827 17.831-39.827 39.827v79.654c0 21.996 17.831 39.827 39.827 39.827s39.827-17.831 39.827-39.827v0zM206.659 808.214c-6.34 4.36-14.184 6.964-22.636 6.964-22.24 0-40.27-18.029-40.27-40.27 0-8.002 2.334-15.459 6.359-21.728l-0.096 0.16 56.643-58.856c7.531-7.531 17.936-12.189 29.428-12.189 22.985 0 41.617 18.633 41.617 41.617 0 11.492-4.658 21.897-12.189 29.428v0zM817.341 197.532c-7.442 9.122-18.683 14.9-31.274 14.9-22.24 0-40.27-18.029-40.27-40.27 0-12.591 5.778-23.832 14.827-31.216l0.073-0.057 56.643-56.643c6.863-5.602 15.72-8.996 25.37-8.996 22.24 0 40.27 18.029 40.27 40.27 0 9.65-3.394 18.507-9.054 25.442l0.057-0.073zM160.194 448c0 21.996-17.831 39.827-39.827 39.827h-80.539c-20.352-2.205-36.054-19.293-36.054-40.048s15.702-37.843 35.875-40.033l0.179-0.016h80.097c0.132-0.002 0.287-0.002 0.443-0.002 21.996 0 39.827 17.831 39.827 39.827 0 0.001 0 0.002 0 0.003v0zM204.446 199.302l-54.43-56.643c-5.602-6.863-8.996-15.72-8.996-25.37 0-22.24 18.029-40.27 40.27-40.27 9.65 0 18.507 3.394 25.442 9.054l-0.073-0.057 58.856 56.643c9.122 7.442 14.9 18.683 14.9 31.274 0 22.24-18.029 40.27-40.27 40.27-12.591 0-23.832-5.778-31.216-14.827l-0.057-0.073zM817.341 694.486l56.643 56.643c5.602 6.863 8.996 15.72 8.996 25.37 0 22.24-18.029 40.27-40.27 40.27-9.65 0-18.507-3.394-25.442-9.054l0.073 0.057-56.643-54.43c-7.724-7.441-12.521-17.874-12.521-29.428 0-22.557 18.286-40.842 40.842-40.842 11.003 0 20.99 4.351 28.334 11.427l-0.013-0.012zM983.73 485.615h-431.903v434.558c0 21.996-17.831 39.827-39.827 39.827s-39.827-17.831-39.827-39.827v-472.173c0-21.996 17.831-39.827 39.827-39.827v0h471.73c1.265-0.141 2.731-0.221 4.216-0.221 22.24 0 40.27 18.029 40.27 40.27s-18.029 40.27-40.27 40.27c-1.485 0-2.951-0.080-4.394-0.237l0.179 0.016z" />
<glyph unicode="&#xe909;" glyph-name="011-youtube" horiz-adv-x="1344" d="M196.676-64h950.781c108.621 0 196.676 88.055 196.676 196.676v0 630.647c0 108.621-88.055 196.676-196.676 196.676v0h-950.781c-108.621 0-196.676-88.055-196.676-196.676v0-630.647c0-108.621 88.055-196.676 196.676-196.676v0zM78.564 763.324c0.302 65.11 53.003 117.811 118.084 118.113h950.81c65.11-0.302 117.811-53.003 118.113-118.084v-630.676c0-65.232-52.881-118.113-118.113-118.113v0h-950.781c-65.11 0.302-117.811 53.003-118.113 118.084v0.029zM475.123 712.017v-534.447l474.054 272.033zM554.221 578.405l235.157-130.939-235.157-134.681z" />
<glyph unicode="&#xe90a;" glyph-name="013-check" horiz-adv-x="1305" d="M1289.204 945.618c-9.177 9.256-21.897 14.986-35.955 14.986s-26.778-5.73-35.952-14.983l-0.004-0.004-862.921-884.782-266.93 266.355c-9.177 9.256-21.897 14.986-35.955 14.986s-26.778-5.73-35.952-14.983l-0.004-0.004c-9.256-9.177-14.986-21.897-14.986-35.955s5.73-26.778 14.983-35.952l0.004-0.004 300.872-307.775c9.177-9.256 21.897-14.986 35.955-14.986s26.778 5.73 35.952 14.983l0.004 0.004 901.465 920.449c10.956 9.344 17.859 23.161 17.859 38.591 0 15.693-7.141 29.718-18.35 39.004l-0.084 0.068z" />
<glyph unicode="&#xe90b;" glyph-name="013-skype" horiz-adv-x="1023" d="M959.852 419.886c0 9.503 0 19.007 0 28.51 0 0.237 0.001 0.516 0.001 0.796 0 248.177-200.625 449.495-448.537 450.619h-28.617c-50.244 39.009-114.202 62.537-183.655 62.537-166.207 0-300.944-134.737-300.944-300.944 0-69.652 23.662-133.777 63.387-184.776l-0.505 0.674c0-9.503 0-19.403 0-28.906 0.674-249.038 202.377-450.742 451.351-451.415h0.065c9.503 0 19.403 0 28.906 0 49.831-38.197 113.054-61.209 181.652-61.209 165.769 0 300.152 134.382 300.152 300.152 0 69.094-23.346 132.736-62.581 183.466l0.514-0.692zM722.265-3.019c-62.397 0.348-119.196 24.032-162.174 62.759l0.219-0.194c-8.316 0-24.155-2.376-47.913-2.376-0.588-0.003-1.284-0.005-1.98-0.005-216.15 0-391.4 175.113-391.622 391.21v0.021c0 23.759 1.98 39.598 2.376 47.517-38.465 42.941-62.124 99.841-62.564 162.26l-0.001 0.091c0 0.118 0 0.259 0 0.399 0 132.766 107.291 240.473 239.899 241.148h0.064c0.325 0.002 0.709 0.002 1.093 0.002 63.113 0 120.681-23.738 164.263-62.773l-0.234 0.206c7.92 0 23.759 2.772 47.517 2.772 215.386-0.9 389.643-175.712 389.643-391.223 0-0.14 0-0.28 0-0.421v0.021c-0.013-16.759-1.020-33.268-2.964-49.488l0.192 1.971c38.944-42.704 63.222-99.373 64.54-161.69l0.004-0.265c0-133.403-108.144-241.547-241.547-241.547v0zM511.208 538.283c-0.635-0.010-1.385-0.016-2.135-0.016-27.125 0-52.495 7.513-74.142 20.572l0.646-0.361c-4.529 2.845-8.433 6.12-11.84 9.855l-0.040 0.044c3.528 3.65 7.417 6.91 11.622 9.737l0.257 0.163c21.889 12.154 48.003 19.309 75.788 19.309 33.879 0 65.273-10.636 91.026-28.752l-0.503 0.336c14.138-19.159 36.629-31.45 61.991-31.45 3.273 0 6.498 0.205 9.663 0.602l-0.377-0.039c0 0 0.001 0 0.001 0 48.331 0 87.511 39.18 87.511 87.511 0 0.139 0 0.278-0.001 0.417v-0.021c-0.122 20.523-7.104 39.392-18.765 54.455l0.154-0.206c-93.055 114.834-298.172 121.169-409.442 47.517-55.827-32.234-92.795-91.625-92.795-159.651 0-33.314 8.866-64.558 24.368-91.499l-0.473 0.892c16.72-28.848 40.052-52.18 68.012-68.424l0.888-0.476c50.163-31.569 111.169-50.298 176.549-50.298 0.855 0 1.71 0.003 2.564 0.010l-0.131-0.001c1.252 0.039 2.726 0.061 4.204 0.061 26.919 0 52.114-7.379 73.673-20.225l-0.661 0.365c4.237-2.838 7.885-6.108 11.024-9.822l0.064-0.077c-3.244-3.884-7.035-7.171-11.284-9.786l-0.199-0.114c-22.447-12.474-49.23-19.817-77.729-19.817-33.611 0-64.836 10.214-90.741 27.706l0.575-0.366c-16.906 18.975-41.41 30.867-68.692 30.867-23.544 0-45.019-8.857-61.276-23.42l0.087 0.077c-8.235-7.459-15.112-16.231-20.34-26.016l-0.251-0.515c-5.534-11.098-8.773-24.175-8.773-38.008 0-20.61 7.19-39.54 19.198-54.42l-0.129 0.165c54.436-60.289 132.876-98.016 220.127-98.016 3.912 0 7.807 0.076 11.682 0.226l-0.557-0.017c1.083-0.013 2.363-0.021 3.644-0.021 64.239 0 124.062 18.908 174.207 51.463l-1.245-0.757c54.298 33.272 90.577 91.338 93.045 158.043l0.010 0.349c0 108.498-107.706 209.869-269.661 209.869zM654.948 219.125c-39.064-24.889-86.675-39.667-137.738-39.667-2.11 0-4.215 0.025-6.313 0.075l0.311-0.006c-3.119-0.147-6.775-0.23-10.451-0.23-68.482 0-130.196 28.974-173.554 75.331l-0.125 0.135c-3.769 4.548-6.055 10.442-6.055 16.871 0 4.392 1.067 8.535 2.957 12.184l-0.070-0.148c5.772 9.538 16.089 15.815 27.873 15.815 6.238 0 12.065-1.759 17.012-4.808l-0.14 0.080c2.106-1.159 3.925-2.473 5.564-3.978l-0.020 0.019c41.974-51.477 172.251-71.672 247.486-21.383 22.68 10.576 38.117 33.184 38.117 59.397s-15.437 48.821-37.716 59.228l-0.401 0.168c-30.717 18.91-67.933 30.112-107.764 30.112-0.954 0-1.907-0.006-2.858-0.019l0.144 0.002c-1.706-0.039-3.717-0.062-5.733-0.062-51.812 0-100.175 14.764-141.113 40.314l1.125-0.655c-39.445 21.371-65.782 62.453-65.782 109.686s26.337 88.315 65.127 109.361l0.655 0.325c87.115 58.209 257.386 53.853 327.87-34.846 3.769-4.548 6.055-10.442 6.055-16.871 0-4.392-1.067-8.535-2.957-12.184l0.070 0.148c-4.443-9.43-13.869-15.84-24.792-15.84-0.054 0-0.108 0-0.163 0h0.008c-15.047 0-17.027 0-24.947 8.316-39.598 50.685-169.479 72.464-245.903 21.383-23.962-9.529-40.592-32.521-40.592-59.397s16.63-49.867 40.162-59.245l0.43-0.151c30.174-18.919 66.846-30.141 106.139-30.141 1.526 0 3.048 0.017 4.566 0.051l-0.226-0.004c1.787 0.044 3.892 0.070 6.002 0.070 51.063 0 98.674-14.779 138.79-40.292l-1.051 0.625c39.597-21.328 66.055-62.49 66.055-109.831 0-21.083-5.248-40.941-14.508-58.339l0.326 0.671c-11.877-22.123-29.639-39.757-51.205-51.155l-0.668-0.322z" />
<glyph unicode="&#xe90c;" glyph-name="014-cancel" d="M568.437 448l443.372 443.824c7.264 7.202 11.762 17.185 11.762 28.219s-4.497 21.016-11.759 28.216l-0.003 0.003c-7.216 6.668-16.901 10.757-27.541 10.757s-20.325-4.089-27.569-10.782l0.027 0.025-443.372-443.372-445.178 443.372c-7.202 7.264-17.185 11.762-28.219 11.762s-21.016-4.497-28.216-11.759l-0.003-0.003c-7.264-7.202-11.762-17.185-11.762-28.219s4.497-21.016 11.759-28.216l0.003-0.003 443.372-443.824-443.372-443.372c-6.087-7.004-9.797-16.216-9.797-26.294 0-22.193 17.991-40.183 40.183-40.183 9.965 0 19.083 3.628 26.106 9.634l-0.055-0.046 443.824 443.824 443.372-443.824c7.28-7.28 17.336-11.782 28.444-11.782 22.216 0 40.227 18.010 40.227 40.227 0 11.108-4.503 21.165-11.782 28.444v0z" />
<glyph unicode="&#xe90d;" glyph-name="015-zoom-in" d="M1012.261 4.176l-289.862 288.959c57.632 69.622 92.595 159.838 92.595 258.22 0 224.42-181.929 406.349-406.349 406.349s-406.349-181.929-406.349-406.349c0-224.42 181.929-406.349 406.349-406.349 98.382 0 188.598 34.963 258.901 93.141l-0.68-0.547 288.959-288.959c7.222-7.222 17.199-11.689 28.219-11.689 22.040 0 39.907 17.867 39.907 39.907 0 11.020-4.467 20.997-11.689 28.219v0zM640.226 320.226c-59.403-59.418-141.475-96.169-232.131-96.169-181.282 0-328.24 146.958-328.24 328.24s146.958 328.24 328.24 328.24c90.656 0 172.728-36.752 232.13-96.169v0c59.273-59.447 95.923-141.479 95.923-232.071s-36.65-172.624-95.931-232.079l0.008 0.008zM604.106 592.028h-155.767v155.767c0 22.193-17.991 40.183-40.183 40.183s-40.183-17.991-40.183-40.183v0-155.767h-155.767c-22.193 0-40.183-17.991-40.183-40.183s17.991-40.183 40.183-40.183h155.767v-155.767c0-22.193 17.991-40.183 40.183-40.183s40.183 17.991 40.183 40.183v0 155.767h155.767c22.193 0 40.183 17.991 40.183 40.183s-17.991 40.183-40.183 40.183v0z" />
<glyph unicode="&#xe90e;" glyph-name="017-settings" horiz-adv-x="1016" d="M508.006 608.017c-88.228 0-159.75-71.523-159.75-159.75s71.523-159.75 159.75-159.75c88.228 0 159.75 71.523 159.75 159.75v0c0 88.228-71.523 159.75-159.75 159.75v0zM508.006 367.859c-0.634-0.018-1.381-0.028-2.13-0.028-44.114 0-79.875 35.761-79.875 79.875s35.761 79.875 79.875 79.875c44.104 0 79.859-35.745 79.875-79.845v-0.002c0-0.008 0-0.018 0-0.028 0-43.365-34.557-78.658-77.636-79.844l-0.11-0.002zM1000.57 328.453l-103.305 79.875c1.271 11.976 1.997 25.872 1.997 39.938s-0.725 27.961-2.14 41.652l0.144-1.714 103.305 79.343c9.861 7.357 16.177 18.991 16.177 32.101 0 7.837-2.257 15.146-6.157 21.313l0.097-0.164-100.11 168.27c-6.913 11.975-19.651 19.904-34.241 19.904-5.315 0-10.384-1.052-15.011-2.96l0.262 0.096-123.008-48.458c-20.827 15.656-44.425 29.869-69.434 41.569l-2.454 1.031-18.638 125.67c-2.713 19.352-19.158 34.082-39.044 34.082-0.127 0-0.254-0.001-0.381-0.002h-200.734c-0.107 0.001-0.234 0.002-0.361 0.002-19.885 0-36.331-14.73-39.020-33.874l-0.024-0.208-18.638-125.67c-27.531-12.383-51.135-26.077-73.142-41.858l1.254 0.855-123.008 46.86c-4.244 1.704-9.164 2.692-14.315 2.692-14.521 0-27.207-7.854-34.042-19.545l-0.101-0.187-101.175-169.868c-3.695-5.988-5.884-13.246-5.884-21.015 0-13.112 6.236-24.768 15.904-32.164l0.097-0.072 106.5-79.343c-1.271-11.976-1.997-25.872-1.997-39.938s0.725-27.961 2.14-41.652l-0.144 1.714-105.968-78.278c-9.861-7.357-16.177-18.991-16.177-32.101 0-7.837 2.257-15.146 6.157-21.313l-0.097 0.164 100.643-167.205c7.112-11.668 19.768-19.341 34.217-19.341 5.321 0 10.398 1.040 15.041 2.929l-0.267-0.096 123.008 48.458c20.782-15.2 44.405-28.91 69.435-40.030l2.453-0.973 18.638-127.268c2.713-19.352 19.158-34.082 39.044-34.082 0.127 0 0.254 0.001 0.381 0.002h200.734c0.107-0.001 0.234-0.002 0.361-0.002 19.885 0 36.331 14.73 39.020 33.874l0.024 0.208 18.638 127.268c27.507 12.259 51.119 25.959 73.071 41.816l-1.183-0.814 122.475-48.458c4.317-1.713 9.318-2.707 14.552-2.707 14.483 0 27.188 7.607 34.339 19.044l0.099 0.17 101.175 168.803c3.195 5.613 5.079 12.331 5.079 19.49 0 13.146-6.352 24.809-16.154 32.087l-0.107 0.076zM858.925 176.691l-113.423 44.198c-4.23 1.691-9.132 2.672-14.264 2.672-9.586 0-18.373-3.423-25.205-9.114l0.064 0.051c-25.905-21.56-55.832-39.51-88.294-52.464l-2.231-0.786c-13.874-4.934-24.027-17.041-26.069-31.743l-0.024-0.207-16.508-115.553h-130.463l-16.508 117.683c-3.103 13.893-12.93 24.953-25.809 29.728l-0.284 0.092c-34.745 13.459-64.707 31.44-90.995 53.636l0.469-0.386c-6.768 5.639-15.555 9.062-25.141 9.062-5.132 0-10.034-0.981-14.53-2.766l0.266 0.093-110.228-44.198-67.095 109.695 93.72 72.42c9.734 7.364 15.959 18.924 15.959 31.938 0 2.261-0.188 4.478-0.549 6.636l0.032-0.234c-2.795 15.21-4.394 32.712-4.394 50.588s1.599 35.378 4.661 52.372l-0.267-1.784c0.411 2.137 0.646 4.594 0.646 7.106 0 12.99-6.286 24.513-15.982 31.691l-0.107 0.076-93.72 71.888 67.095 110.228 112.358-44.198c4.278-1.792 9.249-2.832 14.463-2.832 9.548 0 18.281 3.49 24.993 9.265l-0.050-0.042c25.655 21.812 55.441 39.79 87.866 52.515l2.126 0.735c12.498 5.028 21.726 15.84 24.45 29.029l0.045 0.258 16.508 116.085h131.528l16.508-116.085c2.411-14.762 12.422-26.719 25.812-31.855l0.281-0.095c34.745-13.459 64.707-31.44 90.995-53.636l-0.469 0.386c6.661-5.732 15.394-9.222 24.942-9.222 5.214 0 10.185 1.041 14.716 2.926l-0.254-0.094 112.358 44.198 64.965-110.228-94.253-69.225c-9.482-7.272-15.535-18.605-15.535-31.352 0-2.47 0.227-4.887 0.662-7.231l-0.037 0.243c2.795-15.21 4.394-32.712 4.394-50.588s-1.599-35.378-4.661-52.372l0.267 1.784c-0.42-2.174-0.66-4.674-0.66-7.23 0-12.842 6.061-24.268 15.479-31.574l0.091-0.068 94.253-71.888z" />
<glyph unicode="&#xe90f;" glyph-name="018-trash" horiz-adv-x="880" d="M840.086 842.464h-260.017v75.257c0.002 0.15 0.003 0.327 0.003 0.504 0 21.949-17.793 39.742-39.742 39.742-0.894 0-1.78-0.029-2.659-0.088l0.119 0.006h-199.557c-21.21-0.93-38.054-18.351-38.054-39.706 0-0.161 0.001-0.322 0.003-0.483v0.024-75.257h-257.903c-0.15 0.002-0.327 0.003-0.504 0.003-21.949 0-39.742-17.793-39.742-39.742 0-0.894 0.029-1.78 0.088-2.659l-0.006 0.119v-156.433c0-23.35 18.929-42.279 42.279-42.279v0h55.386v-565.694c0.24-55.158 45.010-99.779 100.201-99.779 0 0 0.001 0 0.001 0h480.29c55.106 0 99.779 44.672 99.779 99.779v0 569.922h60.036c22.423 1.157 40.165 19.62 40.165 42.226 0 0.019 0 0.037 0 0.056v-0.003 154.319c-1.095 21.728-18.437 39.071-40.064 40.161l-0.101 0.004zM380.512 880.092h120.073v-37.628h-120.073zM700.565 34.51c0-10.975-8.897-19.871-19.871-19.871v0h-480.713c-10.975 0-19.871 8.897-19.871 19.871v0 571.191h520.033zM799.921 685.609h-718.745v76.948h718.745zM338.233 546.51c-21.949 0-39.742-17.793-39.742-39.742v0-392.35c0-22.65 18.361-41.011 41.011-41.011s41.011 18.361 41.011 41.011v0 392.35c0 0.024 0 0.053 0 0.081 0 21.949-17.793 39.742-39.742 39.742-0.893 0-1.778-0.029-2.656-0.087l0.119 0.006zM539.904 546.51c-21.949 0-39.742-17.793-39.742-39.742v0-392.35c2.157-20.341 19.221-36.050 39.954-36.050s37.797 15.709 39.939 35.874l0.015 0.175v392.35c0 0.001 0 0.001 0 0.002 0 21.949-17.793 39.742-39.742 39.742-0.149 0-0.297-0.001-0.445-0.002h0.023z" />
<glyph unicode="&#xe910;" glyph-name="019-file" horiz-adv-x="880" d="M779.792 960h-475.483c-10.943-0.031-20.865-4.376-28.16-11.423l0.012 0.011-263.988-258.282c-7.5-6.968-12.178-16.885-12.178-27.895 0-0.223 0.002-0.445 0.006-0.667v0.033-626.877c0.214-54.669 44.582-98.903 99.28-98.903 0.268 0 0.535 0.001 0.802 0.003h679.709c0.226-0.002 0.494-0.003 0.761-0.003 54.699 0 99.066 44.235 99.28 98.883v826.22c-0.431 54.714-44.884 98.901-99.658 98.901-0.135 0-0.27 0-0.404-0.001h0.021zM263.988 824.963v-123.245h-125.908zM798.811 34.9c-0.418-10.594-9.108-19.023-19.766-19.023-0.139 0-0.277 0.001-0.416 0.004h-678.588c-0.010 0-0.021 0-0.032 0-10.733 0-19.507 8.387-20.126 18.965l-0.003 0.055v586.936h224.428c0.014 0 0.031 0 0.048 0 21.008 0 38.039 17.030 38.039 38.039 0 0.669-0.017 1.334-0.051 1.994l0.004-0.092v218.342h437.444c0.231 0.010 0.503 0.015 0.775 0.015 10.452 0 18.974-8.266 19.384-18.617l0.001-0.037z" />
<glyph unicode="&#xe911;" glyph-name="020-download" d="M983.854 312.013c-22.172 0-40.146-17.974-40.146-40.146v0 0-236.917c0-10.305-8.354-18.659-18.659-18.659v0h-826.098c-0.002 0-0.005 0-0.008 0-10.419 0-18.902 8.288-19.216 18.63l-0.001 0.029v236.917c0.003 0.168 0.004 0.367 0.004 0.565 0 21.86-17.721 39.58-39.58 39.58-0.001 0-0.003 0-0.004 0v0c-22.172 0-40.146-17.974-40.146-40.146v0-236.917c0.319-54.52 44.43-98.632 98.92-98.951h826.129c54.52 0.319 98.632 44.43 98.951 98.92v236.948c0 22.172-17.974 40.146-40.146 40.146v0zM842.496 464.115c-6.264 14.098-20.143 23.751-36.277 23.751-0.167 0-0.334-0.001-0.501-0.003h-136.244v431.991c0 22.172-17.974 40.146-40.146 40.146h-233.524c-22.172 0-40.146-17.974-40.146-40.146v0 0-431.991h-137.4c-0.168 0.003-0.367 0.004-0.565 0.004-21.86 0-39.58-17.721-39.58-39.58 0-0.001 0-0.003 0-0.004v0c0.019-10.687 4.096-20.419 10.772-27.739l-0.029 0.033 294.025-308.727c7.19-7.334 17.2-11.88 28.272-11.88s21.082 4.546 28.265 11.873l0.006 0.006 293.46 310.988c7.256 7.263 11.743 17.294 11.743 28.372 0 4.619-0.78 9.056-2.216 13.187l0.085-0.282zM511.717 194.969l-200.729 213.168h84.815c0.001 0 0.003 0 0.004 0 21.86 0 39.58 17.721 39.58 39.58 0 0.199-0.001 0.397-0.004 0.595v-0.030 431.426h154.929v-431.426c0-22.172 17.974-40.146 40.146-40.146v0h83.684z" />
<glyph unicode="&#xe912;" glyph-name="021-facebook" d="M151.929-65.519h333.864v365.769h-121.923v119.644h120.024v151.929c1.072 83.087 68.677 150.030 151.917 150.030 0.004 0 0.008 0 0.013 0h150.029v-121.923h-121.923c-33.144 0-60.012-26.868-60.012-60.012v-120.024h174.718l-18.991-119.644h-155.727v-365.769h269.674c83.908 0 151.929 68.021 151.929 151.929v0 721.662c0 83.908-68.021 151.929-151.929 151.929v0h-721.662c-83.908 0-151.929-68.021-151.929-151.929v0-721.662c0-83.908 68.021-151.929 151.929-151.929v0zM60.012 808.071c-0.013 0.571-0.020 1.245-0.020 1.92 0 49.715 40.302 90.018 90.018 90.018 0.675 0 1.348-0.007 2.020-0.022l-0.1 0.002h721.662c0.004 0 0.008 0 0.013 0 49.925 0 90.398-40.472 90.398-90.398 0-0.534-0.005-1.067-0.014-1.599l0.001 0.080v-721.662c-0.215-49.839-40.559-90.183-90.377-90.398h-209.683v242.326h145.472l39.881 240.047h-185.353v61.531h180.036v240.047h-210.042c-115.916-0.216-209.826-94.125-210.042-210.021v-90.039h-120.024v-241.567h120.024v-244.226h-271.953c-0.458-0.008-0.998-0.013-1.54-0.013-49.925 0-90.398 40.472-90.398 90.398 0 0.672 0.007 1.343 0.022 2.012l-0.002-0.1z" />
<glyph unicode="&#xe913;" glyph-name="021-plus" d="M983.44 485.926h-431.934v434.041c0.836 3.055 1.317 6.563 1.317 10.183 0 22.11-17.923 40.033-40.033 40.033s-40.033-17.923-40.033-40.033c0-3.62 0.481-7.128 1.381-10.464l-0.064 0.28v-434.041h-434.041c-22.11 0-40.033-17.923-40.033-40.033s17.923-40.033 40.033-40.033h434.041v-431.934c0-22.11 17.923-40.033 40.033-40.033s40.033 17.923 40.033 40.033v431.934h431.934c22.11 0 40.033 17.923 40.033 40.033s-17.923 40.033-40.033 40.033v0z" />
<glyph unicode="&#xe914;" glyph-name="022-upload" d="M984.055 312.24c-22.061 0-39.945-17.884-39.945-39.945v0-236.972c0-10.434-8.459-18.893-18.893-18.893v0h-826.433c-10.434 0-18.893 8.459-18.893 18.893v0 236.432c0 22.061-17.884 39.945-39.945 39.945s-39.945-17.884-39.945-39.945v0-236.972c-0.008-0.482-0.013-1.050-0.013-1.619 0-54.557 44.227-98.783 98.783-98.783 0.005 0 0.009 0 0.014 0h826.433c0.486-0.009 1.059-0.013 1.633-0.013 54.557 0 98.783 44.227 98.783 98.783 0 0.574-0.005 1.147-0.015 1.719l0.001-0.086v236.972c0.003 0.17 0.004 0.371 0.004 0.573 0 22.061-17.884 39.945-39.945 39.945-0.571 0-1.139-0.012-1.704-0.036l0.081 0.003zM835.070 636.12l-295.27 311.464c-7.034 6.624-16.536 10.694-26.99 10.694s-19.956-4.070-27.010-10.713l0.020 0.019-296.89-311.464c-6.397-7.129-10.309-16.603-10.309-26.99s3.912-19.861 10.343-27.028l-0.033 0.038c7.124-6.688 16.739-10.797 27.313-10.797 0.076 0 0.153 0 0.229 0.001h138.177v-431.84c0-22.061 17.884-39.945 39.945-39.945v0h234.813c22.061 0 39.945 17.884 39.945 39.945v0 431.84h136.569c22.061 0 39.945 17.884 39.945 39.945v0c-0.864 9.63-4.809 18.204-10.829 24.868l0.033-0.037zM629.406 648.536c-22.061 0-39.945-17.884-39.945-39.945v0-431.84h-154.923v431.84c0 22.061-17.884 39.945-39.945 39.945v0h-83.669l200.805 213.221 201.345-213.221z" />
<glyph unicode="&#xe915;" glyph-name="023-refresh" horiz-adv-x="1025" d="M987.147 818.509c-1.040 0.096-2.249 0.15-3.471 0.15-20.833 0-37.96-15.87-39.951-36.18l-0.013-0.165-5.265-57.913c-91.039 142.238-248.216 235.168-427.098 235.168-99.53 0-192.341-28.769-270.569-78.446l2.058 1.221c-77.227-48.95-139.104-115.676-180.948-194.646l-1.345-2.783c-3.219-5.69-5.116-12.495-5.116-19.743 0-22.452 18.201-40.653 40.653-40.653 15.204 0 28.458 8.346 35.432 20.707l0.105 0.203c71.488 140.037 214.678 234.26 379.875 234.26 150.845 0 283.341-78.563 358.803-197.003l1.024-1.72-57.254 40.802c-6.419 4.542-14.409 7.261-23.033 7.261-22.183 0-40.166-17.983-40.166-40.166 0-13.558 6.718-25.547 17.006-32.82l0.126-0.084 173.080-123.064c6.48-4.529 14.523-7.237 23.2-7.237 13.36 0 25.22 6.421 32.663 16.345l0.076 0.106c4.149 5.455 6.801 12.252 7.234 19.645l0.005 0.098 19.743 213.224c0.093 1.023 0.145 2.212 0.145 3.414 0 21.064-16.223 38.339-36.856 40.011l-0.143 0.009zM946.344 267.023c-5.399 2.952-11.827 4.688-18.661 4.688-15.359 0-28.67-8.77-35.199-21.575l-0.104-0.224c-71.688-139.98-214.956-234.125-380.212-234.125-69.646 0-135.386 16.721-193.425 46.368l2.408-1.117c-69.972 35.949-127.153 88.068-168.102 151.631l-1.029 1.706 57.254-40.802c6.494-4.659 14.602-7.45 23.362-7.45 22.288 0 40.355 18.068 40.355 40.355 0 13.527-6.656 25.5-16.871 32.822l-0.121 0.083-173.080 123.064c-6.48 4.529-14.523 7.237-23.2 7.237-13.36 0-25.22-6.421-32.663-16.345l-0.076-0.106c-3.88-5.562-6.478-12.288-7.224-19.564l-0.015-0.179-19.743-212.566c-0.093-1.023-0.145-2.212-0.145-3.414 0-21.064 16.223-38.339 36.856-40.011l0.143-0.009c1.023-0.094 2.213-0.148 3.416-0.148 20.701 0 37.682 15.931 39.351 36.201l0.009 0.142 5.265 56.596c90.98-142.574 248.344-235.76 427.472-235.76 99.921 0 193.070 28.996 271.492 79.033l-2.039-1.216c77.006 48.976 138.672 115.702 180.293 194.638l1.342 2.791c3.704 5.964 5.9 13.201 5.9 20.95 0 15.947-9.299 29.723-22.77 36.2l-0.241 0.104z" />
<glyph unicode="&#xe916;" glyph-name="025-instagram" d="M151.929-65.519h721.662c83.908 0 151.929 68.021 151.929 151.929v0 721.662c0 83.908-68.021 151.929-151.929 151.929v0h-721.662c-83.908 0-151.929-68.021-151.929-151.929v0-721.662c0-83.908 68.021-151.929 151.929-151.929v0zM60.012 808.071c-0.013 0.571-0.020 1.245-0.020 1.92 0 49.715 40.302 90.018 90.018 90.018 0.675 0 1.348-0.007 2.020-0.022l-0.1 0.002h721.662c0.004 0 0.008 0 0.013 0 49.925 0 90.398-40.472 90.398-90.398 0-0.534-0.005-1.067-0.014-1.599l0.001 0.080v-721.662c-0.215-49.839-40.559-90.183-90.377-90.398h-721.683c-0.452-0.008-0.985-0.013-1.519-0.013-49.925 0-90.398 40.472-90.398 90.398 0 0.004 0 0.009 0 0.013v-0.001zM512 178.326c149.146 0 270.053 120.907 270.053 270.053s-120.907 270.053-270.053 270.053c-149.146 0-270.053-120.907-270.053-270.053 0-0.134 0-0.267 0-0.401v0.021c0 0 0 0 0 0 0-148.937 120.737-269.674 269.674-269.674 0.134 0 0.267 0 0.401 0h-0.021zM512 656.142c0.562 0.005 1.226 0.009 1.891 0.009 116.003 0 210.042-94.039 210.042-210.042s-94.039-210.042-210.042-210.042c-116.003 0-210.042 94.039-210.042 210.042 0 0.665 0.003 1.329 0.009 1.992l-0.001-0.102c1.064 114.523 93.619 207.078 208.041 208.142l0.102 0.001zM812.059 656.142c49.543 0.227 89.618 40.442 89.618 90.017 0 49.715-40.302 90.018-90.018 90.018-49.047 0-88.933-39.226-89.996-88.019l-0.002-0.099c-0.013-0.566-0.020-1.232-0.020-1.9 0-49.715 40.302-90.018 90.018-90.018 0.141 0 0.281 0 0.422 0.001h-0.022zM812.059 776.166c0.001 0 0.002 0 0.002 0 16.362 0 29.626-13.264 29.626-29.626 0-0.134-0.001-0.267-0.003-0.4v0.020c0-16.572-13.434-30.006-30.006-30.006s-30.006 13.434-30.006 30.006v0c-0.024 0.454-0.038 0.985-0.038 1.519 0 16.782 13.604 30.386 30.386 30.386 0.013 0 0.027 0 0.040 0h-0.002z" />
<glyph unicode="&#xe917;" glyph-name="026-tag" d="M1012.406 948.406c-7.313 7.17-17.34 11.594-28.401 11.594-0.021 0-0.041 0-0.062 0h-368.911c-10.911-0.010-20.785-4.439-27.932-11.594v0l-575.506-573.398c-7.050-7.291-11.395-17.236-11.395-28.196s4.345-20.905 11.406-28.207l368.903-368.903c7.177-7.301 17.158-11.825 28.196-11.825s21.019 4.524 28.19 11.82l0.005 0.006 575.506 570.763c7.093 7.382 11.493 17.397 11.594 28.439v368.934c0.035 0.63 0.055 1.368 0.055 2.111 0 11.088-4.447 21.137-11.655 28.462l0.005-0.005zM943.893 565.789l-532.817-533.344-316.212 316.212 537.56 531.236h316.212zM834.8 770.8c-22.395 22.309-53.287 36.101-87.401 36.101-68.4 0-123.85-55.449-123.85-123.85s55.449-123.85 123.85-123.85c34.114 0 65.006 13.792 87.405 36.105l-0.004-0.004c22.516 22.43 36.449 53.462 36.449 87.749s-13.933 65.319-36.445 87.745l-0.004 0.004zM778.409 652.22c-7.958-7.958-18.951-12.88-31.094-12.88-24.286 0-43.974 19.688-43.974 43.974 0 12.143 4.922 23.136 12.88 31.094v0c8.045 7.765 19.011 12.549 31.094 12.549s23.050-4.784 31.107-12.562l-0.013 0.013c7.765-8.045 12.549-19.011 12.549-31.094s-4.784-23.050-12.562-31.107l0.013 0.013z" />
<glyph unicode="&#xe918;" glyph-name="027-play-button" d="M966.555 538.384l-816.354 410.549c-13.34 6.553-29.034 10.386-45.623 10.386-40.437 0-75.556-22.771-93.233-56.19l-0.277-0.573c-6.989-13.309-11.091-29.078-11.091-45.805 0-0.757 0.008-1.513 0.025-2.266l-0.002 0.112v-814.773c1.475-57.066 48.086-102.764 105.371-102.764 16.281 0 31.699 3.691 45.464 10.282l-0.634-0.274 816.881 408.441c33.992 17.953 56.763 53.072 56.763 93.51 0 16.589-3.833 32.284-10.66 46.246l0.275-0.623c-10.723 19.036-26.606 34.071-45.757 43.468l-0.621 0.275zM930.717 424.548l-816.881-405.805c-3.056-1.538-6.66-2.439-10.475-2.439-9.18 0-17.142 5.216-21.084 12.847l-0.062 0.133c-1.357 3.084-2.293 6.66-2.626 10.41l-0.009 0.131v814.773c-0.016 0.331-0.025 0.718-0.025 1.107 0 13.389 10.854 24.243 24.243 24.243 0.565 0 1.126-0.019 1.681-0.057l-0.075 0.004c3.68-0.141 7.106-1.1 10.143-2.697l-0.13 0.062 816.881-407.914c7.88-3.966 13.191-11.989 13.191-21.253 0-3.98-0.981-7.731-2.713-11.025l0.062 0.13c-2.287-4.459-5.942-7.944-10.404-9.958l-0.136-0.055z" />
<glyph unicode="&#xe919;" glyph-name="029-telegram" horiz-adv-x="1188" d="M281.738 373.647l147.436-368.589 192.344 192.344 328.341-260.978 236.405 1023.576-1186.264-477.048zM189.379 484.223l566.017 227.085-450.357-271.993zM856.652 691.396l-376.215-344.017-44.909-169.466-84.733 208.867zM508.399 182.573l22.878 84.733 35.164-27.962zM906.645 58.863l-342.322 271.57 515.601 471.116z" />
<glyph unicode="&#xe91a;" glyph-name="030-periscope" horiz-adv-x="780" d="M390.095 960c-215.255-0.469-389.626-174.841-390.095-390.050v-0.045c0-161.575 176.865-436.378 285.96-557.456 59.919-67.358 85.953-76.449 104.136-76.449s43.803 9.091 103.722 76.449c109.094 123.971 285.96 395.881 285.96 557.456 0 215.299-174.416 389.86-389.659 390.095h-0.023zM458.692 63.277c-19.689-25.381-42.295-47.198-67.635-65.458l-0.963-0.66c-26.535 18.814-49.289 40.648-68.469 65.392l-0.541 0.726c-105.789 123.971-261.165 371.913-261.165 506.628 0 182.579 148.010 330.589 330.589 330.589s330.589-148.010 330.589-330.589v0c0-133.889-153.724-381.417-261.165-506.628zM390.095 840.161c-148.903-0.47-269.43-121.287-269.43-270.255 0-149.259 120.998-270.257 270.257-270.257s270.256 120.997 270.257 270.255v0c-0.235 149.309-121.328 270.257-270.67 270.257-0.145 0-0.291 0-0.436 0h0.022zM280.588 749.249c28.067-5.342 48.998-29.685 48.998-58.916 0-33.093-26.827-59.919-59.919-59.919-29.231 0-53.573 20.931-58.856 48.623l-0.059 0.374c17.668 28.694 41.143 52.169 68.936 69.32l0.901 0.517zM390.095 359.981c0 0 0 0 0 0-115.938 0-209.924 93.986-209.924 209.924 0 0.145 0 0.291 0 0.436v-0.023c-0.006 0.575-0.010 1.255-0.010 1.935 0 12.325 1.207 24.367 3.509 36.016l-0.193-1.173c21.87-22.932 52.66-37.191 86.78-37.191 66.185 0 119.839 53.654 119.839 119.839 0 32.065-12.593 61.189-33.104 82.695l0.045-0.048-3.719 4.132c10.422 1.834 22.421 2.882 34.666 2.882 115.938 0 209.924-93.986 209.924-209.924 0-115.195-92.786-208.719-207.699-209.913l-0.113-0.001z" />
<glyph unicode="&#xe91b;" glyph-name="032-information" d="M512 960c-282.77 0-512-229.23-512-512s229.23-512 512-512c282.77 0 512 229.23 512 512v0c0 282.77-229.23 512-512 512v0zM512 15.88c-239.185 0-433.083 193.898-433.083 433.083s193.898 433.083 433.083 433.083c239.185 0 433.083-193.898 433.083-433.083v0c0-239.185-193.898-433.083-433.083-433.083v0zM512 531.248c-22.058 0-39.94-17.882-39.94-39.94v-257.444c0-22.058 17.882-39.94 39.94-39.94s39.94 17.882 39.94 39.94v0 257.444c0 22.058-17.882 39.94-39.94 39.94v0zM565.895 634.226c0-29.765-24.129-53.895-53.895-53.895s-53.895 24.129-53.895 53.895c0 29.765 24.129 53.895 53.895 53.895s53.895-24.129 53.895-53.895z" />
<glyph unicode="&#xe91c;" glyph-name="033-warning" d="M1014.318 83.998l-409.877 818.831c-17.611 33.647-52.275 56.213-92.211 56.213s-74.6-22.566-91.938-55.642l-0.272-0.57-408.955-818.831c-6.817-13.443-10.81-29.309-10.81-46.108 0-57.041 46.037-103.329 102.982-103.734h818.869c56.239 1.036 101.433 46.87 101.433 103.26 0 0.168 0 0.336-0.001 0.503v-0.026c0.025 0.854 0.039 1.858 0.039 2.866 0 15.663-3.411 30.53-9.53 43.898l0.27-0.659zM941.471 25.444c-4.201-6.654-11.498-11.020-19.819-11.065h-817.916c-12.986 0-23.514 10.527-23.514 23.514v0c-0.013 0.283-0.021 0.614-0.021 0.947 0 3.525 0.86 6.85 2.382 9.775l-0.056-0.118 408.032 819.292c4.065 7.792 12.085 13.020 21.325 13.020 3.816 0 7.424-0.892 10.627-2.478l-0.14 0.063c4.618-2.327 8.277-5.986 10.543-10.47l0.062-0.135 408.032-816.526c1.994-3.216 3.176-7.117 3.176-11.294 0-4.763-1.537-9.167-4.141-12.743l0.043 0.062zM511.769 599.917c-22.153 0-40.112-17.959-40.112-40.112v0 0-252.196c0-22.153 17.959-40.112 40.112-40.112s40.112 17.959 40.112 40.112v0 252.196c0 22.153-17.959 40.112-40.112 40.112v0zM565.713 167.449c0-29.792-24.151-53.943-53.943-53.943s-53.943 24.151-53.943 53.943c0 29.792 24.151 53.943 53.943 53.943s53.943-24.151 53.943-53.943z" />
<glyph unicode="&#xe91d;" glyph-name="034-error" d="M512 960c-282.77 0-512-229.23-512-512s229.23-512 512-512c282.77 0 512 229.23 512 512v0c0 282.77-229.23 512-512 512v0zM512 15.798c-238.698 0-432.202 193.503-432.202 432.202s193.503 432.202 432.202 432.202c238.698 0 432.202-193.503 432.202-432.202v0c-0.263-238.593-193.609-431.94-432.177-432.202h-0.025zM687.279 328.995l-118.544 119.005 118.544 118.544c5.809 6.914 9.337 15.911 9.337 25.734 0 22.163-17.967 40.13-40.13 40.13-9.707 0-18.609-3.446-25.549-9.183l0.068 0.054-119.005-119.005-118.544 119.005c-7.324 7.679-17.634 12.454-29.059 12.454-22.163 0-40.13-17.967-40.13-40.13 0-11.426 4.775-21.736 12.438-29.044l0.016-0.015 119.005-118.544-119.005-119.005c-5.682-6.872-9.128-15.774-9.128-25.481 0-22.163 17.967-40.13 40.13-40.13 9.822 0 18.82 3.529 25.795 9.388l-0.062-0.050 118.544 118.544 119.005-118.544c7.201-7.201 17.149-11.655 28.137-11.655 21.976 0 39.792 17.815 39.792 39.792 0 10.988-4.454 20.936-11.655 28.137v0z" />
<glyph unicode="&#xe91e;" glyph-name="035-disabled" d="M514.832 960c-0.151 0-0.329 0-0.508 0-282.912 0-512.257-229.345-512.257-512.257s229.345-512.257 512.257-512.257c282.007 0 510.789 227.88 512.25 509.543l0.001 0.14c0.008 1.071 0.013 2.337 0.013 3.604 0 282.343-228.884 511.228-511.228 511.228-0.186 0-0.371 0-0.557 0h0.030zM79.799 445.168c-0.008 0.977-0.013 2.132-0.013 3.288 0 238.556 193.388 431.944 431.944 431.944 105.488 0 202.144-37.814 277.153-100.627l-0.675 0.55-608.531-608.531c-61.619 73.54-99.253 169.003-99.877 273.24l-0.001 0.135zM514.832 15.799c-1.007-0.009-2.198-0.013-3.389-0.013-105.025 0-201.231 37.753-275.79 100.427l0.656-0.537 608.016 608.016c61.655-74.201 99.072-170.457 99.072-275.452 0-237.471-191.405-430.237-428.356-432.439l-0.209-0.002z" />
<glyph unicode="&#xe91f;" glyph-name="035-whatsapp" horiz-adv-x="1026" d="M249.148 9.084c74.897-45.664 165.494-72.699 262.406-72.699 281.623 0 509.924 228.301 509.924 509.924s-228.301 509.924-509.924 509.924c-281.623 0-509.924-228.301-509.924-509.924 0-96.912 27.035-187.509 73.974-264.661l-1.275 2.256-74.329-247.903zM60.626 448.83c1.59 247.39 202.506 447.325 450.119 447.325 248.599 0 450.128-201.529 450.128-450.128s-201.529-450.128-450.128-450.128c-90.039 0-173.904 26.437-244.256 71.971l1.76-1.067-11.627 7.474-168.175-49.83 49.83 168.175-7.474 11.627c-44.286 69.126-70.592 153.46-70.592 243.938 0 0.080 0 0.16 0 0.24v-0.013zM249.148 544.753c35.003-184.865 178.477-328.339 360.517-362.896l2.824-0.446c59.38-11.627 146.998-13.288 189.768 29.483l24.084 24.084c11.575 11.51 18.739 27.446 18.739 45.054s-7.164 33.544-18.736 45.051l-0.003 0.003-94.676 95.092c-11.622 11.499-27.612 18.603-45.262 18.603s-33.64-7.104-45.268-18.609l-23.663-23.663c-7.412-6.982-17.427-11.272-28.444-11.272s-21.032 4.29-28.465 11.292l0.021-0.020-95.092 98.829c-6.729 6.757-10.888 16.077-10.888 26.368s4.16 19.611 10.89 26.37l-0.001-0.001 24.084 23.669c11.499 11.622 18.603 27.612 18.603 45.262s-7.104 33.64-18.609 45.268l-95.501 95.501c-11.622 11.499-27.612 18.603-45.262 18.603s-33.64-7.104-45.268-18.609l0.006 0.006-23.669-24.084c-34.466-34.050-46.092-105.888-30.728-188.938zM322.232 690.92c24.915 24.5 23.669 24.915 26.161 24.915 0.429 0.186 0.929 0.294 1.453 0.294s1.024-0.108 1.478-0.303l-0.024 0.009c100.49-100.905 96.337-95.092 96.337-97.998 0.135-0.371 0.214-0.799 0.214-1.246s-0.078-0.875-0.222-1.272l0.008 0.026-23.669-23.669c-17.617-17.652-28.511-42.019-28.511-68.931s10.894-51.279 28.512-68.933l-0.002 0.002 95.507-99.244c18.356-17.766 43.403-28.715 71.007-28.715s52.652 10.95 71.035 28.742l-0.028-0.027 23.669 23.669c0.612 0.691 1.501 1.125 2.491 1.125s1.88-0.434 2.488-1.121l0.003-0.004c100.49-100.905 96.337-95.092 96.337-97.998 0.135-0.371 0.214-0.799 0.214-1.246s-0.078-0.875-0.222-1.272l0.008 0.026-23.669-23.669c-16.61-16.61-68.516-26.161-136.616-13.288-160.603 30.334-285.254 154.985-315.202 313.139l-0.386 2.449c-12.873 67.685-2.907 120.006 13.288 136.201z" />
<glyph unicode="&#xe920;" glyph-name="039-cloud-computing" horiz-adv-x="1565" d="M1207.929 659.322h-77.615c-82.293 178.736-259.863 300.583-465.892 300.583-224.509 0-415.225-144.687-483.99-345.902l-1.069-3.599c-107.929-63.993-179.151-179.888-179.151-312.419 0-199.616 161.575-361.494 361.075-361.986h847.945c193.2 8.461 346.625 167.144 346.625 361.661s-153.426 353.2-345.864 361.635l-0.761 0.027zM1207.929 58.619h-847.898c-1.131-0.019-2.464-0.030-3.801-0.030-132.199 0-239.368 107.169-239.368 239.368 0 95.712 56.175 178.304 137.353 216.604l1.459 0.619c15.961 7.692 27.843 21.707 32.512 38.708l0.1 0.426c49.562 163.244 198.729 280.008 375.168 280.008 166.762 0 309.161-104.308 365.513-251.239l0.903-2.68c8.609-24.131 31.264-41.091 57.88-41.091 0.059 0 0.119 0 0.178 0h118.697c126.714-6.825 226.877-111.236 226.877-239.042s-100.164-232.217-226.273-239.016l-0.604-0.026z" />
<glyph unicode="&#xe921;" glyph-name="040-html" horiz-adv-x="906" d="M63.718 64.564l390.203-128.564 388.511 128.564 63.718 895.436h-906.15zM841.304 900.229l-56.388-789.427-330.996-109.392-333.251 107.137-56.388 789.427zM563.877 386.537l-6.767-103.189-103.189-34.396-105.445 34.396v40.599h-182.696l11.841-173.11 276.3-91.912 274.044 91.912 29.322 414.449h-428.546l-6.767 94.731h442.079l12.969 179.877h-647.894l31.577-453.921zM711.612 781.251l-3.947-59.771h-451.101l15.225-214.273h420.088l-21.427-308.441-216.529-73.868-219.348 72.74-4.511 68.793h59.771v-25.374l162.396-53.004 160.705 53.004 14.097 205.251h-409.938l-23.683 333.815z" />
<glyph unicode="&#xe922;" glyph-name="041-resize" d="M984.055 960h-295.81c-22.061 0-39.945-17.884-39.945-39.945s17.884-39.945 39.945-39.945v0h199.186l-320.641-320.641c-7.253-7.253-11.739-17.272-11.739-28.339 0-22.135 17.944-40.078 40.078-40.078 11.067 0 21.087 4.486 28.339 11.739v0l320.641 320.641v-199.186c-0.002-0.161-0.004-0.35-0.004-0.54 0-21.763 17.642-39.405 39.405-39.405 0.001 0 0.003 0 0.004 0v0c0.484-0.021 1.052-0.033 1.623-0.033 22.181 0 40.196 17.838 40.482 39.951v295.837c0 0.010 0 0.021 0 0.033 0 22.061-17.884 39.945-39.945 39.945-0.57 0-1.136-0.012-1.7-0.036l0.081 0.003zM457.21 393.21c-7.238 7.285-17.262 11.794-28.339 11.794s-21.102-4.509-28.337-11.792l-320.643-320.643v199.186c0 22.061-17.884 39.945-39.945 39.945s-39.945-17.884-39.945-39.945v0-295.81c-0.021-0.483-0.033-1.050-0.033-1.619 0-22.061 17.884-39.945 39.945-39.945 0.012 0 0.023 0 0.035 0h295.808c22.061 0 39.945 17.884 39.945 39.945s-17.884 39.945-39.945 39.945h-199.186l320.641 320.641c7.285 7.238 11.794 17.262 11.794 28.339s-4.509 21.102-11.792 28.337l-0.002 0.002z" />
<glyph unicode="&#xe923;" glyph-name="043-twitter" horiz-adv-x="1251" d="M1250.899 823.506l-85.678-4.136 46.089 132.949s-147.721-51.407-182.583-63.224c-50.721 44.199-117.482 71.145-190.537 71.145-56.553 0-109.335-16.148-153.986-44.085l1.22 0.712c-70.964-42.392-117.747-118.799-117.747-206.134 0-13.593 1.133-26.92 3.31-39.894l-0.194 1.403c-166.841 21.861-310.8 105.836-410.359 227.543l-0.895 1.129-34.271 44.316-25.999-47.271c-22.242-39.883-35.337-87.493-35.337-138.161 0-19.267 1.893-38.091 5.505-56.297l-0.303 1.83c5.721-28.489 14.923-53.801 27.326-77.152l-0.736 1.519-29.544 11.818-3.545-49.634c-0.102-2.742-0.161-5.963-0.161-9.198 0-54.992 16.844-106.051 45.654-148.297l-0.586 0.911c10.45-16.258 21.949-30.385 34.836-43.109l0.026-0.026h-15.363l18.908-59.088c23.29-72.841 74.249-131.116 140.208-163.553l1.604-0.713c-66.179-27.771-118.177-46.089-206.809-74.451l-80.951-20.681 73.86-40.771c65.474-36.635 141.401-65.265 221.734-81.833l5.165-0.89c219.218-34.271 466.207-5.909 632.245 143.585 140.039 125.858 186.128 305.486 177.265 492.205-0.127 2.054-0.2 4.456-0.2 6.874 0 25.802 8.269 49.673 22.302 69.107l-0.239-0.347c30.726 41.362 118.177 162.493 118.177 162.493zM1073.634 705.329c-23.079-31.116-36.943-70.271-36.943-112.664 0-3.81 0.112-7.594 0.333-11.349l-0.024 0.518c9.454-188.492-41.362-334.44-151.857-434.299-129.403-118.177-337.985-161.902-572.565-125.267-46.114 8.28-87.144 20.988-125.842 38.020l3.529-1.385c89.421 29.888 163.264 60.469 234.605 95.377l-11.251-4.972 127.631 59.088-141.221 8.863c-67.482 3.127-125.961 38.995-160.242 91.98l-0.478 0.789c20.384 0.951 39.606 3.913 58.092 8.703l-1.958-0.431 134.721 37.817-134.721 33.089c-53.283 11.652-97.798 42.855-126.579 85.544l-0.461 0.725c-11.176 16.983-20.262 36.626-26.224 57.585l-0.366 1.504c16.016-4.356 34.777-7.509 54.046-8.814l0.906-0.049 125.858-12.409-99.268 77.406c-52.609 38.463-86.396 99.96-86.396 169.349 0 18.561 2.418 36.557 6.955 53.691l-0.329-1.459c130.555-134.438 312.255-218.591 513.622-220.986l0.447-0.004c-1.323 21.849-4.059 42.1-8.161 61.85l0.48-2.762c-6.089 16.698-9.61 35.975-9.61 56.075 0 61.707 33.189 115.662 82.69 144.988l0.78 0.428c32.607 20.384 72.216 32.473 114.649 32.473 55.069 0 105.382-20.36 143.823-53.964l-0.256 0.219c11.521-10.941 27.133-17.671 44.317-17.671 5.24 0 10.334 0.626 15.212 1.807l-0.44-0.090c16.545 4.136 33.089 8.863 49.634 14.772l-31.908-89.814h40.771l-27.771-37.226z" />
<glyph unicode="&#xe924;" glyph-name="044-chat" horiz-adv-x="1218" d="M1100.905 960h-983.44c-64.94-0.297-117.47-53.009-117.47-117.991 0-0.371 0.002-0.741 0.005-1.111v0.057-569.416c-0.003-0.313-0.005-0.684-0.005-1.055 0-64.982 52.53-117.694 117.441-117.991h93.263v-168.56c-0.001-0.114-0.002-0.248-0.002-0.382 0-26.182 21.225-47.407 47.407-47.407 13.187 0 25.116 5.384 33.709 14.073l0.004 0.004 203.325 202.272h605.761c64.94 0.297 117.47 53.009 117.47 117.991 0 0.371-0.002 0.741-0.005 1.111v-0.057 569.416c0.003 0.313 0.005 0.684 0.005 1.055 0 64.982-52.53 117.694-117.441 117.991h-0.028zM1123.029 271.539c0.004-0.164 0.007-0.357 0.007-0.55 0-12.432-9.788-22.578-22.078-23.151l-0.052-0.002h-626.831c-0.216 0.004-0.47 0.006-0.726 0.006-12.723 0-24.221-5.245-32.45-13.692l-0.009-0.010-133.794-134.848v101.136c0 26.182-21.225 47.407-47.407 47.407v0h-142.222c-0.017 0-0.037 0-0.057 0-12.218 0-22.123 9.905-22.123 22.123 0 0.556 0.021 1.107 0.061 1.653l-0.004-0.073v569.416c-0.004 0.164-0.007 0.357-0.007 0.55 0 12.432 9.788 22.578 22.078 23.151l0.052 0.002h983.44c12.342-0.575 22.13-10.721 22.13-23.153 0-0.194-0.002-0.387-0.007-0.579l0.001 0.029zM673.712 556.51c0-35.492-28.772-64.263-64.263-64.263s-64.263 28.772-64.263 64.263c0 35.492 28.772 64.263 64.263 64.263s64.263-28.772 64.263-64.263zM394.008 556.51c0-35.492-28.772-64.263-64.263-64.263s-64.263 28.772-64.263 64.263c0 35.492 28.772 64.263 64.263 64.263s64.263-28.772 64.263-64.263zM953.416 556.51c0-35.492-28.772-64.263-64.263-64.263s-64.263 28.772-64.263 64.263c0 35.492 28.772 64.263 64.263 64.263s64.263-28.772 64.263-64.263z" />
<glyph unicode="&#xe925;" glyph-name="045-calendar" horiz-adv-x="1106" d="M1063.051 869.501h-212.61v43.39c0.101 1.114 0.159 2.41 0.159 3.719 0 24.051-19.498 43.549-43.549 43.549-22.742 0-41.413-17.433-43.378-39.664l-0.012-0.166v-50.828h-421.501v43.39c0.113 1.175 0.177 2.539 0.177 3.919 0 22.498-17.123 40.997-39.048 43.175l-0.18 0.015c-1.158 0.11-2.504 0.172-3.864 0.172-22.715 0-41.353-17.455-43.234-39.684l-0.011-0.159v-50.828h-212.61c-23.964 0-43.39-19.426-43.39-43.39v0 0-846.722c0-23.964 19.426-43.39 43.39-43.39v0h1019.661c23.964 0 43.39 19.426 43.39 43.39v846.722c0 23.964-19.426 43.39-43.39 43.39v0zM1019.661 22.78h-933.501v759.942h169.84v-43.39c2.193-22.105 20.692-39.228 43.19-39.228 1.38 0 2.745 0.064 4.091 0.19l-0.172-0.013c20.805 1.795 37.256 18.245 39.040 38.891l0.011 0.16v43.39h421.501v-43.39c0-23.964 19.426-43.39 43.39-43.39s43.39 19.426 43.39 43.39v0 43.39h169.22zM611.177 491.39c0-32.18-26.087-58.266-58.266-58.266s-58.266 26.087-58.266 58.266c0 32.18 26.087 58.266 58.266 58.266s58.266-26.087 58.266-58.266zM611.177 237.869c0-32.18-26.087-58.266-58.266-58.266s-58.266 26.087-58.266 58.266c0 32.18 26.087 58.266 58.266 58.266s58.266-26.087 58.266-58.266zM357.656 491.39c0-32.18-26.087-58.266-58.266-58.266s-58.266 26.087-58.266 58.266c0 32.18 26.087 58.266 58.266 58.266s58.266-26.087 58.266-58.266zM865.317 491.39c0-32.18-26.087-58.266-58.266-58.266s-58.266 26.087-58.266 58.266c0 32.18 26.087 58.266 58.266 58.266s58.266-26.087 58.266-58.266zM357.656 237.869c0-32.18-26.087-58.266-58.266-58.266s-58.266 26.087-58.266 58.266c0 32.18 26.087 58.266 58.266 58.266s58.266-26.087 58.266-58.266zM865.317 237.869c0-32.18-26.087-58.266-58.266-58.266s-58.266 26.087-58.266 58.266c0 32.18 26.087 58.266 58.266 58.266s58.266-26.087 58.266-58.266z" />
<glyph unicode="&#xe926;" glyph-name="046-notification" horiz-adv-x="760" d="M753.472 117.399l-96.982 146.847v330.601c0.009 0.843 0.014 1.838 0.014 2.835 0 139.569-101.001 255.548-233.9 278.833l-1.697 0.246v43.975c0 21.685-17.579 39.264-39.264 39.264s-39.264-17.579-39.264-39.264v0-43.19c-134.542-23.186-235.604-138.999-235.604-278.417 0-1.23 0.008-2.457 0.024-3.683l-0.002 0.186v-330.601l-100.123-147.632c-4.301-6.207-6.871-13.898-6.871-22.19 0-13.892 7.215-26.099 18.101-33.078l0.157-0.094c5.583-3.235 12.283-5.144 19.43-5.144 0.624 0 1.244 0.015 1.86 0.043l-0.087-0.003h190.429c16.294-69.088 77.424-119.719 150.38-119.719s134.087 50.631 150.172 118.672l0.209 1.047h189.644c21.685 0 39.264 17.579 39.264 39.264v0c0 0.026 0 0.057 0 0.088 0 8.168-2.494 15.754-6.763 22.037l0.088-0.137zM380.074 15.706c-28.74 0.301-53.554 16.808-65.768 40.803l-0.196 0.424h129.963c-12.294-23.696-36.111-39.904-63.829-41.221l-0.171-0.006zM114.65 135.46l62.822 94.626c4.193 6.152 6.694 13.748 6.694 21.929 0 0.435-0.007 0.868-0.021 1.3l0.002-0.063v341.595c-0.1 2.343-0.157 5.091-0.157 7.853 0 108.511 87.965 196.476 196.476 196.476 105.749 0 191.985-83.545 196.306-188.232l0.013-0.391v-357.301c0-0.026 0-0.057 0-0.088 0-8.168 2.494-15.754 6.763-22.037l-0.088 0.137 62.429-95.804z" />
<glyph unicode="&#xe927;" glyph-name="047-google-plus" horiz-adv-x="1583" d="M1490.040 680.727h-279.858v-93.091h-93.091v-279.858h93.091v-93.091h279.858v93.091h90.749v279.858h-90.749zM1490.040 400.869h-93.091v-93.091h-93.676v93.091h-93.091v90.749h93.091v96.018h93.676v-96.018h93.091zM508.194 960c-281.41-2.001-508.764-230.59-508.764-512.281 0-282.931 229.361-512.293 512.293-512.293s512.293 229.361 512.293 512.293c0 1.437-0.006 2.872-0.018 4.306l0.001-0.22c-0.637 35.19-4.444 69.091-11.149 101.937l0.61-3.577-7.611 37.471h-288.64l189.695 189.109c-97.779 111.302-239.872 181.642-398.427 183.252l-0.283 0.002zM706.671 708.83c-54.824 40.6-123.787 64.988-198.446 64.988-0.011 0-0.022 0-0.033 0h0.002c-180.568-0.32-327.055-145.78-329.037-325.923l-0.002-0.188c0.367-181.769 147.804-328.979 329.623-328.979 142.784 0 264.365 90.786 310.166 217.783l0.724 2.297 22.248 62.061h-286.884v90.749h373.535c0-15.222 0-31.030 0-46.838 0-0.174 0-0.38 0-0.585 0-233.459-189.256-422.715-422.715-422.715s-422.715 189.256-422.715 422.715c0 233.459 189.255 422.714 422.714 422.715v0c0.763 0.005 1.664 0.008 2.566 0.008 100.285 0 192.481-34.634 265.279-92.594l-0.867 0.667zM696.718 307.778c-44.231-56.34-112.096-92.39-188.408-93.090l-0.116-0.001c-129.34 0-234.191 104.851-234.191 234.191s104.851 234.191 234.191 234.191v0 0c78.44-1.831 147.973-38.447 194.008-94.964l0.37-0.469h-240.631v-279.858z" />
<glyph unicode="&#xe928;" glyph-name="048-like" horiz-adv-x="1140" d="M1115.291 608.845c-19.803 25.378-50.391 41.542-84.755 41.542-0.26 0-0.52-0.001-0.779-0.003h-197.032l48.302 166.642c3.076 9.689 4.848 20.832 4.848 32.389 0 61.089-49.522 110.611-110.611 110.611-0.856 0-1.709-0.010-2.56-0.029l0.127 0.002c-33.341-0.064-63.134-15.198-82.939-38.951l-0.141-0.174-221.223-262.762c-3.763-4.462-9.238-7.377-15.399-7.726l-0.057-0.003h-102.4v19.804c0.081 1.012 0.127 2.191 0.127 3.381 0 24.809-20.112 44.921-44.921 44.921-0.045 0-0.090 0-0.134 0h-261.306c-0.003 0-0.007 0-0.011 0-24.542 0-44.438-19.895-44.438-44.438 0-0.34 0.004-0.678 0.011-1.016l-0.001 0.050v-692.649c0-24.542 19.895-44.438 44.438-44.438h261.796c24.542 0 44.438 19.895 44.438 44.438v0 0 22.219h579.623c51.78 0.471 95.025 36.449 106.595 84.741l0.152 0.753 100.951 424.574c1.838 7.566 2.893 16.253 2.893 25.186 0 27.052-9.669 51.845-25.739 71.113l0.144-0.178zM261.313 24.875h-172.438v603.291h172.438zM1050.083 533.494l-101.434-424.574c-1.876-9.65-10.232-16.845-20.28-16.906h-579.63v469.494h104.332c33.254 0.007 63.018 14.949 82.948 38.483l0.131 0.159 222.672 263.245c3.864 3.959 9.253 6.414 15.215 6.414s11.351-2.455 15.211-6.41l0.004-0.004c4.108-3.96 6.659-9.51 6.659-15.656 0-2.703-0.493-5.291-1.395-7.678l0.050 0.15-51.683-179.2c-2.070-6.65-3.263-14.296-3.263-22.22 0-42.682 34.601-77.283 77.283-77.283 0.128 0 0.257 0 0.385 0.001h212.508c0.039 0 0.086 0 0.132 0 6.509 0 12.267-3.219 15.767-8.152l0.040-0.060c3.067-4.007 4.914-9.089 4.914-14.602 0-1.843-0.207-3.639-0.598-5.364l0.031 0.162z" />
<glyph unicode="&#xe929;" glyph-name="049-dislike" horiz-adv-x="1140" d="M1136.756 383.153l-101.142 424.892c-11.613 49.125-55.070 85.126-106.944 85.172h-580.724v22.261c0 0.020 0 0.043 0 0.066 0 23.738-18.577 43.136-41.986 44.451l-0.116 0.005h-261.323c-24.589 0-44.522-19.933-44.522-44.522v0-692.507c0-24.589 19.933-44.522 44.522-44.522h261.323c24.589 0 44.522 19.933 44.522 44.522v0 22.261h102.594c0.043 0 0.093 0.001 0.144 0.001 6.166 0 11.676-2.813 15.315-7.226l0.027-0.034 222.609-263.259c20.337-23.286 50.081-37.915 83.242-37.915 60.937 0 110.336 49.399 110.336 110.336 0 0.399-0.002 0.798-0.006 1.197l0.001-0.061c-0.164 11.104-1.921 21.737-5.052 31.764l0.213-0.792-48.393 166.473h196.96c0.010 0 0.022 0 0.034 0 34.642 0 65.505 16.178 85.448 41.39l0.174 0.228c15.791 19.371 25.357 44.361 25.357 71.585 0 8.586-0.952 16.95-2.755 24.992l0.143-0.759zM261.323 267.493h-172.28v603.463h172.28zM1045.293 342.503c-3.718-4.867-9.455-8.029-15.938-8.226l-0.031-0.001h-211.962c-0.002 0-0.004 0-0.006 0-42.763 0-77.429-34.666-77.429-77.429 0-0.34 0.002-0.68 0.007-1.019l-0.001 0.051c-0.001-0.155-0.002-0.339-0.002-0.523 0-7.432 1.241-14.574 3.527-21.23l-0.137 0.459 51.297-180.023c0.885-2.252 1.397-4.859 1.397-7.586 0-9.135-5.752-16.926-13.833-19.949l-0.147-0.048c-2.208-0.805-4.757-1.271-7.414-1.271-6.184 0-11.779 2.522-15.813 6.593l-0.002 0.002-222.609 263.259c-20.099 23.737-49.919 38.707-83.235 38.715h-102.595v469.898h580.718c9.937-0.429 18.118-7.456 20.296-16.79l0.029-0.147 101.142-424.892c0.438-1.668 0.689-3.583 0.689-5.557 0-5.43-1.903-10.415-5.078-14.326l0.033 0.042z" />
<glyph unicode="&#xe92a;" glyph-name="050-email" horiz-adv-x="1543" d="M1391.851 960h-1241.583c-82.991 0-150.268-67.277-150.268-150.268v0-723.463c0-82.991 67.277-150.268 150.268-150.268v0h1241.583c82.975 0.381 150.182 67.349 150.948 150.195l0.001 0.073v723.463c-0.767 82.919-67.974 149.888-150.912 150.268h-0.036zM1274.9 839.649l-503.841-320.255-503.841 320.255zM1421.769 86.268c0-16.523-13.395-29.918-29.918-29.918v0h-1241.583c-16.523 0-29.918 13.395-29.918 29.918v0 703.745l618.752-393.009c9.439-6.814 21.241-10.899 33.997-10.899s24.558 4.085 34.17 11.017l-0.173-0.118 618.752 393.009z" />
<glyph unicode="&#xe92b;" glyph-name="051-earth-grid" d="M512 960c-282.77 0-512-229.23-512-512s229.23-512 512-512c282.77 0 512 229.23 512 512v0 0c0 0.129 0 0.282 0 0.434 0 282.378-228.789 511.319-511.108 511.566h-0.024zM867.797 692.285c-36.733-10.271-82.145-19.533-128.495-25.846l-5.58-0.622c-7.893 64.916-19.765 122.858-35.819 179.036l1.975-8.081c68.759-33.66 125.381-82.773 166.98-143.050l0.938-1.438zM418.278 869.749c28.168 6.413 60.516 10.088 93.722 10.088s65.554-3.675 96.659-10.64l-2.936 0.552c22.378-61.762 39.604-133.974 48.567-208.727l0.464-4.751c-42.754-3.73-92.505-5.857-142.753-5.857-50.247 0-99.997 2.127-149.165 6.295l6.412-0.438c9.186 79.38 26.426 151.612 51.166 220.262l-2.135-6.785zM114.549 275.742c-22.537 50.761-35.658 109.977-35.658 172.258s13.122 121.496 36.751 175.033l-1.093-2.776c46.039-13.669 102.123-25.658 159.506-33.573l6.243-0.705c-3.524-41.32-5.532-89.415-5.532-137.98 0-48.566 2.009-96.662 5.948-144.211l-0.416 6.231c-63.219-8.7-118.846-20.683-172.893-36.379l8.445 2.101zM154.468 203.715c36.772 10.442 82.163 19.851 128.509 26.27l5.565 0.631c7.701-65.704 19.585-124.562 35.798-181.598l-1.954 8.039c-68.593 33.938-125.15 82.989-166.979 143.062l-0.94 1.426zM289.844 665.817c-51.841 6.877-97.255 16.14-141.518 28.195l7.443-1.727c42.538 61.715 99.16 110.828 165.395 143.368l2.524 1.12c-14.079-48.098-25.951-106.040-33.283-165.389l-0.561-5.567zM607.458 26.251c-28.234-6.411-60.657-10.084-93.939-10.084s-65.706 3.674-96.888 10.638l2.949-0.553c-22.214 61.647-39.292 133.726-48.141 208.33l-0.455 4.715c42.754 3.73 92.505 5.857 142.753 5.857s99.997-2.127 149.165-6.295l-6.412 0.438c-9.463-79.362-26.686-151.421-51.204-220.012l2.174 6.968zM664.732 318.698c-45.5 4.193-98.403 6.584-151.864 6.584s-106.366-2.391-158.61-7.072l6.746 0.488c-3.151 38.966-4.948 84.358-4.948 130.169s1.796 91.201 5.323 136.106l-0.375-5.936c45.5-4.193 98.403-6.584 151.864-6.584s106.366 2.391 158.61 7.072l-6.746-0.488c3.151-38.966 4.948-84.358 4.948-130.169 0-45.81-1.796-91.201-5.323-136.106l0.375 5.936zM702.047 58.359c13.719 48.357 25.584 107.188 33.202 167.344l0.642 6.216c52.098-7.172 97.485-16.577 141.752-28.693l-7.677 1.791c-42.769-61.499-99.326-110.55-165.38-143.348l-2.539-1.14zM745.437 309.153c3.317 41.303 5.207 89.42 5.207 137.98 0 48.558-1.891 96.675-5.602 144.28l0.395-6.301c64.020 8.911 120.090 20.89 174.652 36.449l-8.903-2.171c22.537-50.761 35.658-109.977 35.658-172.258s-13.122-121.496-36.751-175.033l1.093 2.776c-47.391 14.122-104.553 26.133-163.113 33.681l-5.674 0.597z" />
<glyph unicode="&#xe92c;" glyph-name="052-link" horiz-adv-x="320" d="M319.895 608.998v190.844c0.134 2.45 0.21 5.317 0.21 8.202 0 88.453-71.705 160.158-160.158 160.158s-160.158-71.705-160.158-160.158c0-2.885 0.076-5.752 0.227-8.6l-0.017 0.398v-190.844c0.739-73.473 50.838-135.042 118.684-153.177l1.119-0.255v-12.611c-69.468-18.527-119.804-80.881-119.804-154.99 0-0.191 0-0.382 0.001-0.573v0.029-190.844c-0.134-2.45-0.21-5.317-0.21-8.202 0-88.453 71.705-160.158 160.158-160.158s160.158 71.705 160.158 160.158c0 2.885-0.076 5.752-0.227 8.6l0.017-0.398v190.844c0 0.008 0 0.018 0 0.028 0 74.029-50.359 136.296-118.688 154.414l-1.115 0.251v13.452c69.046 18.261 119.217 79.907 119.803 153.365v0.067zM240.026 287.422v-190.844c0-44.11-35.758-79.869-79.869-79.869s-79.869 35.758-79.869 79.869v0 190.844c0.445 29.735 17.159 55.466 41.617 68.731l0.419 0.208v-54.647c5.687-16.931 21.412-28.91 39.934-28.91s34.247 11.98 39.848 28.614l0.087 0.296v54.647c24.878-13.473 41.591-39.204 42.035-68.878l0.001-0.061zM160.158 635.061c-23.216 0-42.036-18.82-42.036-42.036v0-53.386c-24.016 13.759-39.936 39.239-39.936 68.437 0 0.177 0.001 0.353 0.002 0.529v-0.027 191.264c-0.134 1.737-0.21 3.763-0.21 5.806 0 44.342 35.947 80.289 80.289 80.289s80.289-35.947 80.289-80.289c0-2.043-0.076-4.068-0.226-6.073l0.016 0.267v-190.844c-0.349-29.762-17.097-55.533-41.615-68.732l-0.421-0.207v54.647c0 0.016 0 0.034 0 0.053 0 22.477-17.641 40.833-39.832 41.979l-0.102 0.004z" />
<glyph unicode="&#xe92d;" glyph-name="053-smartphone" horiz-adv-x="680" d="M580.185 960h-480.153c-55.246 0-100.032-44.786-100.032-100.032v0-823.936c0-55.246 44.786-100.032 100.032-100.032v0h480.153c55.070 0.232 99.624 44.929 99.624 100.031 0 0 0 0.001 0 0.001v0 823.936c0 0 0 0.001 0 0.001 0 55.103-44.553 99.799-99.601 100.031h-0.022zM600.191 36.032c0-11.049-8.957-20.006-20.006-20.006h-480.153c-10.324 0.871-18.373 9.465-18.373 19.94 0 0.023 0 0.047 0 0.070v-0.004 823.936c0.796 9.81 8.563 17.577 18.302 18.369l0.071 0.005h480.153c11.049 0 20.006-8.957 20.006-20.006v0zM520.166 839.962h-360.115c-22.549 0-40.829-18.28-40.829-40.829v0-603.049c0-22.549 18.28-40.829 40.829-40.829v0h360.115c22.549 0 40.829 18.28 40.829 40.829v0 603.866c-0.458 22.195-18.559 40.013-40.821 40.013-0.003 0-0.006 0-0.009 0v0zM479.337 236.096h-279.273v523.841h280.089zM380.121 126.265h-81.659c-0.015 0-0.033 0-0.051 0-21.831 0-39.661-17.134-40.774-38.689l-0.004-0.099c0-22.549 18.28-40.829 40.829-40.829v0h81.659c0.022 0 0.048 0 0.074 0 21.688 0 39.426 16.909 40.75 38.263l0.006 0.116c0 22.549-18.28 40.829-40.829 40.829v0z" />
<glyph unicode="&#xe92e;" glyph-name="056-diskette" d="M1012.374 671.134l-277.24 277.24c-6.993 7.178-16.754 11.631-27.555 11.631-0.217 0-0.433-0.002-0.649-0.005h-667.132c-21.979 0-39.797-17.818-39.797-39.797v0-943.958c0-21.979 17.818-39.797 39.797-39.797v0h943.958c0.133-0.002 0.29-0.003 0.447-0.003 21.979 0 39.797 17.818 39.797 39.797 0 0.001 0 0.002 0 0.003v0 666.718c0.003 0.183 0.005 0.399 0.005 0.616 0 10.801-4.453 20.562-11.623 27.547l-0.008 0.008zM765.988 16.042h-507.528v391.714h507.528zM944.852 16.042h-98.376v431.958c0 21.979-17.818 39.797-39.797 39.797v0h-588.465c-21.979 0-39.797-17.818-39.797-39.797v0-431.958h-98.376v863.916h610.376l253.541-253.541z" />
<glyph unicode="&#xe92f;" glyph-name="057-question" horiz-adv-x="880" d="M439.861 960c-1.357 0.015-2.961 0.024-4.567 0.024-238.972 0-432.969-192.561-435.293-430.983l-0.002-0.22c0.466-142.063 69.893-267.812 176.541-345.582l1.222-0.85v-206.702c0-22.832 18.509-41.34 41.34-41.34v0c0.012 0 0.027 0 0.041 0 10.412 0 19.868 4.095 26.845 10.763l-0.015-0.014 165.361 150.892c10.335 0 20.67 0 30.592 0 0.741-0.005 1.616-0.007 2.493-0.007 239.257 0 433.432 193.020 435.3 431.836l0.001 0.177c-1.863 238.999-196.040 432.026-435.301 432.026-1.458 0-2.914-0.007-4.369-0.021l0.222 0.002zM439.861 174.534c-0.223-0.001-0.488-0.001-0.752-0.001-14.306 0-28.401 0.902-42.232 2.651l1.645-0.17c-1.16 0.116-2.507 0.182-3.87 0.182-10.601 0-20.27-3.99-27.587-10.551l0.039 0.034-109.552-99.217v135.183c-0.167 13.834-7.103 26.012-17.643 33.397l-0.133 0.088c-96.508 62.864-159.449 170.207-159.574 292.257v0.019c6.766 193.545 165.294 347.875 359.868 347.875s353.101-154.33 359.85-347.258l0.017-0.617c-1.395-195.748-160.402-353.893-356.345-353.893-1.311 0-2.621 0.007-3.929 0.021l0.199-0.002zM459.704 762.393h-139.73c-18.116-4.652-31.29-20.838-31.29-40.1s13.174-35.448 31.004-40.038l0.287-0.063h139.73c0.678 0.027 1.474 0.043 2.274 0.043 33.13 0 59.987-26.857 59.987-59.987 0-32.33-25.576-58.687-57.599-59.94l-0.114-0.004h-44.234c-22.832 0-41.34-18.509-41.34-41.34v0-57.050c4.652-18.116 20.838-31.29 40.1-31.29s35.448 13.174 40.038 31.004l0.063 0.287v17.776c74.055 4.15 132.535 65.214 132.535 139.937s-58.48 135.787-132.169 139.921l-0.366 0.016zM474.174 321.705c0-29.909-24.246-54.156-54.156-54.156s-54.156 24.246-54.156 54.156c0 29.909 24.246 54.156 54.156 54.156s54.156-24.246 54.156-54.156z" />
<glyph unicode="&#xe930;" glyph-name="058-login" horiz-adv-x="860" d="M638.755 717.561c22.010 0 39.853 17.843 39.853 39.853v0 103.692c-0.418 54.707-44.864 98.894-99.63 98.894-0.001 0-0.002 0-0.003 0h-479.712c-54.609-0.207-98.847-44.315-99.263-98.855v-826.62c0.417-54.505 44.698-98.528 99.261-98.528 0.26 0 0.521 0.001 0.781 0.003h479.672c0.11 0 0.241-0.001 0.372-0.001 54.562 0 98.843 44.022 99.26 98.486v103.732c-2.028 20.496-19.179 36.374-40.037 36.374s-38.009-15.878-40.024-36.207l-0.013-0.167v-103.692c-0.205-10.439-8.716-18.823-19.185-18.823-0.131 0-0.262 0.001-0.392 0.004h-479.693c-0.114-0.002-0.248-0.004-0.383-0.004-10.543 0-19.138 8.343-19.543 18.786l-0.001 0.037v826.58c0.406 10.481 9.001 18.823 19.544 18.823 0.135 0 0.269-0.001 0.403-0.004h479.692c0.111 0.002 0.242 0.004 0.372 0.004 10.469 0 18.98-8.384 19.185-18.804v-103.711c0.209-22.055 18.136-39.853 40.22-39.853 0.001 0 0.001 0 0.002 0v0zM820.307 487.668h-382.662l142.437 140.223c7.447 7.26 12.065 17.39 12.065 28.598 0 22.050-17.875 39.926-39.926 39.926-10.842 0-20.674-4.321-27.869-11.335l0.008 0.008-212.918-208.49c-7.262-7.276-11.753-17.32-11.753-28.414s4.491-21.138 11.754-28.414l-0.001 0.001 212.918-207.383c7.186-7.006 17.019-11.327 27.86-11.327 22.050 0 39.926 17.875 39.926 39.926 0 11.209-4.619 21.338-12.057 28.59l-0.008 0.008-142.437 136.902h382.662c20.496 2.028 36.374 19.179 36.374 40.037s-15.878 38.009-36.207 40.024l-0.167 0.013z" />
<glyph unicode="&#xe931;" glyph-name="059-logout" horiz-adv-x="860" d="M638.516 717.728c0.001 0 0.001 0 0.002 0 21.925 0 39.699 17.774 39.699 39.699 0 0.13-0.001 0.261-0.002 0.391v-0.020 103.513c-0.209 54.551-44.48 98.693-99.060 98.693-0.261 0-0.522-0.001-0.783-0.003h-478.569c-0.221 0.002-0.482 0.003-0.743 0.003-54.58 0-98.851-44.141-99.060-98.673v-826.269c0.21-54.755 44.647-99.062 99.431-99.062 0.131 0 0.261 0 0.392 0.001h478.589c0.221-0.002 0.482-0.003 0.743-0.003 54.58 0 98.851 44.141 99.060 98.673v103.904c0.118 1.155 0.186 2.495 0.186 3.851 0 22.13-17.94 40.070-40.070 40.070s-40.070-17.94-40.070-40.070c0-1.356 0.067-2.697 0.199-4.018l-0.013 0.167v-103.513c-0.408-10.538-9.050-18.926-19.65-18.926-0.135 0-0.27 0.001-0.405 0.004h-478.589c-0.221-0.009-0.481-0.015-0.742-0.015-10.45 0-18.922 8.472-18.922 18.922 0 0.005 0 0.010 0 0.015v-0.001 826.249c0 0.010 0 0.022 0 0.033 0 10.245 8.305 18.551 18.551 18.551 0.392 0 0.78-0.012 1.166-0.036l-0.053 0.003h478.609c0.225 0.009 0.49 0.015 0.756 0.015 10.399 0 18.877-8.228 19.278-18.529l0.001-0.036v-103.513c-0.001-0.11-0.002-0.241-0.002-0.371 0-21.925 17.774-39.699 39.699-39.699 0.001 0 0.001 0 0.002 0v0zM847.768 477.681l-212.962 207.768c-7.105 6.529-16.623 10.531-27.075 10.531-11.564 0-21.984-4.899-29.298-12.734l-0.022-0.023c-6.995-7.041-11.319-16.743-11.319-27.455s4.324-20.415 11.321-27.457l-0.002 0.002 142.47-139.13h-381.774c-22.13 0-40.070-17.94-40.070-40.070s17.94-40.070 40.070-40.070v0h382.516l-142.47-138.759c-7.859-7.335-12.757-17.755-12.757-29.319 0-10.452 4.002-19.97 10.557-27.104l-0.026 0.029c7.398-7.881 17.881-12.79 29.511-12.79 10.515 0 20.093 4.013 27.285 10.592l-0.031-0.028 212.962 207.397c7.192 7.296 11.633 17.321 11.633 28.383s-4.441 21.086-11.638 28.387l0.005-0.005z" />
<glyph unicode="&#xe932;" glyph-name="060-pencil" d="M959.322 894.888c-40.148 40.184-95.632 65.042-156.921 65.042s-116.773-24.857-156.919-65.040l-633.762-633.328c-7.169-7.094-11.635-16.908-11.72-27.765v-257.427c0-22.056 17.88-39.936 39.936-39.936v0h257.411c0.040 0 0.087 0 0.134 0 10.983 0 20.919 4.482 28.078 11.717l633.763 633.329c40.055 40.127 64.825 95.522 64.825 156.704s-24.77 116.577-64.828 156.707l0.003-0.003zM79.871 15.871v119.373l121.109-120.675zM296.912 32.366l-200.546 200.98 500.063 500.063 72.058-72.058-268.697-268.697c-6.553-7.092-10.572-16.61-10.572-27.067 0-22.056 17.88-39.936 39.936-39.936 10.457 0 19.975 4.019 27.094 10.596l-0.027-0.025 268.697 268.697 72.058-72.058zM904.627 637.911l-50.788-48.617-200.546 200.546 48.617 48.617c25.701 25.755 61.235 41.688 100.49 41.688 78.403 0 141.961-63.558 141.961-141.961 0-39.148-15.846-74.594-41.473-100.276l0.003 0.003z" />
<glyph unicode="&#xe933;" glyph-name="062-menu" horiz-adv-x="1467" d="M1404.159 504.809h-1341.276c-32.164 0-58.239-26.074-58.239-58.239s26.074-58.239 58.239-58.239v0h1341.276c28.706 3.318 50.785 27.486 50.785 56.809s-22.079 53.491-50.52 56.784l-0.266 0.025zM1404.159 960h-1341.276c-1.408 0.12-3.047 0.189-4.702 0.189-29.91 0-54.586-22.41-58.153-51.355l-0.029-0.284c-0.12-1.408-0.189-3.047-0.189-4.702 0-29.91 22.41-54.586 51.355-58.153l0.284-0.029h1352.709c1.599-0.157 3.456-0.246 5.333-0.246 29.788 0 54.321 22.502 57.527 51.436l0.023 0.261c0.204 1.813 0.32 3.915 0.32 6.044 0 29.42-22.223 53.649-50.798 56.816l-0.257 0.023zM1404.159 50.334h-1341.276c-1.813 0.204-3.915 0.32-6.044 0.32-29.42 0-53.649-22.223-56.816-50.798l-0.023-0.257c-0.157-1.599-0.246-3.456-0.246-5.333 0-29.788 22.502-54.321 51.436-57.527l0.261-0.023h1352.709c2.41-0.36 5.191-0.565 8.020-0.565 31.572 0 57.167 25.594 57.167 57.167 0 30.12-23.293 54.799-52.849 57.006l-0.19 0.011z" />
<glyph unicode="&#xe934;" glyph-name="064-list" horiz-adv-x="1506" d="M1449.691 497.737h-1024c-0.005 0-0.012 0-0.018 0-33.124 0-59.977-26.853-59.977-59.977 0-0.514 0.006-1.027 0.019-1.539l-0.002 0.076c1.545-30.716 26.264-55.181 56.945-56.317l0.107-0.003h1024c31.31 0.776 56.395 26.342 56.395 57.766 0 1.035-0.027 2.064-0.081 3.085l0.006-0.143c-0.992 29.856-23.928 54.057-53.143 57.031l-0.251 0.021zM1449.691 939.52h-1024c-0.441 0.012-0.96 0.019-1.481 0.019-31.809 0-57.689-25.381-58.495-56.995l-0.002-0.075c-0.027-0.666-0.043-1.448-0.043-2.234 0-31.56 24.985-57.284 56.255-58.471l0.108-0.003h1027.657c31.377 1.191 56.363 26.915 56.363 58.475 0 0.786-0.015 1.568-0.046 2.346l0.004-0.112c-1.139 30.787-25.604 55.506-56.179 57.046l-0.141 0.006zM1449.691 55.954h-1024c-32.721 0-59.246-26.525-59.246-59.246s26.525-59.246 59.246-59.246h1024c32.721 0 59.246 26.525 59.246 59.246s-26.525 59.246-59.246 59.246v0zM146.286 886.857c0-40.396-32.747-73.143-73.143-73.143s-73.143 32.747-73.143 73.143c0 40.396 32.747 73.143 73.143 73.143s73.143-32.747 73.143-73.143zM146.286 448c0-40.396-32.747-73.143-73.143-73.143s-73.143 32.747-73.143 73.143c0 40.396 32.747 73.143 73.143 73.143s73.143-32.747 73.143-73.143zM146.286 9.143c0-40.396-32.747-73.143-73.143-73.143s-73.143 32.747-73.143 73.143c0 40.396 32.747 73.143 73.143 73.143s73.143-32.747 73.143-73.143z" />
<glyph unicode="&#xe935;" glyph-name="071-print" horiz-adv-x="1111" d="M1003.62 762.537h-118.206v152.173c0 25.013-20.277 45.29-45.29 45.29v0h-571.556c-23.611-1.707-42.12-21.281-42.12-45.179 0-0.039 0-0.078 0-0.117v0.006-153.985h-119.112c-58.862-0.25-106.572-47.643-107.336-106.359l-0.001-0.072v-412.136c-0.002-0.269-0.004-0.588-0.004-0.907 0-59.373 48.003-107.533 107.316-107.788h119.136v-153.985c0-25.013 20.277-45.29 45.29-45.29v0h570.197c25.013 0 45.29 20.277 45.29 45.29v0 0 153.985h118.206c59.141 0.511 106.888 48.572 106.888 107.786 0 0.32-0.001 0.639-0.004 0.958v-0.049 412.136c0.001 0.136 0.001 0.296 0.001 0.457 0 59.53-48.259 107.789-107.789 107.789-0.319 0-0.637-0.001-0.955-0.004h0.049zM312.046 873.044h486.411v-110.507h-486.411zM312.046 22.956v327.444h486.411v-327.444zM1003.62 220.419h-118.206v129.981h38.496c18.997 5.67 32.609 22.984 32.609 43.478s-13.612 37.808-32.288 43.396l-0.321 0.082h-737.316c-3.798 1.15-8.162 1.812-12.681 1.812-25.013 0-45.29-20.277-45.29-45.29s20.277-45.29 45.29-45.29c4.519 0 8.883 0.662 13.002 1.894l-0.321-0.082h39.855v-129.981h-119.112c-11.318 0.243-20.4 9.475-20.4 20.829 0 0.32 0.007 0.639 0.022 0.955l-0.002-0.045v412.136c-0.003 0.14-0.005 0.306-0.005 0.472 0 11.439 9.024 20.771 20.341 21.266l0.045 0.002h896.283c11.407-0.736 20.38-10.168 20.38-21.697 0-0.015 0-0.030 0-0.045v0.002-412.136c0.003-0.14 0.005-0.306 0.005-0.472 0-11.439-9.024-20.771-20.341-21.266l-0.045-0.002z" />
<glyph unicode="&#xe936;" glyph-name="072-bookmark" horiz-adv-x="680" d="M640.056 960h-599.969c-22.139 0-40.087-17.948-40.087-40.087v0 0-943.826c0-0.001 0-0.002 0-0.002 0-22.139 17.948-40.087 40.087-40.087 0.157 0 0.313 0.001 0.469 0.003h-0.024c11.524 0.22 21.813 5.324 28.916 13.322l0.035 0.041 270.365 297.98 270.365-298.425c7.369-8.181 17.999-13.301 29.825-13.301 10.505 0 20.067 4.041 27.215 10.653l-0.027-0.024c7.851 7.389 12.78 17.804 12.917 29.372v944.296c0 22.139-17.948 40.087-40.087 40.087v0zM599.969 79.868l-230.278 254.33c-7.445 8.197-18.144 13.322-30.041 13.322-10.801 0-20.615-4.225-27.881-11.112l0.018 0.017v-2.227l-231.614-254.33v799.958h519.795z" />
<glyph unicode="&#xe937;" glyph-name="074-photo-camera" horiz-adv-x="1242" d="M1122.402 761.145h-244.468l-74.827 136.328c-20.227 36.815-58.368 61.571-102.372 62.524l-0.131 0.002h-153.754c-44.103-1.068-82.198-25.784-102.19-61.911l-0.313-0.616-79.952-136.328h-244.468c-66.359-0.58-119.929-54.508-119.929-120.949 0-0.182 0-0.363 0.001-0.545v0.028-582.214c-0.006-0.458-0.010-1-0.010-1.542 0-66.444 53.575-120.374 119.883-120.948h1002.529c66.359 0.58 119.929 54.508 119.929 120.949 0 0.182 0 0.363-0.001 0.545v-0.028 583.239c0.001 0.154 0.001 0.335 0.001 0.517 0 66.44-53.57 120.369-119.874 120.948h-0.055zM1144.953 57.465c0.015-0.312 0.023-0.678 0.023-1.046 0-12.668-9.992-23.003-22.524-23.553l-0.050-0.002h-1002.474c-12.858 0.561-23.069 11.121-23.069 24.067 0 0.188 0.002 0.375 0.006 0.562l-0.001-0.028v582.214c0 0.006 0 0.014 0 0.022 0 12.943 10.208 23.502 23.012 24.064l0.051 0.002h273.169c18.065 0.567 33.713 10.399 42.409 24.881l0.129 0.232 89.177 161.954c3.876 7.043 11.068 11.841 19.415 12.298l0.060 0.003h153.754c8.377-0.56 15.528-5.323 19.413-12.181l0.062-0.12 88.665-161.954c8.825-14.714 24.474-24.546 42.459-25.111l0.080-0.002h273.682c12.575-0.561 22.557-10.891 22.557-23.554 0-0.188-0.002-0.375-0.007-0.562l0.001 0.028zM621.165 542.815c-107.277 0-194.242-86.965-194.242-194.242s86.965-194.242 194.242-194.242c107.277 0 194.242 86.965 194.242 194.242v0 0c-0.291 107.16-87.082 193.952-194.214 194.242h-0.028zM621.165 251.195c-53.78 0-97.377 43.597-97.377 97.377s43.597 97.377 97.377 97.377c53.78 0 97.377-43.597 97.377-97.377v0c-0.289-53.663-43.714-97.088-97.35-97.377h-0.028z" />
<glyph unicode="&#xe938;" glyph-name="075-video-camera" horiz-adv-x="1542" d="M1516.704 797.91c-9.717 7.271-21.971 11.642-35.246 11.642-6.96 0-13.639-1.201-19.841-3.408l0.414 0.128-309.387-103.558v106.774c0 0.004 0 0.008 0 0.012 0 82.447-66.291 149.411-148.48 150.499l-0.103 0.001h-855.477c-82.216-0.728-148.584-67.545-148.584-149.864 0-0.228 0.001-0.456 0.002-0.684v0.035-722.975c-0.001-0.193-0.001-0.421-0.001-0.649 0-82.319 66.368-149.136 148.515-149.863h855.546c82.292 1.089 148.583 68.053 148.583 150.5 0 0.004 0 0.009 0 0.013v-0.001 107.417l309.387-104.201c5.071-1.437 10.894-2.263 16.91-2.263 26.835 0 49.832 16.433 59.476 39.785l0.156 0.427c0.463 2.9 0.728 6.243 0.728 9.648s-0.265 6.749-0.774 10.011l0.047-0.362v602.050c0.028 0.687 0.044 1.494 0.044 2.305 0 18.696-8.485 35.41-21.815 46.5l-0.098 0.079zM1421.508 230.593l-310.030 104.201c-5.573 1.872-11.99 2.952-18.66 2.952-33.073 0-59.944-26.555-60.455-59.506l-0.001-0.048v-192.965c0.019-0.384 0.029-0.834 0.029-1.286 0-15.63-12.671-28.302-28.302-28.302-0.010 0-0.021 0-0.031 0h-855.476c-15.71 0.356-28.309 13.176-28.309 28.938 0 0.229 0.003 0.457 0.008 0.684l-0.001-0.034v724.261c-0.005 0.2-0.008 0.435-0.008 0.671 0 15.891 12.528 28.856 28.246 29.558l0.063 0.002h855.477c15.781-0.704 28.309-13.669 28.309-29.56 0-0.236-0.003-0.471-0.008-0.706l0.001 0.035v-192.965c0-0.001 0-0.002 0-0.003 0-33.166 26.704-60.095 59.785-60.459h0.034c2.9-0.463 6.243-0.728 9.648-0.728s6.749 0.265 10.011 0.774l-0.362-0.047 310.030 109.347z" />
<glyph unicode="&#xe939;" glyph-name="076-move" d="M688.235 800.47l-147.837 147.837c-7.428 6.904-17.418 11.142-28.398 11.142s-20.97-4.237-28.424-11.165l0.026 0.024-149.507-147.837c-11.671-7.536-19.288-20.478-19.288-35.199 0-23.064 18.697-41.762 41.762-41.762 15.255 0 28.599 8.179 35.887 20.392l0.106 0.191 79.347 79.347v-292.333c-1.192-3.704-1.879-7.965-1.879-12.387 0-23.064 18.697-41.762 41.762-41.762s41.762 18.697 41.762 41.762c0 4.422-0.687 8.683-1.961 12.683l0.081-0.296v292.333l79.347-79.347c5.769-3.202 12.652-5.087 19.974-5.087 23.064 0 41.762 18.697 41.762 41.762 0 7.214-1.829 14.001-5.049 19.923l0.109-0.219zM688.235 151.909c-7.428 6.904-17.418 11.142-28.398 11.142s-20.97-4.237-28.424-11.165l0.026 0.024-79.347-79.347v292.333c1.060 3.502 1.67 7.526 1.67 11.693 0 23.064-18.697 41.762-41.762 41.762s-41.762-18.697-41.762-41.762c0-4.167 0.61-8.192 1.746-11.989l-0.076 0.296v-292.333l-79.347 79.347c-7.144 7.365-17.133 11.936-28.189 11.936s-21.045-4.571-28.18-11.926l-0.010-0.010c-6.789-7.401-10.949-17.309-10.949-28.189s4.16-20.788 10.977-28.22l-0.028 0.031 147.837-147.837c7.401-6.789 17.309-10.949 28.189-10.949s20.788 4.16 28.22 10.977l-0.031-0.028 147.837 147.837c6.789 7.401 10.949 17.309 10.949 28.189s-4.16 20.788-10.977 28.22l0.028-0.031zM1012.307 475.98v0l-147.837 147.837c-7.144 7.365-17.133 11.936-28.189 11.936s-21.045-4.571-28.18-11.926l-0.010-0.010c-6.789-7.401-10.949-17.309-10.949-28.189s4.16-20.788 10.977-28.22l-0.028 0.031 79.347-79.347h-292.333c-3.502 1.060-7.526 1.67-11.693 1.67-23.064 0-41.762-18.697-41.762-41.762s18.697-41.762 41.762-41.762c4.167 0 8.192 0.61 11.989 1.746l-0.296-0.076h292.333l-79.347-79.347c-6.789-7.401-10.949-17.309-10.949-28.189s4.16-20.788 10.977-28.22l-0.028 0.031c7.144-7.365 17.133-11.936 28.189-11.936s21.045 4.571 28.18 11.926l147.847 147.847c6.675 7.373 10.759 17.2 10.759 27.98s-4.085 20.607-10.791 28.016l0.032-0.036zM428.894 488.091h-292.333l79.347 79.347c3.008 5.624 4.775 12.301 4.775 19.392 0 23.064-18.697 41.762-41.762 41.762-7.090 0-13.768-1.767-19.617-4.885l0.225 0.109-147.837-147.419c-6.904-7.428-11.142-17.418-11.142-28.398s4.237-20.97 11.165-28.424l-0.024 0.026 147.837-147.837c7.226-13.078 20.934-21.787 36.675-21.787 23.064 0 41.762 18.697 41.762 41.762 0 15.85-8.83 29.638-21.839 36.712l-0.219 0.109-79.347 79.347h292.333c3.502-1.060 7.526-1.67 11.693-1.67 23.064 0 41.762 18.697 41.762 41.762s-18.697 41.762-41.762 41.762c-4.167 0-8.192-0.61-11.989-1.746l0.296 0.076z" />
<glyph unicode="&#xe93a;" glyph-name="084-image" d="M864.18 960h-704.36c-88.266 0-159.82-71.554-159.82-159.82v0-708.344c0-87.044 70.563-157.607 157.607-157.607h708.344c87.044 0 157.607 70.563 157.607 157.607v0 708.344c0 0 0 0 0 0.001 0 88.111-71.302 159.568-159.353 159.819h-0.024zM943.869 95.82c0.001-0.132 0.001-0.288 0.001-0.444 0-43.766-35.48-79.246-79.246-79.246-0.156 0-0.312 0-0.468 0.001h-704.336c-44.011 0-79.689 35.678-79.689 79.689v3.099l258.103 383.391 212.061-314.77c7.243-10.789 19.397-17.794 33.187-17.794 8.259 0 15.931 2.513 22.293 6.816l-0.141-0.090c4.453 2.92 8.148 6.614 10.98 10.925l0.088 0.142 140.341 208.962 186.826-277.582zM943.869 242.359l-153.622 227.998c-7.362 10.611-19.482 17.471-33.204 17.471s-25.842-6.86-33.116-17.338l-0.087-0.133-140.341-208.519-212.061 314.328c-7.131 10.882-19.269 17.97-33.063 17.97-8.324 0-16.046-2.581-22.407-6.987l0.131 0.086c-4.453-2.92-8.148-6.614-10.98-10.925l-0.088-0.142-224.899-333.807v557.821c0.25 43.91 35.779 79.439 79.665 79.689h703.941c0 0 0.001 0 0.001 0 44.1 0 79.879-35.624 80.13-79.665v-0.024z" />
<glyph unicode="&#xe93b;" glyph-name="086-vision" horiz-adv-x="1648" d="M1639.378 480.131c-162.562 288.144-466.68 479.525-815.498 479.525s-652.936-191.382-813.079-474.87l-2.418-4.655c-5.289-9.133-8.409-20.093-8.409-31.782s3.121-22.649 8.575-32.092l-0.165 0.31c161.996-288.941 466.317-481.009 815.498-481.009s653.501 192.067 813.078 476.318l2.42 4.691c5.289 9.133 8.409 20.093 8.409 31.782s-3.121 22.649-8.575 32.092l0.165-0.31zM824.229 65.222c-287.862 0.822-540.2 152.148-682.555 379.398l-1.974 3.379c143.733 231.272 396.418 382.954 684.529 382.954s540.796-151.682 682.554-379.546l1.976-3.408c-144.331-230.631-396.668-381.956-684.409-382.777h-0.12zM824.229 673.615c-0.623 0.006-1.359 0.010-2.095 0.010-124.604 0-225.615-101.011-225.615-225.615s101.011-225.615 225.615-225.615c124.6 0 225.61 101.006 225.615 225.605v0.001c0 0.003 0 0.006 0 0.010 0 123.867-99.82 224.42-223.407 225.605l-0.112 0.001zM824.229 351.607c-53.236 0-96.393 43.157-96.393 96.393s43.157 96.393 96.393 96.393c53.236 0 96.393-43.157 96.393-96.393v0c0-53.236-43.157-96.393-96.393-96.393v0z" />
<glyph unicode="&#xe93c;" glyph-name="087-vision" horiz-adv-x="1150" d="M1143.301 469.872c-113.261 201.251-325.494 334.963-568.957 334.963-51.363 0-101.336-5.951-149.267-17.202l4.406 0.872-86.493 149.126c-7.875 13.486-22.278 22.403-38.764 22.403-8.24 0-15.959-2.228-22.589-6.113l0.211 0.114c-13.515-7.99-22.436-22.488-22.436-39.070 0-8.308 2.24-16.093 6.148-22.784l-0.116 0.214 76.054-131.231c-143.787-57.247-259.8-158.808-333.826-287.574l-1.708-3.223c-3.768-6.417-5.994-14.133-5.994-22.369s2.226-15.952 6.108-22.58l-0.114 0.211c113.927-200.635 325.91-333.925 569.077-334.54h0.088c0.023 0 0.050 0 0.077 0 51.441 0 101.485 5.978 149.476 17.278l-4.404-0.874 86.493-149.126c7.928-13.414 22.316-22.27 38.773-22.27 24.791 0 44.887 20.097 44.887 44.887 0 8.334-2.271 16.138-6.229 22.826l0.114-0.208-76.054 130.734c143.733 57.318 259.625 159.077 333.33 288.051l1.707 3.243c3.726 6.345 5.927 13.976 5.927 22.12s-2.201 15.775-6.040 22.329l0.113-0.209zM575.13 180.567c-200.166 1.414-375.378 106.94-474.333 265.068l-1.38 2.365c67.357 107.16 166.404 189.030 283.877 233.323l3.937 1.302 73.569-126.757c-26.532-28.065-42.843-66.035-42.843-107.815 0-86.753 70.327-157.080 157.080-157.080 12.37 0 24.407 1.43 35.953 4.134l-1.063-0.21 61.639-105.383c-28.948-5.601-62.281-8.853-96.356-8.947h-0.079zM507.526 448c-0.002 0.16-0.002 0.349-0.002 0.539 0 7.29 1.276 14.282 3.616 20.765l-0.134-0.426 49.709-86.99c-30.636 6.859-53.188 33.82-53.188 66.049 0 0.022 0 0.045 0 0.067v-0.004zM588.551 512.621c30.857-6.686 53.636-33.755 53.636-66.145 0-4.917-0.525-9.712-1.522-14.331l0.081 0.445c0.105-1.043 0.165-2.254 0.165-3.48s-0.060-2.437-0.177-3.631l0.012 0.151zM762.532 214.369l-73.569 126.757c26.532 28.065 42.843 66.035 42.843 107.815 0 86.753-70.327 157.080-157.080 157.080-12.37 0-24.407-1.43-35.953-4.134l1.063 0.21-62.633 104.388c28.621 5.386 61.547 8.467 95.192 8.467 1.486 0 2.97-0.006 4.453-0.018l-0.227 0.001c200.842-0.573 376.913-106.091 476.324-264.582l1.377-2.354c-68.363-107.439-168.861-189.142-287.824-232.371l-3.966-1.26z" />
<glyph unicode="&#xe93d;" glyph-name="088-shopping-cart" horiz-adv-x="1248" d="M1240.885 805.699c-8.795 12.462-23.134 20.502-39.351 20.502-0.012 0-0.023 0-0.035 0h-920.951l-26.976 96.573c-5.392 21.151-24.007 36.641-46.334 37.225l-0.064 0.001h-159.157c-27.133-3.090-48.018-25.918-48.018-53.624 0-0.115 0-0.23 0.001-0.345v0.018c2.741-25.34 22.677-45.276 47.778-47.996l0.239-0.021h122.47l194.226-701.37c5.475-21.198 24.396-36.617 46.93-36.687h619.911c22.39 0.127 41.14 15.558 46.328 36.356l0.070 0.331 167.789 603.718c1.838 5.203 2.9 11.202 2.9 17.45 0 10.297-2.885 19.92-7.89 28.106l0.134-0.236zM994.866 221.404h-546.529l-139.195 501.749h823.84zM642.563-11.128c0-29.201-23.672-52.872-52.872-52.872s-52.872 23.672-52.872 52.872c0 29.201 23.672 52.872 52.872 52.872s52.872-23.672 52.872-52.872zM911.241-11.128c0-29.201-23.672-52.872-52.872-52.872s-52.872 23.672-52.872 52.872c0 29.201 23.672 52.872 52.872 52.872s52.872-23.672 52.872-52.872z" />
<glyph unicode="&#xe93e;" glyph-name="089-chat" horiz-adv-x="1359" d="M679.579 960c-368.154 0-679.579-193.917-679.579-451.509 0-134.295 85.671-258.171 236.753-343.842v-173.657c0-0.054 0-0.118 0-0.182 0-29.092 23.584-52.676 52.676-52.676 14.735 0 28.057 6.050 37.618 15.802l0.008 0.009 129.085 129.664c65.898-15.459 141.562-24.321 219.296-24.321 1.457 0 2.913 0.003 4.368 0.009l-0.225-0.001c367.575 0 679.001 193.339 679.001 451.509s-311.426 449.194-679.001 449.194zM679.579 162.912c-1.546-0.010-3.375-0.016-5.205-0.016-78.398 0-154.376 10.356-226.643 29.773l6.094-1.394c-4.026 1.066-8.647 1.679-13.412 1.679-14.843 0-28.298-5.943-38.115-15.58l-57.878-57.878v76.988c0 0.065 0 0.142 0 0.218 0 20.337-11.653 37.952-28.645 46.533l-0.298 0.137c-133.716 67.148-209.547 163.238-209.547 265.117 0 188.129 259.907 347.315 573.070 347.315s573.070-157.449 573.070-347.315-258.75-345.578-572.491-345.578zM751.358 508.491c0-39.642-32.136-71.778-71.778-71.778s-71.778 32.136-71.778 71.778c0 39.642 32.136 71.778 71.778 71.778s71.778-32.136 71.778-71.778zM439.353 508.491c0-39.642-32.136-71.778-71.778-71.778s-71.778 32.136-71.778 71.778c0 39.642 32.136 71.778 71.778 71.778s71.778-32.136 71.778-71.778zM1062.783 508.491c0-39.642-32.136-71.778-71.778-71.778s-71.778 32.136-71.778 71.778c0 39.642 32.136 71.778 71.778 71.778s71.778-32.136 71.778-71.778z" />
<glyph unicode="&#xe93f;" glyph-name="093-push-pin" d="M1012.489 623.979l-324.51 324.51c-7.445 9.126-18.691 14.907-31.287 14.907-22.25 0-40.287-18.037-40.287-40.287 0-12.596 5.781-23.842 14.834-31.23l0.073-0.058 12.396-12.396-273.598-273.598-199.665-44.272c-17.895-4.165-31.025-19.977-31.025-38.856 0-3.017 0.335-5.956 0.971-8.781l-0.050 0.266c1.826-7.857 5.715-14.624 11.064-19.919l0.003-0.003 174.43-176.201-314.328-313.885c-5.604-6.866-9-15.727-9-25.38 0-22.25 18.037-40.287 40.287-40.287 9.654 0 18.515 3.396 25.453 9.058l-0.073-0.058 313.885 314.328 174.872-174.872c7.204-7.174 17.14-11.608 28.112-11.608s20.908 4.435 28.114 11.61l-0.001-0.001c5.309 5.1 9.084 11.762 10.586 19.245l0.039 0.235 46.485 199.665 273.155 273.598 12.396-12.396c7.445-9.126 18.691-14.907 31.287-14.907 22.25 0 40.287 18.037 40.287 40.287 0 12.596-5.781 23.842-14.834 31.23l-0.073 0.058zM562.248 194.546l-303.26 303.703 118.648 27.448 212.061-212.061zM633.525 384.47l-186.383 185.055 253.233 253.233 185.055-186.826z" />
<glyph unicode="&#xe940;" glyph-name="094-dashboard" d="M512 960c-282.77 0-512-229.23-512-512s229.23-512 512-512c282.77 0 512 229.23 512 512v0c0 282.77-229.23 512-512 512v0zM512 15.798c-238.698 0-432.202 193.503-432.202 432.202s193.503 432.202 432.202 432.202c238.698 0 432.202-193.503 432.202-432.202v0c-0.263-238.593-193.609-431.94-432.177-432.202h-0.025zM204.8 487.668h-59.041c-1.289 0.147-2.783 0.231-4.296 0.231-22.163 0-40.13-17.967-40.13-40.13s17.967-40.13 40.13-40.13c1.513 0 3.007 0.084 4.477 0.247l-0.181-0.016h58.58c1.289-0.147 2.783-0.231 4.296-0.231 22.163 0 40.13 17.967 40.13 40.13s-17.967 40.13-40.13 40.13c-1.513 0-3.007-0.084-4.477-0.247l0.181 0.016zM880.548 487.668h-58.58c-1.289 0.147-2.783 0.231-4.296 0.231-22.163 0-40.13-17.967-40.13-40.13s17.967-40.13 40.13-40.13c1.513 0 3.007 0.084 4.477 0.247l-0.181-0.016h58.58c1.289-0.147 2.783-0.231 4.296-0.231 22.163 0 40.13 17.967 40.13 40.13s-17.967 40.13-40.13 40.13c-1.513 0-3.007-0.084-4.477-0.247l0.181 0.016zM715.877 800.865c-5.761 3.388-12.691 5.39-20.088 5.39-14.81 0-27.746-8.023-34.7-19.959l-0.103-0.191-29.059-50.739c-5.387-6.77-8.643-15.444-8.643-24.879 0-22.163 17.967-40.13 40.13-40.13 15.593 0 29.109 8.893 35.752 21.885l0.105 0.227c0.063 0.416 0.099 0.896 0.099 1.384s-0.036 0.968-0.106 1.437l0.006-0.053 29.059 50.739c3.769 6.001 6.004 13.297 6.004 21.115 0 14.114-7.286 26.526-18.303 33.68l-0.156 0.095zM628.699 649.571c-5.761 3.388-12.691 5.39-20.088 5.39-14.81 0-27.746-8.023-34.7-19.959l-0.103-0.191-56.735-98.249h-5.074c-0.412 0.007-0.897 0.011-1.384 0.011-49.166 0-89.023-39.857-89.023-89.023s39.857-89.023 89.023-89.023c49.163 0 89.017 39.851 89.023 89.012v0.001c-0.090 18.149-5.406 35.039-14.52 49.262l0.221-0.369 56.274 98.249c3.567 5.836 5.679 12.898 5.679 20.453 0 14.664-7.957 27.47-19.788 34.335l-0.19 0.102zM392.533 734.905l-29.521 50.739c-6.795 12.8-20.040 21.369-35.286 21.369-21.991 0-39.819-17.828-39.819-39.819 0-6.745 1.677-13.098 4.637-18.666l-0.104 0.215v-2.768l30.443-50.739c6.848-12.9 20.197-21.536 35.562-21.536 6.723 0 13.059 1.653 18.625 4.575l-0.22-0.105c12.9 6.848 21.536 20.197 21.536 35.562 0 6.723-1.653 13.059-4.575 18.625l0.105-0.22c-0.577 0.793-1.048 1.712-1.365 2.699l-0.019 0.069z" />
<glyph unicode="&#xe941;" glyph-name="096-telephone" d="M979.346 270.336l-111.064 79.004c-17.341 12.653-39.077 20.244-62.586 20.244-29.706 0-56.58-12.12-75.949-31.685l-64.892-64.892c-122.077 98.052-229.521 205.618-324.306 323.774l-3.16 4.074 65.264 64.883c19.411 19.408 31.416 46.222 31.416 75.84 0 23.382-7.483 45.016-20.184 62.639l0.217-0.317-79.386 111.064c-19.76 27.449-51.622 45.112-87.611 45.112-23.396 0-45.048-7.465-62.705-20.142l0.322 0.22c-4.931-3.676-9.289-7.43-13.371-11.462l0.012 0.012-102.286-102.667c-91.981-91.981-91.981-216.784 0-343.496 134.615-185.297 293.11-342.942 473.187-472.467l6.181-4.229c114.499-85.492 243.119-98.851 343.496 0l100.377 101.522c19.707 19.456 31.913 46.469 31.913 76.332s-12.206 56.876-31.901 76.321l-0.011 0.011c-3.896 3.565-8.129 6.95-12.579 10.043l-0.398 0.262zM936.218 163.852l-102.667-102.286c-70.989-71.371-157.245-51.524-237.776 8.015-179.656 129.698-332.495 282.538-458.153 456.324l-4.040 5.869c-59.539 80.531-79.004 166.786-8.015 237.394l103.43 102.667c4.896 4.857 11.639 7.859 19.083 7.859s14.187-3.002 19.085-7.861l-0.002 0.002c1.289-0.873 2.324-2.029 3.029-3.384l0.024-0.051 78.622-111.064c3.166-4.378 5.064-9.854 5.064-15.773 0-7.572-3.106-14.419-8.113-19.336l-0.004-0.004-86.256-86.637c-7.452-6.983-12.096-16.887-12.096-27.874 0-4.937 0.937-9.655 2.644-13.986l-0.090 0.259c27.48-76.332 330.52-381.662 408.379-408.379 4.146-1.681 8.954-2.657 13.99-2.657 10.853 0 20.648 4.53 27.597 11.802l0.014 0.015 86.637 86.637c4.921 5.011 11.768 8.117 19.34 8.117 5.919 0 11.395-1.898 15.853-5.118l-0.080 0.055 111.064-79.386c6.849-5.058 11.243-13.101 11.243-22.17 0-6.003-1.925-11.557-5.191-16.077l0.055 0.081z" />
<glyph unicode="&#xe942;" glyph-name="100-user" horiz-adv-x="744" d="M371.984 960c-162.352 0-293.965-131.612-293.965-293.965s131.612-293.965 293.965-293.965c162.352 0 293.965 131.612 293.965 293.965v0 0c-0.198 162.273-131.692 293.767-293.946 293.965h-0.019zM371.984 452.18c-117.959 0.198-213.507 95.869-213.507 213.855 0 118.109 95.746 213.856 213.856 213.856s213.856-95.746 213.856-213.855v0c-0.396-118.072-96.104-213.659-214.185-213.856h-0.019zM386.612 333.061h-29.605c-197.010-0.396-356.611-159.997-357.007-356.969v-0.037c0-22.121 17.933-40.054 40.054-40.054v0h663.859c22.121 0 40.054 17.933 40.054 40.054v0 0c-0.593 197.053-160.275 356.612-357.317 357.007h-0.038zM82.895 16.109c20.802 134.549 135.446 236.458 274.034 237.192h29.683c139.101-0.197 254.298-102.292 274.957-235.63l0.199-1.562z" />
<glyph unicode="&#xe943;" glyph-name="067-minus" horiz-adv-x="1467" d="M1404.159 504.809h-1341.276c-32.164 0-58.239-26.074-58.239-58.239s26.074-58.239 58.239-58.239v0h1341.276c28.706 3.318 50.785 27.486 50.785 56.809s-22.079 53.491-50.52 56.784l-0.266 0.025z" />
<glyph unicode="&#xe944;" glyph-name="004-star" horiz-adv-x="1076" d="M207.342-64l62.759 370.197-270.101 261.362 371.786 54.815 165.238 337.626 166.827-336.037 371.786-53.226-267.718-262.951 65.936-370.197-334.448 173.977zM170.799 512.745l184.304-178.743-42.898-252.624 227.202 119.957 227.202-115.19-44.487 249.446 183.51 179.538-254.213 35.749-114.396 229.586-112.807-230.38z" />
<glyph unicode="&#xe945;" glyph-name="005-star" horiz-adv-x="1076" d="M819.041 6.703l-279.634 150.144-279.634-150.144 52.431 312.205-227.202 220.847 312.205 46.87 139.817 283.606 140.611-282.811 312.999-44.487-225.614-218.464zM207.342-64l61.964 370.197-269.306 261.362 371.786 54.815 164.444 337.626 167.621-336.037 371.786-53.226-267.718-262.951 65.936-370.197-334.448 173.977zM170.799 512.745l184.304-178.743-42.898-252.624 226.408 119.957 227.997-115.19-44.487 249.446 183.51 179.538-254.213 35.749-114.396 229.586-112.807-230.38z" />
<glyph unicode="&#xe946;" horiz-adv-x="512" d="M499.81-51.566c-270.896 6.622-487.97 227.795-487.97 499.669 0 138.141 56.042 263.192 146.631 353.659l0.005 0.005c87.476 87.965 207.665 143.32 340.777 146.276l0.556 0.010z" />
<glyph unicode="&#xe947;" horiz-adv-x="512" d="M487.619-39.619v975.238c-258.822-13.092-463.721-226.134-463.721-487.033 0-134.918 54.794-257.038 143.343-345.321l0.012-0.012c82.395-83.064 194.587-136.464 319.199-142.825l1.167-0.047zM512-64v0c-282.77 0-512 229.23-512 512v0c0 282.77 229.23 512 512 512v0z" />
<glyph unicode="&#xe948;" horiz-adv-x="512" d="M137.265 457.996h266.484v-48.762h-266.484v48.762z" />
<glyph unicode="&#xe949;" horiz-adv-x="512" d="M92.308 441.64l132.367 139.583 35.382-33.553-132.367-139.583-35.382 33.553z" />
<glyph unicode="&#xe94a;" horiz-adv-x="512" d="M92.959 426.735l34.48 34.48 132.403-132.403-34.48-34.48-132.403 132.403z" />
<glyph unicode="&#xe94b;" d="M1024 448c0-282.77-229.23-512-512-512s-512 229.23-512 512c0 282.77 229.23 512 512 512s512-229.23 512-512z" />
<glyph unicode="&#xe94c;" d="M260.096 448.819h636.928v-40.96h-636.928v40.96z" />
<glyph unicode="&#xe94d;" d="M248.019 444.729l231.7 173.712 24.57-32.772-231.7-173.712-24.57 32.772z" />
<glyph unicode="&#xe94e;" d="M247.972 411.933l24.582 32.764 231.639-173.793-24.582-32.764-231.639 173.793z" />
<glyph unicode="&#xe94f;" d="M1024 448c0-282.77-229.23-512-512-512s-512 229.23-512 512c0 282.77 229.23 512 512 512s512-229.23 512-512z" />
<glyph unicode="&#xe950;" d="M142.131 440.218h625.869v-40.96h-625.869v40.96z" />
<glyph unicode="&#xe951;" d="M528.466 573.992l24.576 32.768 227.737-170.804-24.576-32.768-227.737 170.804z" />
<glyph unicode="&#xe952;" d="M527.933 265.763l227.856 170.645 24.553-32.785-227.856-170.645-24.553 32.785z" />
<glyph unicode="&#xe953;" glyph-name="016-toparrow" d="M512-64c-282.77 0-512 229.23-512 512s229.23 512 512 512c282.77 0 512-229.23 512-512v0c0-282.77-229.23-512-512-512v0zM512 925.867c-263.918 0-477.867-213.948-477.867-477.867s213.948-477.867 477.867-477.867c263.918 0 477.867 213.948 477.867 477.867v0c0 263.918-213.948 477.867-477.867 477.867v0zM468.651 661.333h68.267v-471.381h-68.267v471.381zM463.973 684.737l46.974 49.535 246.933-234.167-46.974-49.535-246.933 234.167zM262.623 499.445l234.118 234.118 48.272-48.272-234.118-234.118-48.272 48.272z" />
<glyph unicode="&#xe954;" d="M1024 448c0-282.77-229.23-512-512-512s-512 229.23-512 512c0 282.77 229.23 512 512 512s512-229.23 512-512z" />
<glyph unicode="&#xe955;" d="M260.096 448.819h636.928v-40.96h-636.928v40.96z" />
<glyph unicode="&#xe956;" d="M247.914 444.909l231.791 173.591 24.553-32.785-231.791-173.591-24.553 32.785z" />
<glyph unicode="&#xe957;" d="M247.972 411.628l24.576 32.768 231.67-173.752-24.576-32.768-231.67 173.752z" />
<glyph unicode="&#xe958;" d="M1024 448c0-282.77-229.23-512-512-512s-512 229.23-512 512c0 282.77 229.23 512 512 512s512-229.23 512-512z" />
<glyph unicode="&#xe959;" d="M142.131 440.218h625.869v-40.96h-625.869v40.96z" />
<glyph unicode="&#xe95a;" d="M528.466 573.992l24.576 32.768 227.737-170.804-24.576-32.768-227.737 170.804z" />
<glyph unicode="&#xe95b;" d="M527.933 265.763l227.856 170.645 24.553-32.785-227.856-170.645-24.553 32.785z" />
<glyph unicode="&#xe95c;" d="M1024 448c0-282.77-229.23-512-512-512s-512 229.23-512 512c0 282.77 229.23 512 512 512s512-229.23 512-512z" />
<glyph unicode="&#xe95d;" d="M260.096 448.819h636.928v-40.96h-636.928v40.96z" />
<glyph unicode="&#xe95e;" d="M247.914 444.909l231.791 173.591 24.553-32.785-231.791-173.591-24.553 32.785z" />
<glyph unicode="&#xe95f;" d="M247.972 411.628l24.576 32.768 231.67-173.752-24.576-32.768-231.67 173.752z" />
<glyph unicode="&#xe960;" d="M1024 448c0-282.77-229.23-512-512-512s-512 229.23-512 512c0 282.77 229.23 512 512 512s512-229.23 512-512z" />
<glyph unicode="&#xe961;" d="M142.131 440.218h625.869v-40.96h-625.869v40.96z" />
<glyph unicode="&#xe962;" d="M528.466 573.992l24.576 32.768 227.737-170.804-24.576-32.768-227.737 170.804z" />
<glyph unicode="&#xe963;" d="M527.933 265.763l227.856 170.645 24.553-32.785-227.856-170.645-24.553 32.785z" />
</font>
</defs>
</svg>
