<svg xmlns="http://www.w3.org/2000/svg" xmlns:xlink="http://www.w3.org/1999/xlink" viewBox="0 0 549.74 347.83"><defs><style>.cls-1{fill:none;}.cls-2{isolation:isolate;}.cls-3{fill:#be471f;}.cls-4{fill:#001b17;}.cls-5{fill:#f6c963;}.cls-6{opacity:0.5;mix-blend-mode:multiply;}.cls-7{clip-path:url(#clip-path);}.cls-8{fill:#cb8c41;}.cls-9{clip-path:url(#clip-path-2);}.cls-10{clip-path:url(#clip-path-3);}.cls-11{clip-path:url(#clip-path-4);}.cls-12{fill:#c53e71;}.cls-13{clip-path:url(#clip-path-5);}.cls-14{fill:#7f7f7e;}.cls-15{clip-path:url(#clip-path-6);}.cls-16{fill:#03231d;}.cls-17{fill:#d5bd8b;}.cls-18{clip-path:url(#clip-path-7);}.cls-19{clip-path:url(#clip-path-8);}.cls-20{fill:#e0a93a;}.cls-21{fill:#210f07;}.cls-22{fill:#efe3d0;}.cls-23{fill:#f7f0ea;}.cls-24{fill:#ed7332;}.cls-25{clip-path:url(#clip-path-9);}.cls-26{clip-path:url(#clip-path-10);}.cls-27{fill:#f9d58d;}.cls-28{fill:#93afc5;}.cls-29{fill:#271e0d;}.cls-30{clip-path:url(#clip-path-11);}.cls-31{clip-path:url(#clip-path-12);}.cls-32{fill:#e5ba5d;}.cls-33{fill:#443517;}.cls-34{fill:#c1833d;}.cls-35{fill:#af6428;}.cls-36{fill:#a96a2b;}.cls-37{fill:#834d23;}.cls-38{fill:#78aa88;}.cls-39{fill:#48443f;}.cls-40{fill:#c84a50;}.cls-41{fill:#b0504d;}.cls-42{fill:#fff;}.cls-43{fill:#e38b8b;}.cls-44{fill:#211e1f;}.cls-45{fill:#bf5d3d;}.cls-46{fill:#e57d4d;}.cls-47{fill:#ea9757;}.cls-48{fill:#f7cc8c;}.cls-49{fill:#3e3e3e;}.cls-50{fill:#ede1d8;}.cls-51{fill:#1c1d1b;}.cls-52{fill:#f2e5d2;}.cls-53{fill:#2d2110;}.cls-54{fill:#dccdc4;}.cls-55{fill:#302c2a;}.cls-56{fill:#e6cee3;}.cls-57{clip-path:url(#clip-path-13);}.cls-58{fill:#d13419;}.cls-59{clip-path:url(#clip-path-14);}.cls-60{clip-path:url(#clip-path-15);}.cls-61{clip-path:url(#clip-path-16);}.cls-62{clip-path:url(#clip-path-17);}</style><clipPath id="clip-path"><rect class="cls-1" y="240.99" width="532.4" height="72.45"/></clipPath><clipPath id="clip-path-2"><rect class="cls-1" x="95.57" y="249.25" width="15.83" height="4.14"/></clipPath><clipPath id="clip-path-3"><rect class="cls-1" x="126.35" y="249.44" width="70.92" height="4.47"/></clipPath><clipPath id="clip-path-4"><rect class="cls-1" y="274.71" width="532.4" height="38.72"/></clipPath><clipPath id="clip-path-5"><rect class="cls-1" x="370.86" y="209.28" width="32.79" height="11.69"/></clipPath><clipPath id="clip-path-6"><rect class="cls-1" x="9.91" y="107.6" width="522.49" height="142.34"/></clipPath><clipPath id="clip-path-7"><rect class="cls-1" x="51.1" y="265.89" width="82.65" height="59.8"/></clipPath><clipPath id="clip-path-8"><rect class="cls-1" x="378.17" y="265.89" width="82.65" height="59.8"/></clipPath><clipPath id="clip-path-9"><rect class="cls-1" x="13.5" y="100.62" width="476.75" height="21.92"/></clipPath><clipPath id="clip-path-10"><rect class="cls-1" x="33.28" y="122.53" width="459.55" height="25.46"/></clipPath><clipPath id="clip-path-11"><rect class="cls-1" x="130.36" y="106.94" width="31.45" height="15.92"/></clipPath><clipPath id="clip-path-12"><rect class="cls-1" x="318.32" y="106.94" width="31.45" height="15.92"/></clipPath><clipPath id="clip-path-13"><rect class="cls-1" x="530.07" y="259.03" width="7.28" height="22.4"/></clipPath><clipPath id="clip-path-14"><rect class="cls-1" x="530.07" y="239.75" width="5.72" height="11.1"/></clipPath><clipPath id="clip-path-15"><rect class="cls-1" x="507.02" y="226.32" width="7.78" height="19.83"/></clipPath><clipPath id="clip-path-16"><rect class="cls-1" x="508.42" y="265" width="8.05" height="19.8"/></clipPath><clipPath id="clip-path-17"><rect class="cls-1" x="476.92" y="291.13" width="72.82" height="25.07"/></clipPath></defs><g class="cls-2"><g id="圖層_2" data-name="圖層 2"><g id="圖層_1-2" data-name="圖層 1"><path class="cls-3" d="M106.2,98S88,66.09,51.9,66.6c0,0-8.64-1.36-6.1,3.89,0,0,1.53,3.73,13.22,6.53,0,0,18.47,6.17,13.39,25.84,0,0,22.51-4.55,33.79-4.86"/><rect class="cls-4" x="324.85" y="125.58" width="9.19" height="55.98"/><rect class="cls-4" x="418.46" y="125.58" width="4.6" height="55.98"/><rect class="cls-4" x="445.7" y="125.58" width="9.19" height="55.98" transform="translate(-25.46 152.17) rotate(-18.66)"/><rect class="cls-4" x="266.2" y="125.93" width="4.6" height="55.98"/><path class="cls-4" d="M467.29,127.8l-338.9-5.27L112,189.29l380.8,4.65L512,187.35Zm18.93,49h-8.81l-247.76-3.08,4.07-34.06a5.08,5.08,0,0,1,4.58-4.37h4.4l214.37,3,6.27-.17c3.05.42,4.15,1.94,4.15,1.94l2.8,4.33,18.81,27.79c3.73,5.93-2.88,4.6-2.88,4.6"/><path class="cls-4" d="M394,183l-5.16-24.19a20.17,20.17,0,0,0-9.37-13.26,15.44,15.44,0,0,0-10.05-2.2L365.57,183Z"/><polygon class="cls-4" points="11.75 312.46 534.99 316.2 460.82 232.65 11.75 242.98 11.75 312.46"/><path class="cls-5" d="M532.39,240.62c0-1,0-2,0-3-1-22.14-16.26-49.28-16.26-49.28l-28.15-43c8.52-3.7,3.33-9.63,3.33-9.63l-10.37-7c-8-8.34-24.83-10.56-24.83-10.56-3.89-1.11-20-3.15-20-3.15-92.62-9.63-268.24-8.15-329.37-5.19-.62,0-1.24,0-1.85,0-55.53-.41-70,13.36-70,13.36-15.56,15.56-23,63-23,63C2.21,221,.11,287.18.11,287.18c-1.24,14.57,8.4,15.06,8.4,15.06H24.44c11.11.62,11.48-9,11.48-9l5.93-13.34c5.56-8.15,15.56-5.56,15.56-5.56l66.32,1.12c17.79-1.49,19.64,7,19.64,7l7.78,14.44C156.71,311,162.64,311,162.64,311L355.3,309.9c20.74,1.11,18.77-10.12,18.77-10.12.49-3.71,4.94-13.22,4.94-13.22,20-33.71,50.76-24.08,50.76-24.08,30,1.48,38.16,33.34,38.16,33.34,5.19,20.75,18.15,17.42,18.15,17.42l46.32-1.86s-.38-48.16,0-70.76m-337.15-66a2.11,2.11,0,0,1-2.1,2.1H130.49a2.11,2.11,0,0,1-2.1-2.1l5.84-41.5a2.11,2.11,0,0,1,2.1-2.1h56.81a2.11,2.11,0,0,1,2.1,2.1Zm81,0a2.11,2.11,0,0,1-2.1,2.1H217a2.11,2.11,0,0,1-2.1-2.1l.37-41.5a2.11,2.11,0,0,1,2.1-2.1h56.81a2.11,2.11,0,0,1,2.1,2.1Zm79.28,0a2.11,2.11,0,0,1-2.1,2.1H296.26a2.11,2.11,0,0,1-2.1-2.1l.37-41.5a2.11,2.11,0,0,1,2.1-2.1h56.81a2.11,2.11,0,0,1,2.1,2.1Zm139.68,6.89-121.4-4.79a2.11,2.11,0,0,1-2.1-2.1l.37-41.5a2.11,2.11,0,0,1,2.1-2.1l93.12,1.36a2.11,2.11,0,0,1,2.1,2.1l27.91,44.93a2.11,2.11,0,0,1-2.1,2.1"/><g class="cls-6"><g class="cls-7"><path class="cls-8" d="M532.25,256.47c-28,9-55.33,4.48-55.33,4.48L92.38,258.63c-51,4-76.49-6.3-89.24-17.64-2.35,24.83-3,46.19-3,46.19-1.24,14.57,8.4,15.06,8.4,15.06H24.44c11.11.62,11.48-9,11.48-9l5.93-13.34c5.56-8.15,15.56-5.56,15.56-5.56l66.32,1.12c17.79-1.49,19.64,7,19.64,7l7.78,14.44C156.71,311,162.64,311,162.64,311L355.3,309.9c20.74,1.11,18.77-10.12,18.77-10.12.49-3.71,4.94-13.22,4.94-13.22,20-33.71,50.76-24.08,50.76-24.08,30,1.48,38.16,33.34,38.16,33.34,5.19,20.75,18.15,17.42,18.15,17.42l46.32-1.86s-.24-31-.15-54.91"/></g></g><g class="cls-6"><g class="cls-9"><path class="cls-8" d="M109.37,253.39h0l-11.77-.07a2,2,0,0,1,0-4.07h0l11.77.07a2,2,0,0,1,0,4.07"/></g></g><g class="cls-6"><g class="cls-10"><path class="cls-8" d="M195.24,253.91h0l-66.85-.4a2,2,0,1,1,0-4.07h0l66.85.4a2,2,0,1,1,0,4.07"/></g></g><g class="cls-6"><g class="cls-11"><path class="cls-12" d="M467.93,295.82c5.19,20.75,18.15,17.42,18.15,17.42l46.32-1.86s-.08-10.3-.13-23.6L465,288a48,48,0,0,1,3,7.79"/><path class="cls-8" d="M374.07,299.78c.36-2.71,2.82-8.49,4.12-11.43L214.88,289c-24.84,1.5-46.91,2.38-66.54,2.75l2.81,5.22C156.71,311,162.64,311,162.64,311L355.3,309.9c20.74,1.11,18.77-10.12,18.77-10.12"/><path class="cls-12" d="M.67,274.71c-.41,7.68-.56,12.47-.56,12.47-1.23,14.57,8.4,15.06,8.4,15.06H24.44c11.11.62,11.48-9,11.48-9L39,286.36C19,283,7.41,278.72.67,274.71"/></g></g><g class="cls-6"><g class="cls-13"><path class="cls-14" d="M403.65,215.33c0,4-7.34,5.64-16.4,5.64s-16.39-1.6-16.39-5.64,7.34-6.05,16.39-6.05,16.4,2,16.4,6.05"/></g></g><g class="cls-6"><g class="cls-15"><path class="cls-14" d="M516.09,188.38l-28.15-43c8.52-3.7,3.33-9.63,3.33-9.63l-10.37-7c-8-8.34-24.83-10.56-24.83-10.56-3.89-1.11-20-3.15-20-3.15-92.62-9.63-268.24-8.15-329.37-5.19-.62,0-1.24,0-1.85,0-55.53-.41-70,13.36-70,13.36-15.56,15.56-23,63-23,63-.68,2.47-1.32,5.09-1.93,7.83l421.74,0s57.47-6.88,75.85,18.8c0,0,8.71-4.05,12.44,13.19,0,0,1.43,17.35,7.29,21.48l5.06,2.53c0-3.4.06-6.55.1-9.32,0-1,0-2,0-3-1-22.14-16.26-49.28-16.26-49.28M195.24,174.67a2.11,2.11,0,0,1-2.1,2.1H130.49a2.11,2.11,0,0,1-2.1-2.1l5.84-41.5a2.11,2.11,0,0,1,2.1-2.1h56.81a2.11,2.11,0,0,1,2.1,2.1Zm81,0a2.11,2.11,0,0,1-2.1,2.1H217a2.11,2.11,0,0,1-2.1-2.1l.37-41.5a2.11,2.11,0,0,1,2.1-2.1h56.81a2.11,2.11,0,0,1,2.1,2.1Zm79.28,0a2.11,2.11,0,0,1-2.1,2.1H296.26a2.11,2.11,0,0,1-2.1-2.1l.37-41.5a2.11,2.11,0,0,1,2.1-2.1h56.81a2.11,2.11,0,0,1,2.1,2.1Zm139.68,6.89-121.4-4.79a2.11,2.11,0,0,1-2.1-2.1l.37-41.5a2.11,2.11,0,0,1,2.1-2.1l93.12,1.36a2.11,2.11,0,0,1,2.1,2.1l27.91,44.93a2.11,2.11,0,0,1-2.1,2.1"/></g></g><path class="cls-16" d="M133.75,306.86a41.33,41.33,0,1,1-41.32-41,41.15,41.15,0,0,1,41.32,41"/><path class="cls-4" d="M123.23,306.86a30.81,30.81,0,1,1-30.8-30.54,30.67,30.67,0,0,1,30.8,30.54"/><path class="cls-16" d="M118.43,306.86a26,26,0,1,1-26-25.78,25.89,25.89,0,0,1,26,25.78"/><path class="cls-17" d="M115.7,306.86a23.28,23.28,0,1,1-23.27-23.07,23.17,23.17,0,0,1,23.27,23.07"/><path class="cls-16" d="M105.4,306.86a13,13,0,1,1-13-12.86,12.92,12.92,0,0,1,13,12.86"/><path class="cls-17" d="M102.34,306.86A9.92,9.92,0,1,1,92.43,297a9.87,9.87,0,0,1,9.91,9.83"/><path class="cls-16" d="M92.43,326.31a19.64,19.64,0,0,1-3.76-.36l.23-1.2a18.85,18.85,0,0,0,3.53.33v1.23Zm3.79-.37-.23-1.2a18.44,18.44,0,0,0,3.42-1l.45,1.14a19.05,19.05,0,0,1-3.64,1.08M85,324.87a19,19,0,0,1-3.37-1.76l.65-1a18.75,18.75,0,0,0,3.17,1.66Zm18.2-1.78-.65-1a18.7,18.7,0,0,0,2.79-2.25l.83.88a20.12,20.12,0,0,1-3,2.4m-24.55-2.37a19.17,19.17,0,0,1-2.47-2.93l1-.7a18.39,18.39,0,0,0,2.31,2.75Zm30-3-1-.7a18.67,18.67,0,0,0,1.73-3.16l1.11.48a19.49,19.49,0,0,1-1.85,3.38m-34.3-3.34a18.9,18.9,0,0,1-1.14-3.68l1.17-.25a17.18,17.18,0,0,0,1.08,3.44Zm37.28-3.72-1.17-.25a18.67,18.67,0,0,0,.35-3.59l1.21-.08v.08a19,19,0,0,1-.39,3.84m-38.81-3.8v0a19.42,19.42,0,0,1,.37-3.8l1.18.25a18.34,18.34,0,0,0-.35,3.55Zm37.62-3.71a18.07,18.07,0,0,0-1.08-3.44l1.1-.49a19,19,0,0,1,1.16,3.68Zm-35-3.33-1.11-.48A19,19,0,0,1,76.16,296l1,.69a18,18,0,0,0-1.72,3.17m32.19-3.26a17.89,17.89,0,0,0-2.32-2.74l.83-.89a19.82,19.82,0,0,1,2.48,2.93Zm-28.17-2.66-.84-.88a20.12,20.12,0,0,1,3-2.4l.65,1a18.81,18.81,0,0,0-2.78,2.26m23.05-2.32A18.36,18.36,0,0,0,99.34,290l.45-1.14a19,19,0,0,1,3.37,1.76ZM85.4,290,85,288.88a19.3,19.3,0,0,1,3.64-1.09l.23,1.2a18.44,18.44,0,0,0-3.42,1m10.52-1a18.58,18.58,0,0,0-3.49-.33l-.05-.87,0-.35h0a20.06,20.06,0,0,1,3.73.34Z"/><g class="cls-6"><g class="cls-18"><path class="cls-14" d="M133.75,306.86a41.33,41.33,0,0,0-82.65,0,40.57,40.57,0,0,0,4.63,18.84h73.39a40.57,40.57,0,0,0,4.63-18.84"/></g></g><path class="cls-16" d="M460.82,306.86a41.33,41.33,0,1,1-41.33-41,41.15,41.15,0,0,1,41.33,41"/><path class="cls-4" d="M450.3,306.86a30.81,30.81,0,1,1-30.81-30.54,30.67,30.67,0,0,1,30.81,30.54"/><path class="cls-16" d="M445.49,306.86a26,26,0,1,1-26-25.78,25.89,25.89,0,0,1,26,25.78"/><path class="cls-17" d="M442.76,306.86a23.27,23.27,0,1,1-23.27-23.07,23.17,23.17,0,0,1,23.27,23.07"/><path class="cls-16" d="M432.47,306.86a13,13,0,1,1-13-12.86,12.92,12.92,0,0,1,13,12.86"/><path class="cls-17" d="M429.41,306.86a9.92,9.92,0,1,1-9.92-9.83,9.87,9.87,0,0,1,9.92,9.83"/><path class="cls-16" d="M419.5,326.31a19.49,19.49,0,0,1-3.76-.36l.22-1.2a18.93,18.93,0,0,0,3.53.33l0,1.13v.1Zm3.79-.37-.23-1.2a18.44,18.44,0,0,0,3.42-1l.45,1.14a19.27,19.27,0,0,1-3.64,1.08m-11.19-1.07a19,19,0,0,1-3.38-1.76l.65-1a19.13,19.13,0,0,0,3.17,1.66Zm18.2-1.78-.66-1a17.74,17.74,0,0,0,2.79-2.25l.84.88a20.12,20.12,0,0,1-3,2.4m-24.56-2.37a19.69,19.69,0,0,1-2.46-2.93l1-.7a18.46,18.46,0,0,0,2.32,2.75Zm30-3-1-.7a18.67,18.67,0,0,0,1.73-3.16l1.1.48a20.13,20.13,0,0,1-1.84,3.38m-34.3-3.34a18.93,18.93,0,0,1-1.15-3.68l1.18-.25a17.82,17.82,0,0,0,1.07,3.44Zm37.28-3.72-1.18-.25a17.92,17.92,0,0,0,.36-3.59l1.2-.08v.08a19.76,19.76,0,0,1-.38,3.84m-38.82-3.8v0a20.22,20.22,0,0,1,.37-3.8l1.18.25a18.34,18.34,0,0,0-.35,3.55Zm37.63-3.71a18.81,18.81,0,0,0-1.08-3.44l1.1-.49a18.93,18.93,0,0,1,1.15,3.68Zm-35-3.33-1.11-.48a19.75,19.75,0,0,1,1.84-3.38l1,.69a18.71,18.71,0,0,0-1.72,3.17m32.2-3.26a17.89,17.89,0,0,0-2.32-2.74l.83-.89a19.17,19.17,0,0,1,2.47,2.93Zm-28.18-2.66-.83-.88a19.54,19.54,0,0,1,3-2.4l.66,1a18.39,18.39,0,0,0-2.79,2.26m23.06-2.32a18.36,18.36,0,0,0-3.17-1.65l.44-1.14a19,19,0,0,1,3.38,1.76ZM412.47,290l-.45-1.13a19.08,19.08,0,0,1,3.64-1.09l.23,1.2a18.44,18.44,0,0,0-3.42,1M423,289a18.43,18.43,0,0,0-3.49-.33l0-.87,0-.35h0a20.14,20.14,0,0,1,3.73.34Z"/><g class="cls-6"><g class="cls-19"><path class="cls-14" d="M460.82,306.86a41.33,41.33,0,0,0-82.65,0,40.45,40.45,0,0,0,4.63,18.84h73.39a40.57,40.57,0,0,0,4.63-18.84"/></g></g><path class="cls-20" d="M106.2,231.42H89a2.89,2.89,0,0,1-2.87-2.88v-17.2A2.88,2.88,0,0,1,89,208.47h17.2a2.89,2.89,0,0,1,2.88,2.87v17.2a2.89,2.89,0,0,1-2.88,2.88"/><path class="cls-8" d="M92,224.58H89.35a.43.43,0,0,1-.44-.44v-6.71a.44.44,0,0,1,.44-.44H92a.44.44,0,0,1,.44.44v6.71a.44.44,0,0,1-.44.44"/><rect class="cls-4" x="42.82" y="199.02" width="37.61" height="3.15"/><rect class="cls-4" x="42.82" y="203.47" width="37.61" height="3.15"/><rect class="cls-4" x="42.82" y="207.91" width="37.61" height="3.15"/><rect class="cls-4" x="42.82" y="212.36" width="37.61" height="3.15"/><rect class="cls-4" x="42.82" y="216.8" width="37.61" height="3.15"/><rect class="cls-4" x="42.82" y="221.25" width="37.61" height="3.15"/><rect class="cls-4" x="42.82" y="225.7" width="37.61" height="3.15"/><rect class="cls-4" x="42.82" y="230.14" width="37.61" height="3.15"/><rect class="cls-4" x="42.82" y="234.59" width="37.61" height="3.15"/><path class="cls-21" d="M481.19,313.25l-22.75-47.7a14.17,14.17,0,0,0-10.54-7.64H367.27V191.38h.51v66h80.14a14.59,14.59,0,0,1,11,7.92L481.65,313Z"/><path class="cls-22" d="M193.14,177H130.49a2.36,2.36,0,0,1-2.36-2.35L134,133.14a2.35,2.35,0,0,1,2.35-2.32h56.81a2.35,2.35,0,0,1,2.35,2.35v41.5a2.35,2.35,0,0,1-2.35,2.35m-56.81-45.69a1.85,1.85,0,0,0-1.85,1.84l-5.84,41.54a1.84,1.84,0,0,0,1.85,1.8h62.65a1.84,1.84,0,0,0,1.85-1.84v-41.5a1.85,1.85,0,0,0-1.85-1.84Z"/><path class="cls-22" d="M274.16,177H217a2.36,2.36,0,0,1-2.36-2.35l.37-41.5a2.36,2.36,0,0,1,2.36-2.35h56.81a2.36,2.36,0,0,1,2.35,2.35v41.5a2.35,2.35,0,0,1-2.35,2.35m-56.81-45.69a1.85,1.85,0,0,0-1.85,1.84l-.37,41.5a1.84,1.84,0,0,0,1.85,1.84h57.18a1.84,1.84,0,0,0,1.84-1.84v-41.5a1.85,1.85,0,0,0-1.84-1.84Z"/><path class="cls-22" d="M353.44,177H296.26a2.35,2.35,0,0,1-2.35-2.35l.37-41.5a2.35,2.35,0,0,1,2.35-2.35h56.81a2.36,2.36,0,0,1,2.36,2.35v41.5a2.36,2.36,0,0,1-2.36,2.35m-56.81-45.69a1.85,1.85,0,0,0-1.84,1.84l-.37,41.5a1.84,1.84,0,0,0,1.84,1.84h57.18a1.84,1.84,0,0,0,1.85-1.84v-41.5a1.85,1.85,0,0,0-1.85-1.84Z"/><path class="cls-22" d="M495.22,181.81h0L373.81,177a2.35,2.35,0,0,1-2.34-2.35l.37-41.5a2.35,2.35,0,0,1,2.35-2.35l93.12,1.36a2.35,2.35,0,0,1,2.35,2.28l27.92,44.93v.07a2.36,2.36,0,0,1-2.36,2.35m-121-50.48a1.84,1.84,0,0,0-1.84,1.84l-.37,41.5a1.84,1.84,0,0,0,1.84,1.84l121.41,4.79a1.85,1.85,0,0,0,1.84-1.77L469.16,134.6v-.07a1.85,1.85,0,0,0-1.85-1.84Z"/><path class="cls-23" d="M532.35,237.66c-1-21.59-15.5-47.92-16.23-49.23l-.06-.1L489,147a1.77,1.77,0,0,1,.6-2.49c5.32-3.22,2.63-7.49,1.85-8.54a1.67,1.67,0,0,0-.41-.39l-10-6.8a1.64,1.64,0,0,1-.25-.21c-7.65-7.87-23.23-10.23-24.61-10.43l-.2,0C451.91,117,436.06,115,436.06,115c-92.62-9.63-268.24-8.15-329.37-5.19-.62,0-1.24,0-1.85,0-53.67-.4-69,12.45-70,13.32l-.09.08c-15.14,15.22-22.55,60.6-22.91,62.86,0,.06,0,.11,0,.17v0a1.76,1.76,0,0,0,1.69,2.22L430,191.89h.12c1.82-.12,48-2.91,65.76,8.34a46.6,46.6,0,0,1,10.92,9.4,1.81,1.81,0,0,0,1.71.61c3.08-.52,12.3.32,15.77,27.29a26.56,26.56,0,0,0,4.92,11,1.76,1.76,0,0,0,3.15-1.07c0-2.47.05-4.77.08-6.86,0-1,0-2,0-3m-337.11-63a2.11,2.11,0,0,1-2.1,2.1H130.49a2.11,2.11,0,0,1-2.1-2.1l5.84-41.5a2.11,2.11,0,0,1,2.1-2.1h56.81a2.11,2.11,0,0,1,2.1,2.1Zm81,0a2.11,2.11,0,0,1-2.1,2.1H217a2.11,2.11,0,0,1-2.1-2.1l.37-41.5a2.11,2.11,0,0,1,2.1-2.1h56.81a2.11,2.11,0,0,1,2.1,2.1Zm79.28,0a2.11,2.11,0,0,1-2.1,2.1H296.26a2.11,2.11,0,0,1-2.1-2.1l.37-41.5a2.11,2.11,0,0,1,2.1-2.1h56.81a2.11,2.11,0,0,1,2.1,2.1Zm139.68,6.89-121.4-4.79a2.11,2.11,0,0,1-2.1-2.1l.37-41.5a2.11,2.11,0,0,1,2.1-2.1l93.12,1.36a2.11,2.11,0,0,1,2.1,2.1l27.91,44.93a2.11,2.11,0,0,1-2.1,2.1"/><path class="cls-21" d="M529.16,249.06a.53.53,0,0,1-.4-.19,26.7,26.7,0,0,1-5-11.26c-2.13-16.59-6.45-22.94-9.7-25.35a7.19,7.19,0,0,0-5.49-1.52,2.27,2.27,0,0,1-2.18-.8,46.7,46.7,0,0,0-10.79-9.27c-17.58-11.16-63.52-8.4-65.47-8.28H430L13.49,189a.52.52,0,0,1-.5-.52.51.51,0,0,1,.51-.5h0L430,191.38h.09c2-.13,48.22-2.9,66.06,8.43a46.22,46.22,0,0,1,11.05,9.5,1.3,1.3,0,0,0,1.22.43,8.2,8.2,0,0,1,6.27,1.7c5,3.68,8.35,12.43,10.1,26a26.21,26.21,0,0,0,4.81,10.76.52.52,0,0,1-.08.72.56.56,0,0,1-.32.11m-33.94-67h0l-121.4-4.79a2.61,2.61,0,0,1-2.59-2.61l.37-41.5a2.61,2.61,0,0,1,2.61-2.6l93.13,1.35a2.61,2.61,0,0,1,2.59,2.46l27.92,44.93v.15a2.61,2.61,0,0,1-2.61,2.61m-121-50.49a1.59,1.59,0,0,0-1.58,1.59l-.37,41.5a1.59,1.59,0,0,0,1.59,1.59l121.41,4.79a1.6,1.6,0,0,0,1.58-1.46L468.9,134.68v-.15a1.59,1.59,0,0,0-1.59-1.59Zm-20.74,45.7H296.26a2.61,2.61,0,0,1-2.61-2.61l.38-41.5a2.61,2.61,0,0,1,2.6-2.6h56.81a2.61,2.61,0,0,1,2.61,2.6v41.5a2.61,2.61,0,0,1-2.61,2.61m-56.81-45.7a1.6,1.6,0,0,0-1.59,1.59l-.37,41.5a1.59,1.59,0,0,0,1.59,1.59h57.18a1.59,1.59,0,0,0,1.59-1.59v-41.5a1.59,1.59,0,0,0-1.59-1.59Zm-22.47,45.7H217a2.61,2.61,0,0,1-2.61-2.61l.37-41.5a2.61,2.61,0,0,1,2.61-2.6h56.81a2.61,2.61,0,0,1,2.6,2.6v41.5a2.61,2.61,0,0,1-2.6,2.61m-56.81-45.7a1.59,1.59,0,0,0-1.59,1.59l-.38,41.5a1.6,1.6,0,0,0,1.6,1.59h57.18a1.59,1.59,0,0,0,1.59-1.59v-41.5a1.6,1.6,0,0,0-1.59-1.59Zm-24.21,45.7H130.49a2.61,2.61,0,0,1-2.61-2.61v-.07l5.83-41.46a2.62,2.62,0,0,1,2.61-2.57h56.81a2.61,2.61,0,0,1,2.61,2.6v41.5a2.61,2.61,0,0,1-2.61,2.61M128.9,174.7a1.59,1.59,0,0,0,1.59,1.56h62.65a1.59,1.59,0,0,0,1.59-1.59v-41.5a1.59,1.59,0,0,0-1.59-1.59H136.33a1.59,1.59,0,0,0-1.59,1.59v.07Z"/><rect class="cls-4" x="373.08" y="213.02" width="21.12" height="4.07"/><path class="cls-4" d="M393.83,218.94h0a3,3,0,0,1-3-3v-2.5a3,3,0,1,1,5.93,0V216a3,3,0,0,1-3,3"/><path class="cls-23" d="M489,147a1.77,1.77,0,0,1,.6-2.49c5.32-3.22,2.63-7.49,1.85-8.54a1.38,1.38,0,0,0-.41-.39l-10-6.8a1.64,1.64,0,0,1-.25-.21c-7.65-7.87-23.23-10.23-24.61-10.43l-.2,0c-4.06-1.12-19.9-3.12-19.9-3.12-92.63-9.63-268.25-8.15-329.38-5.19-.62,0-1.24,0-1.85,0-53.67-.4-69,12.45-70,13.32l-.09.08c-.51.51-1,1.05-1.49,1.63l417.6,7.22s22.48-1.73,31.87,4.2c0,0,4.2,4,5.19,9.14a4.28,4.28,0,0,0,1.69,2.59Z"/><path class="cls-24" d="M13.5,122.53s47.21-15.49,93.19-12.7l282-.34s81.81.84,101.56,9.23c0,0,2.59-16-99.38-23.72,0,0-49.39-3.73-284.66,3,0,0-73.67,5.23-92.7,24.53"/><g class="cls-6"><g class="cls-25"><path class="cls-14" d="M486.72,114c-14.72-4.37-40.61-9.08-86.13-12.32,0,0-52.43-3.74-302.18,3,0,0-51.25,3.43-81.49,15a27,27,0,0,0-3.42,2.91s47.21-15.5,93.19-12.7l282-.34s81.81.84,101.56,9.23c0,0,.31-1.92-3.52-4.75"/></g></g><g class="cls-6"><g class="cls-26"><path class="cls-14" d="M491.05,135.62l-10-6.8a1.64,1.64,0,0,1-.25-.21,29.85,29.85,0,0,0-9.3-6.08H35.61a9.49,9.49,0,0,0-.75.6l-.09.08c-.5.51-1,1.05-1.49,1.63l417.61,7.22s22.47-1.73,31.86,4.2c0,0,4.2,4,5.19,9.14a4.28,4.28,0,0,0,1.69,2.59l-.62-1a1.77,1.77,0,0,1,.6-2.49c5.32-3.22,2.63-7.49,1.85-8.54a1.67,1.67,0,0,0-.41-.39"/></g></g><path class="cls-21" d="M471.48,123H35.61a.51.51,0,1,1,0-1H471.48a.51.51,0,0,1,0,1"/><path class="cls-4" d="M85.21,242.75H37.92V195.47H85.21Zm-46.78-.51H84.7V196H38.43Z"/><polygon class="cls-23" points="454.81 180.98 452.02 180.98 433.38 131.66 436.17 131.65 454.81 180.98"/><polygon class="cls-4" points="410.98 163.12 415.73 165.9 415.73 173.35 407.59 173.35 410.98 163.12"/><polygon class="cls-4" points="415.73 169.96 444.09 186.57 440.81 188.49 415.73 173.35 415.73 169.96"/><path class="cls-4" d="M449.05,193.94H434.63a1.25,1.25,0,0,1-1.25-1.25v-7.44a1.25,1.25,0,0,1,1.25-1.24h14.42a1.25,1.25,0,0,1,1.25,1.24v7.44a1.25,1.25,0,0,1-1.25,1.25"/><path class="cls-27" d="M387.25,196.74s89.6-6.1,111.43,13.77L492.83,213s-5.61-17.81-105.58-16.28"/><polygon class="cls-27" points="94.26 199.02 359.95 199.02 94.26 203.47 94.26 199.02"/><polygon class="cls-27" points="33.28 199.02 13.5 199.02 33.28 202.17 33.28 199.02"/><path class="cls-28" d="M130.36,122.86l13.9-21.69s3.07-7.14,7.45,0l10.1,21.36Z"/><path class="cls-29" d="M150.8,105.34a3.77,3.77,0,1,1-3.77-3.77,3.77,3.77,0,0,1,3.77,3.77"/><g class="cls-6"><g class="cls-30"><path class="cls-14" d="M157.75,113.94c-5.29-.85-10.32-3.4-15.13-5.91-.69-.36-1.38-.72-2.06-1.09l-10.2,15.92,31.45-.33Z"/></g></g><path class="cls-28" d="M318.32,122.86l13.9-21.69s3.07-7.14,7.45,0l10.1,21.36Z"/><g class="cls-6"><g class="cls-31"><path class="cls-14" d="M345.71,113.94c-5.29-.85-10.32-3.4-15.13-5.91-.69-.36-1.38-.72-2.06-1.09l-10.2,15.92,31.45-.33Z"/></g></g><path class="cls-29" d="M339.51,103.58a3.77,3.77,0,1,1-3.77-3.77,3.76,3.76,0,0,1,3.77,3.77"/><rect class="cls-32" x="150.53" y="63.55" width="190.64" height="34.45"/><rect class="cls-33" x="150.53" y="79.31" width="190.64" height="1.02"/><rect class="cls-34" x="150.53" y="92.01" width="190.64" height="5.98"/><path class="cls-35" d="M247.16,98.54h-4.83a.81.81,0,0,1-.8-.81V63.08a.81.81,0,0,1,.8-.81h4.83a.81.81,0,0,1,.8.81V97.73a.81.81,0,0,1-.8.81"/><rect class="cls-34" x="150.53" y="63.55" width="190.64" height="6.1"/><rect class="cls-36" x="176.45" y="63.55" width="6.61" height="34.57"/><rect class="cls-37" x="174.93" y="70.49" width="9.32" height="2.71"/><rect class="cls-36" x="304.24" y="63.55" width="6.61" height="34.57"/><rect class="cls-37" x="302.71" y="70.49" width="9.32" height="2.71"/><path class="cls-37" d="M247.16,96.42h-4.83a.8.8,0,0,1-.8-.81V61a.8.8,0,0,1,.8-.8h4.83a.8.8,0,0,1,.8.8V95.61a.8.8,0,0,1-.8.81"/><path class="cls-37" d="M162.91,95h-3.45a.57.57,0,0,1-.58-.57V67.17a.58.58,0,0,1,.58-.57h3.45a.58.58,0,0,1,.58.57V94.43a.57.57,0,0,1-.58.57"/><path class="cls-37" d="M331.18,95h-3.46a.57.57,0,0,1-.57-.57V67.17a.58.58,0,0,1,.57-.57h3.46a.58.58,0,0,1,.58.57V94.43a.57.57,0,0,1-.58.57"/><rect class="cls-33" x="238.73" y="71.85" width="11.69" height="3.64"/><rect class="cls-38" x="165.05" y="3.62" width="130.18" height="59.69"/><rect class="cls-39" x="165.05" y="22.07" width="130.18" height="1.93"/><rect class="cls-40" x="165.05" y="51.94" width="130.18" height="11.37"/><rect class="cls-40" x="165.05" y="3.62" width="130.18" height="11.6"/><rect class="cls-41" x="171.71" y="3.62" width="6.1" height="60.18"/><rect class="cls-41" x="190.69" y="3.62" width="6.1" height="60.18"/><rect class="cls-41" x="262.52" y="3.62" width="6.1" height="60.18"/><rect class="cls-41" x="282.88" y="3.62" width="6.1" height="60.18"/><path class="cls-39" d="M210.63,36.35h-10a.7.7,0,0,1-.7-.7V31.5a.69.69,0,0,1,.7-.69h10a.69.69,0,0,1,.69.69v4.15a.69.69,0,0,1-.69.7"/><path class="cls-39" d="M258.71,36.35h-10a.69.69,0,0,1-.69-.7V31.5a.69.69,0,0,1,.69-.69h10a.69.69,0,0,1,.69.69v4.15a.69.69,0,0,1-.69.7"/><path class="cls-39" d="M229.64,46.26c-14.62,0-26.07-5.57-26.07-12.68h4.06c0,4.07,9.42,8.61,22,8.61s22-4.54,22-8.61h4.07c0,7.11-11.46,12.68-26.08,12.68"/><rect class="cls-39" x="168.32" y="44.23" width="11.27" height="2.54"/><rect class="cls-39" x="168.32" y="38.89" width="11.27" height="2.54"/><rect class="cls-39" x="280.3" y="44.23" width="11.27" height="2.54"/><rect class="cls-39" x="280.3" y="38.89" width="11.27" height="2.54"/><path class="cls-39" d="M175.17,34.32a.61.61,0,1,1-.61-.61.6.6,0,0,1,.61.61"/><path class="cls-39" d="M175.17,29.14a.61.61,0,1,1-.61-.61.6.6,0,0,1,.61.61"/><path class="cls-39" d="M175.17,24a.61.61,0,1,1-.61-.61.6.6,0,0,1,.61.61"/><path class="cls-39" d="M175.17,18.78a.61.61,0,1,1-.61-.61.6.6,0,0,1,.61.61"/><path class="cls-39" d="M286.54,34.32a.61.61,0,1,1-.61-.61.6.6,0,0,1,.61.61"/><path class="cls-39" d="M286.54,29.14a.61.61,0,1,1-.61-.61.6.6,0,0,1,.61.61"/><path class="cls-39" d="M286.54,24a.61.61,0,1,1-.61-.61.6.6,0,0,1,.61.61"/><path class="cls-39" d="M286.54,18.78a.61.61,0,1,1-.61-.61.6.6,0,0,1,.61.61"/><path class="cls-33" d="M147,106.86a1.44,1.44,0,0,1-.77-.21,1.52,1.52,0,0,1-.54-2.09L207.17.75a1.52,1.52,0,1,1,2.62,1.55L148.35,106.12a1.54,1.54,0,0,1-1.32.74"/><path class="cls-33" d="M336.76,104.38a1.53,1.53,0,0,1-1.16-.53L249.26,2.51a1.52,1.52,0,1,1,2.32-2l86.34,101.33a1.52,1.52,0,0,1-.17,2.15,1.55,1.55,0,0,1-1,.36"/><path class="cls-42" d="M314.31,131.11s-10.77,22.12-5.47,45.62h29.32s4.14-23.5-4.81-44.79a16.42,16.42,0,0,0-2.39,6.15s-8.07-2-14.28-.1c0,0-.27-4.69-2.37-6.88"/><path class="cls-43" d="M314.31,131.11s1,6.19.15,7.61-3.47,1.46-3.86,2.33a80.43,80.43,0,0,1,3.71-9.94"/><path class="cls-43" d="M333.36,131.89s-1,6.18-.16,7.6,3,1.54,3.4,2.41c0,0-1.48-6.53-3.24-10"/><path class="cls-44" d="M323.1,148.6a1.94,1.94,0,0,0,1.15-.35c.7-.57.27-1.55-.8-1.7-.91-.13-1.84.28-1.89.94s.64,1.13,1.54,1.11"/><path class="cls-44" d="M326,153.07s-.12-.08-.22-.07a2.15,2.15,0,0,1-1.19-.15c-1.07-.48-1-1.3-1-2l-.09-1.46c0-.73-.09-1.45-.13-2.18,0-.05-.09-.09-.19-.09s-.18,0-.17.1c0,.57.07,1.14.1,1.72s.07,1,.1,1.54a8.79,8.79,0,0,0,0,1.15c-.1.63-1.08,1-2.11,1.11-.1,0-.17.06-.15.12s.12.08.21.08a3.31,3.31,0,0,0,2.21-.87,2.12,2.12,0,0,0,1,.9,2.56,2.56,0,0,0,1.07.22,3.4,3.4,0,0,0,.45,0c.09,0,.15-.07.12-.12"/><path class="cls-45" d="M320.74,147.75c0-.23-.34-.32-.59-.18s-.07.37.19.4.39-.09.4-.22"/><path class="cls-45" d="M319.38,149.42c0-.23-.33-.32-.58-.18s-.08.37.19.39.38-.08.39-.21"/><path class="cls-45" d="M320.74,151c0-.23-.34-.33-.59-.18s-.07.37.19.39.39-.08.4-.21"/><path class="cls-45" d="M325.6,147.71c0-.23.34-.32.59-.18s.07.37-.19.4-.39-.09-.4-.22"/><path class="cls-45" d="M327,149.37c0-.23.34-.32.59-.17s.07.37-.2.39-.38-.08-.39-.22"/><path class="cls-45" d="M325.6,150.93c0-.23.34-.32.59-.17s.07.37-.19.39-.39-.08-.4-.22"/><path class="cls-46" d="M314.88,148.2c-.24.64-2.22.62-2.93.48-1.14-.22-1.34-1.07-.22-1.43,1-.31,2.86-.31,3.15.64a.47.47,0,0,1,0,.31"/><path class="cls-46" d="M331.61,148.16c.24.64,2.22.62,2.93.48,1.13-.22,1.33-1.08.22-1.43-1-.31-2.86-.32-3.15.64a.41.41,0,0,0,0,.31"/><path class="cls-44" d="M326.12,147.78a.19.19,0,0,1-.18-.09c0-.06,0-.13.13-.15l.4-.09c.36-.07.74-.14,1.1-.23.7-.16,1.43-.26,2.13-.35l.5-.07c1.14-.15,2-.24,2.86-.29.09,0,.18.05.19.12s-.06.13-.17.13c-.82.05-1.69.14-2.81.29l-.5.07a20.49,20.49,0,0,0-2.08.34c-.37.09-.75.16-1.12.24l-.4.08h-.05"/><path class="cls-44" d="M333.79,149.67h0c-.75-.07-1.5-.09-2.24-.1-.31,0-.63,0-.94,0s-.53,0-.79,0c-.82,0-1.67-.07-2.5,0-.1,0-.19-.05-.19-.12s.07-.13.17-.13c.85,0,1.71,0,2.54,0l.78,0,.94,0c.75,0,1.52,0,2.28.1.1,0,.16.08.15.15a.17.17,0,0,1-.18.11"/><path class="cls-44" d="M330.05,152.45H330L325.82,151c-.08,0-.12-.11-.08-.17a.25.25,0,0,1,.25-.06c1.36.48,2.76,1,4.14,1.43.09,0,.13.11.09.17a.19.19,0,0,1-.17.07"/><path class="cls-44" d="M320.33,147.84h-.07l-1.45-.38c-.76-.19-1.57-.31-2.35-.43s-1.31-.19-1.95-.33c-.1,0-.15-.09-.12-.16a.22.22,0,0,1,.23-.08c.62.14,1.28.23,1.91.33a20,20,0,0,1,2.41.44l1.45.37c.09,0,.14.1.11.17a.2.2,0,0,1-.17.08"/><path class="cls-44" d="M312.79,149.8a.19.19,0,0,1-.18-.1c0-.07,0-.14.14-.15a22.42,22.42,0,0,1,2.85-.36,22.16,22.16,0,0,1,3.36.05c.1,0,.17.07.16.14a.19.19,0,0,1-.21.11,22.41,22.41,0,0,0-3.28-.05,26.44,26.44,0,0,0-2.8.35h0"/><path class="cls-44" d="M315.46,152a.17.17,0,0,1-.16-.08c0-.07,0-.14.1-.16a27.93,27.93,0,0,1,3.13-.62c.56-.1,1.14-.19,1.7-.3a.21.21,0,0,1,.23.09c0,.07,0,.14-.13.15-.57.12-1.15.21-1.71.3-1,.17-2.09.34-3.09.61h-.07"/><path class="cls-47" d="M312.73,148.4c0-.13-.4-1-.64-.81s0,.45.08.59a.61.61,0,0,0,.46.32h.07a.07.07,0,0,0,0-.09"/><path class="cls-47" d="M313.55,148.25c0-.12-.27-1-.44-.81s0,.45.06.6.16.3.31.31h0s0-.06,0-.09"/><path class="cls-47" d="M333.44,148.28c0-.24-.28-.85-.68-.83-.18,0,.59,1.3.68.83"/><path class="cls-47" d="M334.37,148.33c0-.25-.36-.68-.52-.9a.16.16,0,0,0-.15-.09.11.11,0,0,0-.09.14,2,2,0,0,0,.16.44.78.78,0,0,0,.48.46.12.12,0,0,0,.08,0,.06.06,0,0,0,0-.06"/><path class="cls-44" d="M332.72,144.77l.12-.2c.09-.18-.29-.33-.46-.19a.61.61,0,0,0,0,1,.37.37,0,0,0,.39,0,.68.68,0,0,0,.17-1.08.34.34,0,0,0-.47,0c-.15.19-.37.57-.05.73s.67-.15.43-.35-.62.08-.39.27l0,0-.07-.19,0,0,.19-.06h0l.19.06c.06,0,0,0,.06-.09a1.3,1.3,0,0,1,.1-.15h-.47a.38.38,0,0,1-.09.61h.39a.3.3,0,0,1,0-.48l-.45-.19-.12.21c-.12.23.41.33.53.1"/><path class="cls-44" d="M314.8,144.49a.67.67,0,0,0,.17.65.36.36,0,0,0,.43,0,.61.61,0,0,0,0-1.06.37.37,0,0,0-.39,0,.66.66,0,0,0-.13.95.34.34,0,0,0,.43,0,.43.43,0,0,0,0-.76.4.4,0,0,0-.27,0c-.48.13-.67.62-.23.86a.38.38,0,0,0,.33,0c.33-.16.4-.49.1-.69s-.65.1-.39.27c0,0,.05.06,0,.09l.33,0c-.08,0-.14-.18,0-.22l-.27,0c.09.07,0,.15,0,.21l.43,0a.36.36,0,0,1,.05-.49H315a.3.3,0,0,1,0,.52l.43,0a.39.39,0,0,1-.12-.36c.05-.24-.48-.35-.53-.1"/><path class="cls-48" d="M150,141.24S135,159,142.4,177.89h41s5.78-18.88-6.71-36a11.25,11.25,0,0,0-3.34,4.94s-11.28-1.57-20-.08c0,0-.38-3.77-3.31-5.53"/><path class="cls-43" d="M150,141.24s1.45,5,.22,6.11-4.86,1.18-5.4,1.88a51.28,51.28,0,0,1,5.18-8"/><path class="cls-43" d="M176.66,141.87s-1.46,5-.22,6.11,4.21,1.23,4.75,1.93c0,0-2.08-5.25-4.53-8"/><path class="cls-44" d="M162.29,163.13a2.58,2.58,0,0,0,1.8-.7,2.12,2.12,0,0,0-1.25-3.47,2.38,2.38,0,0,0-2.94,1.92,2.19,2.19,0,0,0,2.39,2.25"/><path class="cls-44" d="M166.75,172.21a.31.31,0,0,0-.34-.14,2.57,2.57,0,0,1-1.85-.3c-1.66-1-1.55-2.64-1.62-4,0-1-.09-2-.14-3l-.21-4.41c0-.11-.14-.19-.29-.2s-.28.1-.27.21c.05,1.16.11,2.33.17,3.49l.15,3.14c0,.76-.06,1.58,0,2.33-.16,1.28-1.68,2.05-3.28,2.26-.15,0-.25.12-.22.23a.28.28,0,0,0,.32.16,4.59,4.59,0,0,0,3.43-1.76,3.9,3.9,0,0,0,1.56,1.84,3.3,3.3,0,0,0,1.66.44,4,4,0,0,0,.69-.06c.15,0,.24-.14.2-.25"/><path class="cls-45" d="M158.63,161.41c0-.47-.52-.65-.91-.36s-.11.75.3.8a.54.54,0,0,0,.61-.44"/><path class="cls-45" d="M156.53,164.79c0-.47-.53-.65-.92-.36s-.11.75.3.8a.55.55,0,0,0,.62-.44"/><path class="cls-45" d="M158.63,168c0-.47-.52-.65-.91-.36s-.11.75.3.8a.54.54,0,0,0,.61-.44"/><path class="cls-45" d="M166.19,161.33c0-.47.52-.66.91-.37s.11.75-.3.81a.55.55,0,0,1-.61-.44"/><path class="cls-45" d="M168.29,164.71c0-.47.53-.66.92-.36s.11.75-.3.8a.56.56,0,0,1-.62-.44"/><path class="cls-45" d="M166.19,167.88c0-.47.52-.66.91-.37s.11.75-.3.81a.55.55,0,0,1-.61-.44"/><path class="cls-46" d="M149.53,162.32c-.37,1.31-3.45,1.27-4.55,1-1.76-.45-2.07-2.19-.34-2.91,1.5-.63,4.44-.64,4.89,1.3a1.12,1.12,0,0,1,0,.63"/><path class="cls-46" d="M175.51,162.23c.37,1.31,3.46,1.27,4.56,1,1.76-.45,2.07-2.18.34-2.91-1.5-.62-4.44-.63-4.89,1.31a1.19,1.19,0,0,0,0,.62"/><path class="cls-44" d="M167,161.48a.27.27,0,0,1-.27-.19.25.25,0,0,1,.19-.32l.63-.16c.56-.15,1.14-.3,1.7-.48a25.85,25.85,0,0,1,3.32-.71l.78-.14a44.5,44.5,0,0,1,4.43-.59.28.28,0,0,1,.3.24.27.27,0,0,1-.26.27,44,44,0,0,0-4.37.59l-.78.13a26.38,26.38,0,0,0-3.24.7c-.57.18-1.16.33-1.73.48l-.63.17H167"/><path class="cls-44" d="M178.91,165.3h0a31.39,31.39,0,0,0-3.47-.22c-.49,0-1,0-1.47-.05s-.82,0-1.22-.06a33.63,33.63,0,0,0-3.89-.07.29.29,0,0,1-.3-.24.28.28,0,0,1,.27-.27,32.44,32.44,0,0,1,4,.07l1.22.06,1.45,0a32.81,32.81,0,0,1,3.54.22.25.25,0,0,1,.23.29.27.27,0,0,1-.27.22"/><path class="cls-44" d="M173.1,171l-.12,0c-2.16-1-4.33-1.93-6.45-2.91a.25.25,0,0,1-.12-.35.29.29,0,0,1,.37-.11c2.12,1,4.29,2,6.44,2.9a.25.25,0,0,1,.13.35.27.27,0,0,1-.25.14"/><path class="cls-44" d="M158,161.59l-.1,0-2.25-.76a25.65,25.65,0,0,0-3.66-.88c-1-.19-2-.38-3-.67a.25.25,0,0,1-.18-.32.28.28,0,0,1,.35-.17c1,.28,2,.47,3,.66a28.17,28.17,0,0,1,3.74.89l2.25.77a.25.25,0,0,1,.16.33.29.29,0,0,1-.26.17"/><path class="cls-44" d="M146.29,165.57a.29.29,0,0,1-.28-.2.26.26,0,0,1,.21-.31,28.75,28.75,0,0,1,4.44-.73,27.46,27.46,0,0,1,5.21.1.26.26,0,1,1-.07.51,27.14,27.14,0,0,0-5.1-.1,28.2,28.2,0,0,0-4.35.72h-.06"/><path class="cls-44" d="M150.44,170a.28.28,0,0,1-.26-.16.25.25,0,0,1,.16-.34,40,40,0,0,1,4.87-1.26c.87-.18,1.77-.37,2.64-.59a.29.29,0,0,1,.35.17.26.26,0,0,1-.2.32c-.88.23-1.79.42-2.67.61a40.07,40.07,0,0,0-4.79,1.23.18.18,0,0,1-.1,0"/><path class="cls-47" d="M146.2,162.72c0-.25-.63-2-1-1.65s0,.92.12,1.22a1,1,0,0,0,.73.64.13.13,0,0,0,.09,0c.07,0,.07-.12.06-.19"/><path class="cls-47" d="M147.46,162.42c0-.25-.42-2-.67-1.65s0,.93.08,1.22.25.61.49.64a.1.1,0,0,0,.07,0s0-.12,0-.19"/><path class="cls-47" d="M178.36,162.48c.07-.48-.44-1.72-1.06-1.68-.27,0,.92,2.64,1.06,1.68"/><path class="cls-47" d="M179.81,162.58a5.18,5.18,0,0,0-.81-1.82c-.05-.1-.13-.2-.24-.19s-.15.17-.13.28a4,4,0,0,0,.24.9,1.49,1.49,0,0,0,.76.95.21.21,0,0,0,.11,0,.15.15,0,0,0,.07-.13"/><path class="cls-44" d="M177.25,155.35l.17-.41c.15-.36-.44-.67-.71-.38a1.49,1.49,0,0,0,0,2.08.47.47,0,0,0,.6,0,1.67,1.67,0,0,0,.28-2.2.46.46,0,0,0-.74,0c-.24.39-.58,1.15-.07,1.48a.49.49,0,0,0,.66-.71c-.35-.39-.95.17-.61.55a.08.08,0,0,1,0,0c0-.13-.07-.26-.11-.38l0-.09.3-.11H177l.3.12c.09.07.06-.09.09-.18a1.2,1.2,0,0,1,.16-.32h-.74a.91.91,0,0,1-.14,1.25h.6a.75.75,0,0,1,0-1l-.71-.38-.18.42c-.19.47.63.67.83.2"/><path class="cls-44" d="M149.41,154.78a1.64,1.64,0,0,0,.27,1.32.45.45,0,0,0,.67.08,1.45,1.45,0,0,0,0-2.14.45.45,0,0,0-.6,0,1.63,1.63,0,0,0-.21,1.93.47.47,0,0,0,.67.08,1,1,0,0,0,.07-1.54.41.41,0,0,0-.41-.1,1,1,0,0,0-.37,1.73.45.45,0,0,0,.51.06.85.85,0,0,0,.16-1.39c-.4-.35-1,.2-.61.55.05,0,.09.13,0,.17l.52.06c-.13-.09-.22-.36,0-.43l-.41-.1a.28.28,0,0,1-.07.43l.67.08a.86.86,0,0,1,.07-1h-.6a.7.7,0,0,1,0,1l.67.08a.91.91,0,0,1-.19-.72c.09-.49-.74-.71-.82-.21"/><path class="cls-49" d="M234.05,175.66a94.78,94.78,0,0,0,11,.21c3.71-.11,7.42-.33,11.14-.46,2.52-.09,5-.11,7.56-.15-.27-11.07-1.58-24.8-5.49-37.92a27.73,27.73,0,0,0-2.3,8.34s-7.77-2.65-13.74-.14c0,0-.27-6.35-2.29-9.31a147,147,0,0,0-6.6,39.37l.67.06"/><path class="cls-50" d="M251.86,163.7c2.59-.78,4.54-3,2.42-4.63a8.47,8.47,0,0,0-5.13-1.43c-3.73,0-7.32,2-5.78,4.78,1.09,2,6.29,1.94,8.49,1.28"/><path class="cls-51" d="M250.22,157.21l-.1,0,.44.18a3,3,0,0,0-1.64-.36c-.92.05-1.73.28-1.82,1,0,.3.29.62.64.76a2.76,2.76,0,0,0,1.4.09,4.27,4.27,0,0,0,.82-.19,1.75,1.75,0,0,0,.46-.21c.06,0,.4-.27.22-.16.56-.34.2-1-.42-1.09"/><path class="cls-51" d="M246.58,160.83a2.19,2.19,0,0,0,2.59-2.57c-.13-.35-.78-.23-.83.08a5.92,5.92,0,0,1-.14,1.32c-.25.58-.76.75-1.56.82-.28,0-.34.27-.06.35"/><path class="cls-51" d="M251.23,160.05a1.5,1.5,0,0,1-1.46-.37,1.29,1.29,0,0,1-.35-.66c0-.21.09-.43-.1-.62a.47.47,0,0,0-.49-.09c-.8.32-.09,1.44.32,1.8a2.45,2.45,0,0,0,1.08.54,2,2,0,0,0,.64,0,1.32,1.32,0,0,0,.62-.29c.2-.13,0-.39-.26-.32"/><path class="cls-51" d="M257.37,154.78c-.09.06.23-.11.13-.07a.91.91,0,0,0-.39.29,2.26,2.26,0,0,0-.25.38l.11-.18c-.19.31-.34.67-.05,1a1.06,1.06,0,0,0,.62.33,1.5,1.5,0,0,0,.79-.07,1,1,0,0,0,.68-1,.84.84,0,0,0-.07-.35c-.08-.22-.26-.32-.5-.45a1.18,1.18,0,0,0-1.07.1"/><path class="cls-51" d="M239.89,155.09a1.11,1.11,0,0,0-.46.85.94.94,0,0,0,.44.87,1.14,1.14,0,0,0,1.23,0,1.28,1.28,0,0,0,.35-.39,1,1,0,0,0,.09-.48,1,1,0,0,0-.46-.85,1.11,1.11,0,0,0-1.19,0"/><path class="cls-52" d="M402.15,135.22s-13.75,19.73-7,40.69H432.6s5.29-21-6.13-40a12.76,12.76,0,0,0-3.05,5.49s-10.31-1.74-18.24-.09c0,0-.35-4.18-3-6.13"/><path class="cls-53" d="M402.15,135.22s1.33,5.51.2,6.78-4.44,1.31-4.93,2.08a59,59,0,0,1,4.73-8.86"/><path class="cls-53" d="M426.48,135.91s-1.33,5.52-.2,6.79,3.85,1.36,4.34,2.14c0,0-1.89-5.82-4.14-8.93"/><path class="cls-46" d="M401.69,158.62c-.34,1.46-3.16,1.41-4.17,1.09a1.7,1.7,0,0,1-.31-3.23c1.37-.69,4.06-.71,4.48,1.45a1.77,1.77,0,0,1,0,.69"/><path class="cls-46" d="M425.43,158.53c.34,1.45,3.16,1.4,4.17,1.09a1.7,1.7,0,0,0,.31-3.23c-1.37-.7-4.06-.71-4.47,1.44a1.84,1.84,0,0,0,0,.7"/><path class="cls-47" d="M398.64,159.07c0-.28-.57-2.22-.92-1.83s0,1,.12,1.35.34.67.66.71a.15.15,0,0,0,.09,0c.06,0,.06-.13.05-.21"/><path class="cls-47" d="M399.8,158.74c0-.28-.39-2.22-.62-1.83s0,1,.08,1.35.23.67.44.7a0,0,0,0,0,.06,0s0-.14,0-.21"/><path class="cls-47" d="M428,158.8c.06-.53-.4-1.91-1-1.86-.24,0,.85,2.92,1,1.86"/><path class="cls-47" d="M429.36,158.91a6.4,6.4,0,0,0-.74-2c0-.11-.12-.22-.22-.2s-.13.18-.12.3a5.69,5.69,0,0,0,.23,1,1.56,1.56,0,0,0,.68,1,.11.11,0,0,0,.11,0,.17.17,0,0,0,.06-.14"/><path class="cls-44" d="M427,150.89c.05-.15.1-.31.16-.46.14-.4-.41-.74-.65-.42a1.91,1.91,0,0,0,0,2.3.35.35,0,0,0,.55,0,2.11,2.11,0,0,0,.25-2.43.37.37,0,0,0-.67,0c-.22.42-.53,1.27-.06,1.63s.94-.32.6-.78-.87.18-.55.61l0,0c0-.14-.07-.28-.1-.42l0-.09.28-.13h-.06l.28.13c.07.08.05-.09.08-.2a1.35,1.35,0,0,1,.14-.35h-.67a1.16,1.16,0,0,1-.13,1.38h.55a1,1,0,0,1,0-1.08l-.65-.42c-.06.15-.11.3-.16.46a.39.39,0,1,0,.75.23"/><path class="cls-44" d="M401.57,150.25a2.19,2.19,0,0,0,.25,1.47.37.37,0,0,0,.61.09,1.86,1.86,0,0,0,0-2.38.35.35,0,0,0-.55,0,2.08,2.08,0,0,0-.19,2.14.37.37,0,0,0,.61.09,1.3,1.3,0,0,0,.06-1.71.35.35,0,0,0-.38-.11,1.2,1.2,0,0,0-.34,1.92.38.38,0,0,0,.48.07,1.08,1.08,0,0,0,.14-1.55c-.37-.38-.92.23-.55.62a.13.13,0,0,1,0,.18l.47.07c-.11-.1-.19-.4,0-.48l-.38-.11a.35.35,0,0,1-.06.48l.61.09a1.11,1.11,0,0,1,.07-1.09h-.55a.91.91,0,0,1,0,1.16l.61.08a1.23,1.23,0,0,1-.17-.8c.08-.55-.67-.78-.75-.23"/><path class="cls-54" d="M417.63,167.59c3.72-1.11,6.51-4.31,3.47-6.63a12.09,12.09,0,0,0-7.36-2.06c-5.34,0-10.49,2.85-8.29,6.86,1.57,2.84,9,2.78,12.18,1.83"/><path class="cls-51" d="M415.29,158.29l-.16,0,.63.26a4.12,4.12,0,0,0-2.34-.52c-1.32.06-2.49.4-2.61,1.44-.05.43.42.89.92,1.1a4,4,0,0,0,2,.12,5.23,5.23,0,0,0,1.17-.27,2.6,2.6,0,0,0,.66-.29c.08-.05.58-.4.31-.24.81-.48.29-1.36-.59-1.56"/><path class="cls-51" d="M410.05,163.47c2.69.72,4.2-2.31,3.72-3.68-.18-.5-1.11-.33-1.19.12a7.6,7.6,0,0,1-.2,1.89c-.35.83-1.08,1.08-2.23,1.17-.41,0-.49.4-.1.5"/><path class="cls-51" d="M416.72,162.36a2.16,2.16,0,0,1-2.09-.53,1.92,1.92,0,0,1-.5-.94c-.06-.31.14-.63-.13-.9a.69.69,0,0,0-.71-.13c-1.16.47-.13,2.07.46,2.59a3.4,3.4,0,0,0,1.54.77,2.84,2.84,0,0,0,.92,0,2,2,0,0,0,.9-.42c.28-.18,0-.55-.39-.46"/><path class="cls-21" d="M506.73,307.42l-.44-.25c0-.1,5.52-9.66,5.52-19.84,0-.5,2.37-48.59-4.88-77.25l.5-.12c7.26,28.73,4.91,76.9,4.89,77.38,0,10.31-5.54,20-5.59,20.08"/><path class="cls-55" d="M535.41,270c0,7.82-2.39,14.15-5.34,14.15s-5.34-6.33-5.34-14.15,2.39-14.14,5.34-14.14,5.34,6.33,5.34,14.14"/><path class="cls-23" d="M536.89,270c0,7.82-2.39,14.15-5.34,14.15s-5.34-6.33-5.34-14.15,2.39-14.14,5.34-14.14,5.34,6.33,5.34,14.14"/><path class="cls-56" d="M538.49,270c0,6.29-2.3,11.39-5.13,11.39s-3.29-5.1-3.29-11.39.45-11.38,3.29-11.38,5.13,5.09,5.13,11.38"/><path class="cls-23" d="M537.29,272.11h0a.75.75,0,0,1-.73-.79c0-.36,0-.72,0-1.09a21.18,21.18,0,0,0-.9-6.33.76.76,0,0,1,.49-1,.78.78,0,0,1,1,.5,22.64,22.64,0,0,1,1,6.79c0,.39,0,.77,0,1.16a.77.77,0,0,1-.76.72"/><path class="cls-23" d="M535.79,262.91a.75.75,0,0,1-.69-.45,9.38,9.38,0,0,0-.83-1.46.76.76,0,0,1,1.23-.89,9.34,9.34,0,0,1,1,1.72.76.76,0,0,1-.38,1,.82.82,0,0,1-.31.07"/><g class="cls-6"><g class="cls-57"><path class="cls-14" d="M534.84,278.67c-2.84,0-3.29-5.1-3.29-11.39a37.85,37.85,0,0,1,.63-8.25c-1.79,1.28-2.11,5.72-2.11,11,0,6.29.45,11.39,3.29,11.39,1.61,0,3-1.64,4-4.21a3.31,3.31,0,0,1-2.5,1.45"/></g></g><path class="cls-55" d="M533,252.65h-4.54a.76.76,0,0,1-.76-.76V238.31a.76.76,0,0,1,.76-.76H533a.77.77,0,0,1,.76.76v13.58a.77.77,0,0,1-.76.76"/><path class="cls-23" d="M533.82,252.65h-4.54a.76.76,0,0,1-.76-.76V238.31a.76.76,0,0,1,.76-.76h4.54a.76.76,0,0,1,.76.76v13.58a.76.76,0,0,1-.76.76"/><path class="cls-58" d="M535.37,250.85h-4.54a.76.76,0,0,1-.76-.76v-10a.76.76,0,0,1,.76-.76h4.54a.76.76,0,0,1,.76.76v10a.76.76,0,0,1-.76.76"/><path class="cls-23" d="M535.43,246a.51.51,0,0,1-.51-.51v-2.43a2.84,2.84,0,0,0-.1-.72.52.52,0,0,1,.34-.64.51.51,0,0,1,.63.35,3.38,3.38,0,0,1,.15,1v2.43a.51.51,0,0,1-.51.51"/><path class="cls-23" d="M534.71,241.63a.51.51,0,0,1-.39-.18,2.41,2.41,0,0,0-.74-.6.51.51,0,1,1,.48-.89,3.38,3.38,0,0,1,1,.84.5.5,0,0,1-.06.71.47.47,0,0,1-.33.12"/><g class="cls-6"><g class="cls-59"><path class="cls-14" d="M534.28,249.62h0a3,3,0,0,1-3-3v-5.45a3,3,0,0,1,.34-1.39,3,3,0,0,0-1.52,2.63v5.44a3,3,0,0,0,5.72,1.39,3,3,0,0,1-1.51.41"/></g></g><path class="cls-20" d="M514.06,246l-5.33.25a.89.89,0,0,1-.93-.85l-.86-18.08a.88.88,0,0,1,.84-.93l5.33-.26a.9.9,0,0,1,.94.85l.86,18.08a.9.9,0,0,1-.85.94"/><g class="cls-6"><g class="cls-60"><path class="cls-14" d="M514.53,243.86l-1.78.08A2.68,2.68,0,0,1,510,241.4l-.7-14.53a3.39,3.39,0,0,1,0-.55,2.67,2.67,0,0,0-2.28,2.76l.69,14.52a2.68,2.68,0,0,0,2.8,2.54l1.78-.08a2.69,2.69,0,0,0,2.51-2.24l-.27,0"/></g></g><path class="cls-21" d="M510.38,246.4a2.9,2.9,0,0,1-2-.76,2.93,2.93,0,0,1-1-2l-.69-14.53a2.85,2.85,0,0,1,.76-2.1,2.89,2.89,0,0,1,2-1l1.78-.09a2.94,2.94,0,0,1,3.06,2.79l.69,14.52a2.92,2.92,0,0,1-2.78,3.06l-1.78.09h-.14m1.9-.59v0a2.41,2.41,0,0,0,2.29-2.53l-.69-14.53a2.38,2.38,0,0,0-.79-1.67,2.42,2.42,0,0,0-1.74-.63l-1.78.09a2.43,2.43,0,0,0-2.3,2.53l.7,14.52a2.43,2.43,0,0,0,2.53,2.3Z"/><path class="cls-20" d="M515.78,284.57l-5.33.35a.89.89,0,0,1-.95-.83L508.31,266a.89.89,0,0,1,.83-.95l5.33-.35a.89.89,0,0,1,.95.83l1.19,18.06a.9.9,0,0,1-.83.95"/><g class="cls-6"><g class="cls-61"><path class="cls-14" d="M516.21,282.44l-1.78.12a2.69,2.69,0,0,1-2.84-2.49l-1-14.52a3.37,3.37,0,0,1,0-.55,2.68,2.68,0,0,0-2.22,2.8l1,14.51a2.67,2.67,0,0,0,2.84,2.49l1.77-.12a2.67,2.67,0,0,0,2.47-2.29l-.26.05"/></g></g><path class="cls-21" d="M512.05,285.06a2.93,2.93,0,0,1-2.92-2.73l-1-14.51a2.94,2.94,0,0,1,.72-2.12,2.9,2.9,0,0,1,2-1l1.78-.12a2.91,2.91,0,0,1,3.11,2.72l1,14.52a3,3,0,0,1-2.73,3.11l-1.78.12h-.19m.82-20h-.16l-1.78.11a2.43,2.43,0,0,0-1.65.82,2.41,2.41,0,0,0-.6,1.75l1,14.52a2.35,2.35,0,0,0,.82,1.65,2.41,2.41,0,0,0,1.75.6l1.78-.12a2.35,2.35,0,0,0,1.65-.82,2.41,2.41,0,0,0,.6-1.75l-1-14.51a2.42,2.42,0,0,0-2.41-2.26"/><path class="cls-23" d="M477.56,299.16s-3.7,15.19,6.67,17H535s13.59,0,14.45-8.52c0,0,4-15.57-17.16-16.55l.05,8.89Z"/><g class="cls-6"><g class="cls-62"><path class="cls-14" d="M532.33,295.61l0-4.48h0l0,4.48Z"/><path class="cls-14" d="M549.44,303.27c-.86,8.53-14.45,8.52-14.45,8.52H484.23c-5.13-.91-6.81-5.09-7.21-9.08-.4,4.61.07,12.21,7.21,13.49H535s13.59,0,14.45-8.52a14,14,0,0,0,.13-5.07c-.07.42-.13.66-.13.66"/></g></g></g></g></g></svg>