<svg xmlns="http://www.w3.org/2000/svg" viewBox="0 0 23.13 27.42"><g id="圖層_2" data-name="圖層 2"><g id="圖層_1-2" data-name="圖層 1"><g id="_001-placeholder" data-name=" 001-placeholder"><path id="Path_1716" data-name="Path 1716" d="M11.57,0C5.74,0,0,3.64,0,9.14c0,4.22,3.48,7.42,7.59,8.6l3,8.94a1.07,1.07,0,0,0,1.36.68,1,1,0,0,0,.67-.68l3-8.94c4.13-1.19,7.59-4.39,7.59-8.6C23.13,3.62,17.37,0,11.57,0Zm2.88,15.81a1,1,0,0,0-.76.7l-2.12,6.42L9.44,16.51a1,1,0,0,0-.76-.7C5.32,15,2.14,12.55,2.14,9.14c0-4.23,4.79-7,9.43-7S21,4.84,21,9.14c0,3.4-3.17,5.86-6.53,6.67ZM11.57,5.93a3.22,3.22,0,1,0,3.21,3.21A3.22,3.22,0,0,0,11.57,5.93Zm0,4.29a1.08,1.08,0,1,1,1.07-1.08h0A1.08,1.08,0,0,1,11.57,10.22Z"/></g></g></g></svg>