<svg xmlns="http://www.w3.org/2000/svg" viewBox="0 0 21 42"><defs><style>.cls-1{fill:#cb997e;}.cls-2{fill:#fff;}</style></defs><g id="圖層_2" data-name="圖層 2"><g id="圖層_1-2" data-name="圖層 1"><g id="Subtraction_1" data-name="Subtraction 1"><path class="cls-1" d="M20.5,41.49a20.5,20.5,0,0,1-14-35,20.36,20.36,0,0,1,14-6Z"/><path class="cls-1" d="M20,41V1A20,20,0,0,0,6.86,35.14,19.89,19.89,0,0,0,20,41m1,1h0A21,21,0,0,1,0,21,21,21,0,0,1,21,0Z"/></g><g id="箭頭"><g id="Path_1862" data-name="Path 1862"><rect class="cls-2" x="5.63" y="20.59" width="10.93" height="2"/></g><g id="Path_1848" data-name="Path 1848"><rect class="cls-2" x="3.28" y="18.08" width="7.89" height="2" transform="translate(-11.59 11.2) rotate(-46.52)"/></g><g id="Line_55" data-name="Line 55"><rect class="cls-2" x="6.23" y="20.05" width="2" height="7.68" transform="translate(-14.77 12.1) rotate(-45)"/></g></g></g></g></svg>