<svg xmlns="http://www.w3.org/2000/svg" viewBox="0 0 23.14 23.15"><g id="圖層_2" data-name="圖層 2"><g id="圖層_1-2" data-name="圖層 1"><g id="_008-search" data-name=" 008-search"><path id="Path_1720" data-name="Path 1720" d="M22.35,18.52l-4.18-4.18a2.7,2.7,0,0,0-3.08-.53l-1.44-1.44a7.64,7.64,0,1,0-1.28,1.28l1.44,1.44a2.68,2.68,0,0,0,.53,3.08l4.18,4.18a2.71,2.71,0,1,0,3.83-3.83Zm-14.7-5a5.83,5.83,0,1,1,5.83-5.83h0a5.83,5.83,0,0,1-5.83,5.83Zm13.43,7.6a.9.9,0,0,1-1.27,0h0l-4.18-4.19a.9.9,0,0,1,1.27-1.28h0l4.19,4.19a.9.9,0,0,1,0,1.27Z"/></g></g></g></svg>