<svg xmlns="http://www.w3.org/2000/svg" viewBox="0 0 23.14 23.68"><g id="圖層_2" data-name="圖層 2"><g id="圖層_1-2" data-name="圖層 1"><g id="_009-share" data-name=" 009-share"><path id="Path_1721" data-name="Path 1721" d="M23,17a2.93,2.93,0,0,0-.93-1.48A10.83,10.83,0,0,0,17.9,4.05a.92.92,0,0,0-1.08,1.5h0a9,9,0,0,1,3.54,9.31,2.95,2.95,0,0,0-1.67,5.49h0a3,3,0,0,0,4-1.08A2.93,2.93,0,0,0,23,17Zm-1.9,1.31a1.09,1.09,0,0,1-1.5.4h0a1.08,1.08,0,0,1-.4-1.49h0a1.1,1.1,0,1,1,1.9,1.1ZM1.59,12.8h.09A.93.93,0,0,0,2.6,12a9,9,0,0,1,6.33-7.7A2.94,2.94,0,1,0,10.24.31a3,3,0,0,0-1.58,2.1A10.88,10.88,0,0,0,.75,11.79.94.94,0,0,0,1.59,12.8Zm10-11A1.1,1.1,0,1,1,10.47,3a1.1,1.1,0,0,1,1.1-1.1ZM15.29,21a9,9,0,0,1-9.86-1.6A3,3,0,1,0,4,20.58a10.9,10.9,0,0,0,12.1,2.14A.93.93,0,0,0,15.34,21ZM4,18.09a1.09,1.09,0,0,1-1.35.77A1.11,1.11,0,0,1,2,18.35a1.08,1.08,0,0,1,.4-1.49h0a1.12,1.12,0,0,1,1.51.4,1.05,1.05,0,0,1,.11.83Z"/></g></g></g></svg>