<svg xmlns="http://www.w3.org/2000/svg" viewBox="0 0 23.14 23.14"><g id="圖層_2" data-name="圖層 2"><g id="圖層_1-2" data-name="圖層 1"><g id="_010-clock" data-name=" 010-clock"><path id="Path_1722" data-name="Path 1722" d="M12.47,20.43v1.8a.9.9,0,1,1-1.8,0v-1.8a.9.9,0,1,1,1.8,0Zm-7.8-17A.91.91,0,0,0,3.39,4.67h0L4.67,6A.91.91,0,1,0,6,4.67Zm13.8,13.8a.91.91,0,1,0-1.28,1.28l1.28,1.28a.91.91,0,0,0,1.28-1.28ZM3.62,11.57a.9.9,0,0,0-.9-.9H.9a.91.91,0,0,0,0,1.81H2.71a.9.9,0,0,0,.91-.9Zm1,5.62L3.39,18.47a.91.91,0,0,0,1.28,1.28L6,18.47a.91.91,0,1,0-1.28-1.28ZM18.47,6l1.28-1.28a.91.91,0,0,0-1.28-1.28h0L17.19,4.67A.91.91,0,1,0,18.47,6Zm3.76,4.72H12.47V.9a.9.9,0,1,0-1.8,0V11.57a.9.9,0,0,0,.9.9H22.23a.91.91,0,1,0,0-1.81Z"/></g></g></g></svg>