<svg xmlns="http://www.w3.org/2000/svg" viewBox="0 0 25.83 25.86"><g id="圖層_2" data-name="圖層 2"><g id="圖層_1-2" data-name="圖層 1"><g id="_013-skype" data-name=" 013-skype"><path id="Path_1823" data-name="Path 1823" d="M24.24,13.64c0-.24,0-.48,0-.72A11.38,11.38,0,0,0,12.91,1.52l-.72,0A7.6,7.6,0,0,0,1.54,12.19c0,.24,0,.49,0,.73a11.43,11.43,0,0,0,11.4,11.4c.24,0,.49,0,.73,0a7.58,7.58,0,0,0,10.6-10.65Zm-6,10.68a6.17,6.17,0,0,1-4.09-1.58c-.21,0-.61.06-1.21.06A9.89,9.89,0,0,1,3,12.92c0-.6.05-1,.06-1.2a6.22,6.22,0,0,1-1.58-4.1,6.09,6.09,0,0,1,6.06-6.1A6.22,6.22,0,0,1,11.71,3.1c.2,0,.6-.07,1.2-.07a9.88,9.88,0,0,1,9.84,9.89,10.46,10.46,0,0,1-.07,1.2,6.27,6.27,0,0,1,1.63,4.09,6.1,6.1,0,0,1-6.1,6.1Z"/><path id="Path_1824" data-name="Path 1824" d="M12.91,10.65A3.63,3.63,0,0,1,11,10.14a1.42,1.42,0,0,1-.3-.25,1.81,1.81,0,0,1,.3-.25,4,4,0,0,1,4.2.23,1.94,1.94,0,0,0,1.8.78,2.21,2.21,0,0,0,2.21-2.22,2.27,2.27,0,0,0-.47-1.37C16.39,4.16,11.21,4,8.4,5.86a4.64,4.64,0,0,0-1.74,6.32A4.69,4.69,0,0,0,8.4,13.92a8.46,8.46,0,0,0,4.52,1.27,3.64,3.64,0,0,1,1.95.5,1.32,1.32,0,0,1,.28.25,1.16,1.16,0,0,1-.29.25A4.1,4.1,0,0,1,10.62,16a2.32,2.32,0,0,0-3.28-.19,2.42,2.42,0,0,0-.52.67,2.19,2.19,0,0,0,.26,2.33,7.48,7.48,0,0,0,5.84,2.47A8.09,8.09,0,0,0,17.38,20a4.88,4.88,0,0,0,2.35-4c0-2.74-2.72-5.3-6.81-5.3Zm3.63,8.06a6.54,6.54,0,0,1-3.63,1,6,6,0,0,1-4.65-1.9.67.67,0,0,1-.08-.73.82.82,0,0,1,1.13-.28.71.71,0,0,1,.14.1c1.06,1.3,4.35,1.81,6.25.54a1.65,1.65,0,0,0,0-3,5.25,5.25,0,0,0-2.79-.76,6.74,6.74,0,0,1-3.68-1,3.14,3.14,0,0,1,0-5.54c2.2-1.47,6.5-1.36,8.28.88a.67.67,0,0,1,.08.73.69.69,0,0,1-.63.4c-.38,0-.43,0-.63-.21-1-1.28-4.28-1.83-6.21-.54a1.61,1.61,0,0,0,0,3,5.1,5.1,0,0,0,2.79.76,6.54,6.54,0,0,1,3.63,1,3.14,3.14,0,0,1,1.31,4.23,3.1,3.1,0,0,1-1.31,1.3Z"/></g></g></g></svg>