<svg xmlns="http://www.w3.org/2000/svg" viewBox="0 0 20.82 24.22"><g id="圖層_2" data-name="圖層 2"><g id="圖層_1-2" data-name="圖層 1"><g id="_018-trash" data-name=" 018-trash"><g id="Group_1293" data-name="Group 1293"><g id="Group_1292" data-name="Group 1292"><path id="Path_1809" data-name="Path 1809" d="M19.87,2.78H13.72V1a.94.94,0,0,0-1-.95H8A.94.94,0,0,0,7.1,1V2.78H1a.94.94,0,0,0-.95,1v3.7a1,1,0,0,0,1,1H2.36V21.86a2.37,2.37,0,0,0,2.37,2.36H16.09a2.36,2.36,0,0,0,2.36-2.36V8.38h1.42a1,1,0,0,0,.95-1V3.73A1,1,0,0,0,19.87,2.78ZM9,1.89h2.84v.89H9Zm7.57,20a.47.47,0,0,1-.47.47H4.73a.47.47,0,0,1-.47-.47V8.38h12.3ZM18.92,6.49h-17V4.67h17Z"/></g></g><g id="Group_1295" data-name="Group 1295"><g id="Group_1294" data-name="Group 1294"><path id="Path_1810" data-name="Path 1810" d="M8,9.78a.94.94,0,0,0-.94.94V20A.95.95,0,0,0,9,20V10.72A.94.94,0,0,0,8,9.78Z"/></g></g><g id="Group_1297" data-name="Group 1297"><g id="Group_1296" data-name="Group 1296"><path id="Path_1811" data-name="Path 1811" d="M12.77,9.78a.94.94,0,0,0-.94.94h0V20a.95.95,0,0,0,1.89,0V10.72A.94.94,0,0,0,12.77,9.78Z"/></g></g></g></g></g></svg>