<svg xmlns="http://www.w3.org/2000/svg" viewBox="0 0 18.11 18.11"><g id="圖層_2" data-name="圖層 2"><g id="圖層_1-2" data-name="圖層 1"><g id="_020-download" data-name=" 020-download"><g id="Group_1289" data-name="Group 1289"><g id="Group_1288" data-name="Group 1288"><path id="Path_1807" data-name="Path 1807" d="M17.4,11.46a.71.71,0,0,0-.71.71h0v4.19a.33.33,0,0,1-.33.33H1.75a.34.34,0,0,1-.34-.33h0V12.17a.7.7,0,0,0-.7-.71.71.71,0,0,0-.71.71v4.19a1.76,1.76,0,0,0,1.75,1.75H16.36a1.76,1.76,0,0,0,1.75-1.75V12.17A.71.71,0,0,0,17.4,11.46Z"/></g></g><g id="Group_1291" data-name="Group 1291"><g id="Group_1290" data-name="Group 1290"><path id="Path_1808" data-name="Path 1808" d="M14.9,8.77a.7.7,0,0,0-.65-.42H11.84V.71A.71.71,0,0,0,11.13,0H7a.71.71,0,0,0-.71.71h0V8.35H3.86a.7.7,0,0,0-.71.7.73.73,0,0,0,.19.49L8.54,15a.7.7,0,0,0,1,0l0,0,5.19-5.5A.71.71,0,0,0,14.9,8.77ZM9.05,13.53,5.5,9.76H7a.7.7,0,0,0,.7-.71h0V1.42h2.74V9.05a.71.71,0,0,0,.71.71h1.48Z"/></g></g></g></g></g></svg>