<svg xmlns="http://www.w3.org/2000/svg" viewBox="0 0 26.96 26.96"><g id="圖層_2" data-name="圖層 2"><g id="圖層_1-2" data-name="圖層 1"><path id="_021-facebook" data-name=" 021-facebook" d="M4,27h8.79V17.37H9.58V14.22h3.16v-4a4,4,0,0,1,4-3.95h3.95V9.48H17.48a1.58,1.58,0,0,0-1.58,1.58v3.16h4.6L20,17.37H15.9V27H23A4,4,0,0,0,27,23V4A4,4,0,0,0,23,0H4A4,4,0,0,0,0,4V23A4,4,0,0,0,4,27ZM1.58,4A2.37,2.37,0,0,1,4,1.58H23A2.38,2.38,0,0,1,25.38,4V23A2.39,2.39,0,0,1,23,25.38H17.48V19h3.83l1.05-6.32H17.48V11.06h4.74V4.74H16.69a5.54,5.54,0,0,0-5.53,5.53v2.37H8V19h3.16v6.43H4A2.38,2.38,0,0,1,1.58,23Z"/></g></g></svg>