<svg xmlns="http://www.w3.org/2000/svg" viewBox="0 0 15.57 15.56"><g id="圖層_2" data-name="圖層 2"><g id="圖層_1-2" data-name="圖層 1"><g id="_023-refresh" data-name=" 023-refresh"><g id="Group_1280" data-name="Group 1280"><g id="Group_1279" data-name="Group 1279"><path id="Path_1802" data-name="Path 1802" d="M15,2.15a.61.61,0,0,0-.66.55h0l-.08.88A7.68,7.68,0,0,0,3.69,1.18a7.79,7.79,0,0,0-2.77,3A.61.61,0,0,0,2,4.78a6.46,6.46,0,0,1,11.24-.54l-.87-.62a.61.61,0,0,0-.7,1L14.3,6.49a.62.62,0,0,0,.85-.14.55.55,0,0,0,.11-.3l.3-3.24A.61.61,0,0,0,15,2.15Z"/></g></g><g id="Group_1282" data-name="Group 1282"><g id="Group_1281" data-name="Group 1281"><path id="Path_1803" data-name="Path 1803" d="M14.38,10.53a.6.6,0,0,0-.82.26h0a6.47,6.47,0,0,1-8.68,2.87,6.56,6.56,0,0,1-2.57-2.33l.87.62a.61.61,0,0,0,.71-1L1.26,9.08a.62.62,0,0,0-.85.14.64.64,0,0,0-.11.3L0,12.75a.61.61,0,0,0,.56.66.6.6,0,0,0,.65-.55L1.29,12a7.68,7.68,0,0,0,10.59,2.4,7.77,7.77,0,0,0,2.76-3A.61.61,0,0,0,14.38,10.53Z"/></g></g></g></g></g></svg>