<svg xmlns="http://www.w3.org/2000/svg" viewBox="0 0 26.96 26.96"><g id="圖層_2" data-name="圖層 2"><g id="圖層_1-2" data-name="圖層 1"><g id="_025-instagram" data-name=" 025-instagram"><path id="Path_1825" data-name="Path 1825" d="M4,27H23A4,4,0,0,0,27,23V4A4,4,0,0,0,23,0H4A4,4,0,0,0,0,4V23A4,4,0,0,0,4,27ZM1.58,4A2.37,2.37,0,0,1,4,1.58H23A2.38,2.38,0,0,1,25.38,4V23A2.39,2.39,0,0,1,23,25.38H4A2.38,2.38,0,0,1,1.58,23Z"/><path id="Path_1826" data-name="Path 1826" d="M13.48,20.58a7.11,7.11,0,1,0-7.11-7.1h0A7.1,7.1,0,0,0,13.48,20.58ZM13.48,8A5.53,5.53,0,1,1,8,13.48,5.53,5.53,0,0,1,13.48,8Z"/><path id="Path_1827" data-name="Path 1827" d="M21.38,8A2.37,2.37,0,1,0,19,5.58h0A2.37,2.37,0,0,0,21.38,8Zm0-3.16a.78.78,0,0,1,.78.79.79.79,0,0,1-1.58,0A.8.8,0,0,1,21.38,4.79Z"/></g></g></g></svg>