<svg xmlns="http://www.w3.org/2000/svg" viewBox="0 0 18.87 24.78"><g id="圖層_2" data-name="圖層 2"><g id="圖層_1-2" data-name="圖層 1"><g id="_030-periscope" data-name=" 030-periscope"><path id="Path_1828" data-name="Path 1828" d="M9.44,0A9.46,9.46,0,0,0,0,9.44C0,13.35,4.28,20,6.92,22.93,8.37,24.56,9,24.78,9.44,24.78s1.06-.22,2.51-1.85c2.64-3,6.92-9.58,6.92-13.49A9.44,9.44,0,0,0,9.44,0ZM11.1,21.7a7.87,7.87,0,0,1-1.66,1.6,7.69,7.69,0,0,1-1.67-1.6c-2.56-3-6.32-9-6.32-12.26a8,8,0,1,1,16,0c0,3.24-3.72,9.23-6.32,12.26Z"/><path id="Path_1829" data-name="Path 1829" d="M9.44,2.9A6.54,6.54,0,1,0,16,9.44h0A6.55,6.55,0,0,0,9.44,2.9ZM6.79,5.1A1.45,1.45,0,1,1,5.1,6.79,5.06,5.06,0,0,1,6.79,5.1Zm2.65,9.42A5.08,5.08,0,0,1,4.36,9.43a4.47,4.47,0,0,1,.08-.89,2.9,2.9,0,1,0,4.2-4l-.09-.1a5.08,5.08,0,1,1,.89,10.09Z"/></g></g></g></svg>