<svg xmlns="http://www.w3.org/2000/svg" viewBox="0 0 23.99 15.7"><g id="圖層_2" data-name="圖層 2"><g id="圖層_1-2" data-name="圖層 1"><g id="_039-cloud_computing" data-name=" 039-cloud computing"><g id="Group_1256" data-name="Group 1256"><path id="Path_1791" data-name="Path 1791" d="M18.52,4.61H17.33a7.84,7.84,0,0,0-14.58.75A5.55,5.55,0,0,0,5.54,15.7h13a5.55,5.55,0,0,0,0-11.09Zm0,9.21h-13a3.67,3.67,0,0,1-1.6-7,.93.93,0,0,0,.5-.6,6,6,0,0,1,11.37-.4.94.94,0,0,0,.89.63h1.82a3.67,3.67,0,0,1,0,7.33Z"/></g></g></g></g></svg>