<svg xmlns="http://www.w3.org/2000/svg" viewBox="0 0 18.97 18.97"><g id="圖層_2" data-name="圖層 2"><g id="圖層_1-2" data-name="圖層 1"><g id="_041-resize" data-name=" 041-resize"><g id="Group_1253" data-name="Group 1253"><g id="Group_1252" data-name="Group 1252"><path id="Path_1789" data-name="Path 1789" d="M18.23,0H12.75a.74.74,0,0,0,0,1.48h3.69L10.5,7.42a.74.74,0,0,0,1.05,1.05l5.94-5.94V6.22a.73.73,0,0,0,.73.74A.75.75,0,0,0,19,6.22h0V.74A.74.74,0,0,0,18.23,0Z"/></g></g><g id="Group_1255" data-name="Group 1255"><g id="Group_1254" data-name="Group 1254"><path id="Path_1790" data-name="Path 1790" d="M8.47,10.5a.74.74,0,0,0-1.05,0h0L1.48,16.44V12.75a.74.74,0,0,0-1.48,0v5.48A.74.74,0,0,0,.74,19H6.22a.74.74,0,1,0,0-1.48H2.53l5.94-5.94a.74.74,0,0,0,0-1.05Z"/></g></g></g></g></g></svg>