<svg xmlns="http://www.w3.org/2000/svg" viewBox="0 0 21.17 17.33"><g id="圖層_2" data-name="圖層 2"><g id="圖層_1-2" data-name="圖層 1"><path id="_043-twitter" data-name=" 043-twitter" d="M21.17,2.31l-1.45.07L20.5.13S18,1,17.41,1.2A4.92,4.92,0,0,0,11.6.73,4.05,4.05,0,0,0,9.66,4.87,10.72,10.72,0,0,1,2.7,1L2.12.25l-.44.8a4.87,4.87,0,0,0-.51,3.26,4.75,4.75,0,0,0,.45,1.28l-.5-.2-.06.84a4.46,4.46,0,0,0,.76,2.65,4.19,4.19,0,0,0,.59.73l-.26,0,.32,1a4.62,4.62,0,0,0,2.4,2.78c-1.12.47-2,.78-3.5,1.26L0,15l1.25.69a13.52,13.52,0,0,0,3.84,1.4c3.71.58,7.89.1,10.7-2.43,2.37-2.13,3.15-5.17,3-8.33a2,2,0,0,1,.37-1.28c.52-.7,2-2.75,2-2.75Zm-3,2a3.22,3.22,0,0,0-.62,2.09c.16,3.19-.7,5.66-2.57,7.35-2.19,2-5.72,2.74-9.69,2.12a9.32,9.32,0,0,1-2.07-.62A32.25,32.25,0,0,0,7,13.72l2.16-1-2.39-.15A3.41,3.41,0,0,1,4.05,11,4.77,4.77,0,0,0,5,10.86l2.28-.64L5,9.66A3.45,3.45,0,0,1,2.85,8.2a3.61,3.61,0,0,1-.45-1,5,5,0,0,0,.93.15l2.13.21L3.78,6.25A3.54,3.54,0,0,1,2.43,2.5a12.32,12.32,0,0,0,8.7,3.74,7.21,7.21,0,0,0-.13-1,2.85,2.85,0,0,1,1.25-3.41,3.7,3.7,0,0,1,4.37.36,1.09,1.09,0,0,0,1,.27c.28-.07.56-.15.84-.25l-.54,1.52h.69l-.47.63Z"/></g></g></svg>