<svg xmlns="http://www.w3.org/2000/svg" viewBox="0 0 23.13 19.44"><g id="圖層_2" data-name="圖層 2"><g id="圖層_1-2" data-name="圖層 1"><g id="_044-chat" data-name=" 044-chat"><g id="Group_1245" data-name="Group 1245"><g id="Group_1244" data-name="Group 1244"><path id="Path_1788" data-name="Path 1788" d="M20.9,0H2.23A2.24,2.24,0,0,0,0,2.26V13.07a2.24,2.24,0,0,0,2.23,2.26H4v3.2a.9.9,0,0,0,1.54.64L9.4,15.33H20.9a2.24,2.24,0,0,0,2.23-2.26V2.26A2.24,2.24,0,0,0,20.9,0Zm.42,13.07a.44.44,0,0,1-.42.45H9a.86.86,0,0,0-.63.26L5.83,16.34V14.42a.9.9,0,0,0-.9-.9H2.23a.42.42,0,0,1-.42-.45V2.26a.44.44,0,0,1,.42-.45H20.9a.44.44,0,0,1,.42.45Z"/></g></g><g id="Group_1247" data-name="Group 1247"><g id="Group_1246" data-name="Group 1246"><circle id="Ellipse_63" data-name="Ellipse 63" cx="11.57" cy="7.66" r="1.22"/></g></g><g id="Group_1249" data-name="Group 1249"><g id="Group_1248" data-name="Group 1248"><circle id="Ellipse_64" data-name="Ellipse 64" cx="6.26" cy="7.66" r="1.22"/></g></g><g id="Group_1251" data-name="Group 1251"><g id="Group_1250" data-name="Group 1250"><circle id="Ellipse_65" data-name="Ellipse 65" cx="16.88" cy="7.66" r="1.22"/></g></g></g></g></g></svg>