<svg xmlns="http://www.w3.org/2000/svg" viewBox="0 0 19.36 26.08"><g id="圖層_2" data-name="圖層 2"><g id="圖層_1-2" data-name="圖層 1"><g id="_046-notification" data-name=" 046-notification"><g id="Group_1229" data-name="Group 1229"><path id="Path_1786" data-name="Path 1786" d="M19.19,21.46l-2.47-3.74V9.3a7.21,7.21,0,0,0-6-7.18V1a1,1,0,1,0-2,0v1.1a7.19,7.19,0,0,0-6,7.18v8.42L.17,21.46a1,1,0,0,0,.29,1.41A1,1,0,0,0,1,23H5.85a3.93,3.93,0,0,0,7.66,0h4.83a1,1,0,0,0,1-1,1,1,0,0,0-.17-.56ZM9.68,24.05A1.9,1.9,0,0,1,8,23h3.31A1.93,1.93,0,0,1,9.68,24.05ZM2.92,21l1.6-2.41A1,1,0,0,0,4.69,18V9.3a5,5,0,1,1,10-.4V18a1,1,0,0,0,.17.56L16.45,21Z"/></g></g></g></g></svg>