<svg xmlns="http://www.w3.org/2000/svg" viewBox="0 0 23.6 21.2"><g id="圖層_2" data-name="圖層 2"><g id="圖層_1-2" data-name="圖層 1"><g id="_048-like" data-name=" 048-like"><g id="Group_1228" data-name="Group 1228"><path id="Path_1785" data-name="Path 1785" d="M23.09,7.27a2.22,2.22,0,0,0-1.77-.86H17.24l1-3.45A2.29,2.29,0,0,0,16,0a2.24,2.24,0,0,0-1.72.81L9.7,6.25a.45.45,0,0,1-.32.16H7.26V6A.93.93,0,0,0,6.33,5H.92A.92.92,0,0,0,0,5.94V20.28a.92.92,0,0,0,.92.92H6.34a.92.92,0,0,0,.92-.92h0v-.46h12a2.29,2.29,0,0,0,2.21-1.77l2.09-8.79A2.3,2.3,0,0,0,23.09,7.27ZM5.41,19.36H1.84V6.87H5.41ZM21.74,8.83l-2.1,8.79a.43.43,0,0,1-.42.35h-12V8.25H9.38a2.25,2.25,0,0,0,1.72-.8L15.71,2a.44.44,0,0,1,.63,0,.45.45,0,0,1,.11.48L15.38,6.19a1.6,1.6,0,0,0,1.54,2.06h4.4a.4.4,0,0,1,.33.17A.5.5,0,0,1,21.74,8.83Z"/></g></g></g></g></svg>