<svg xmlns="http://www.w3.org/2000/svg" viewBox="0 0 23.6 23.6"><g id="圖層_2" data-name="圖層 2"><g id="圖層_1-2" data-name="圖層 1"><g id="_051-earth_grid" data-name=" 051-earth grid"><g id="Group_1225" data-name="Group 1225"><path id="Path_1782" data-name="Path 1782" d="M11.8,0A11.8,11.8,0,1,0,23.6,11.8h0A11.79,11.79,0,0,0,11.82,0ZM20,6.17a24.82,24.82,0,0,1-3.09.61,26.4,26.4,0,0,0-.78-3.94A9.89,9.89,0,0,1,20,6.17ZM9.64,2.08a10.15,10.15,0,0,1,4.32,0A23,23,0,0,1,15.09,7,40.16,40.16,0,0,1,8.51,7,22.43,22.43,0,0,1,9.64,2.08Zm-7,13.69a10,10,0,0,1,0-7.94,27.55,27.55,0,0,0,3.82.79,39.72,39.72,0,0,0,0,6.36A27.55,27.55,0,0,0,2.67,15.77Zm.92,1.66a24.49,24.49,0,0,1,3.09-.62,26.28,26.28,0,0,0,.78,4,10.05,10.05,0,0,1-3.87-3.33ZM6.68,6.78a24.47,24.47,0,0,1-3.09-.61A9.89,9.89,0,0,1,7.46,2.84,26.4,26.4,0,0,0,6.68,6.78ZM14,21.52a10.2,10.2,0,0,1-4.33,0,23,23,0,0,1-1.12-4.91,40.16,40.16,0,0,1,6.58,0A23,23,0,0,1,14,21.52Zm1.32-6.74a40.44,40.44,0,0,0-7,0,39.52,39.52,0,0,1,0-6,40.44,40.44,0,0,0,7,0,39.52,39.52,0,0,1,0,6Zm.86,6a29,29,0,0,0,.78-4,25.22,25.22,0,0,1,3.09.62,10.05,10.05,0,0,1-3.87,3.33Zm1-5.78a42.19,42.19,0,0,0,0-6.36,29.09,29.09,0,0,0,3.82-.79,10,10,0,0,1,0,7.94A26.16,26.16,0,0,0,17.11,15Z"/></g></g></g></g></svg>