<svg xmlns="http://www.w3.org/2000/svg" viewBox="0 0 16.65 25.08"><g id="圖層_2" data-name="圖層 2"><g id="圖層_1-2" data-name="圖層 1"><g id="_053-smartphone" data-name=" 053-smartphone"><g id="Group_1219" data-name="Group 1219"><g id="Group_1218" data-name="Group 1218"><path id="Path_1778" data-name="Path 1778" d="M14.21,0H2.45A2.45,2.45,0,0,0,0,2.45V22.63a2.45,2.45,0,0,0,2.45,2.45H14.21a2.45,2.45,0,0,0,2.44-2.45V2.45A2.45,2.45,0,0,0,14.21,0Zm.49,22.63a.49.49,0,0,1-.49.49H2.45A.49.49,0,0,1,2,22.63V2.45A.49.49,0,0,1,2.45,2H14.21a.49.49,0,0,1,.49.49Z"/></g></g><g id="Group_1221" data-name="Group 1221"><g id="Group_1220" data-name="Group 1220"><path id="Path_1779" data-name="Path 1779" d="M12.74,2.94H3.92a1,1,0,0,0-1,1V18.71a1,1,0,0,0,1,1h8.82a1,1,0,0,0,1-1V3.92A1,1,0,0,0,12.74,2.94Zm-1,14.79H4.9V4.9h6.86Z"/></g></g><g id="Group_1223" data-name="Group 1223"><g id="Group_1222" data-name="Group 1222"><path id="Path_1780" data-name="Path 1780" d="M9.31,20.42h-2a1,1,0,0,0-1,.95,1,1,0,0,0,1,1h2a1,1,0,0,0,1-.94,1,1,0,0,0-1-1Z"/></g></g></g></g></g></svg>