<svg xmlns="http://www.w3.org/2000/svg" viewBox="0 0 22.9 22.9"><g id="圖層_2" data-name="圖層 2"><g id="圖層_1-2" data-name="圖層 1"><g id="_056-diskette" data-name=" 056-diskette"><g id="Group_1217" data-name="Group 1217"><path id="Path_1777" data-name="Path 1777" d="M22.64,6.46,16.44.26A.86.86,0,0,0,15.81,0H.89A.89.89,0,0,0,0,.89V22a.89.89,0,0,0,.89.89H22A.89.89,0,0,0,22.9,22V7.09A.86.86,0,0,0,22.64,6.46ZM17.13,21.11H5.78V12.35H17.13Zm4,0h-2.2V11.45a.89.89,0,0,0-.89-.89H4.88a.89.89,0,0,0-.89.89v9.66H1.79V1.79H15.44l5.67,5.67Z"/></g></g></g></g></svg>