<svg xmlns="http://www.w3.org/2000/svg" viewBox="0 0 23.17 27.6"><g id="圖層_2" data-name="圖層 2"><g id="圖層_1-2" data-name="圖層 1"><g id="_059-logout" data-name=" 059-logout"><g id="Group_1204" data-name="Group 1204"><g id="Group_1203" data-name="Group 1203"><path id="Path_1771" data-name="Path 1771" d="M17.21,6.53a1.07,1.07,0,0,0,1.07-1.08V2.66A2.67,2.67,0,0,0,15.59,0H2.69A2.67,2.67,0,0,0,0,2.66V24.93A2.68,2.68,0,0,0,2.69,27.6h12.9a2.67,2.67,0,0,0,2.69-2.66v-2.8a1.08,1.08,0,1,0-2.15,0v2.79a.53.53,0,0,1-.54.51H2.69a.51.51,0,0,1-.53-.51V2.66a.5.5,0,0,1,.53-.5h12.9a.52.52,0,0,1,.54.5V5.45A1.07,1.07,0,0,0,17.2,6.53Z"/></g></g><g id="Group_1206" data-name="Group 1206"><g id="Group_1205" data-name="Group 1205"><path id="Path_1772" data-name="Path 1772" d="M22.85,13l-5.74-5.6a1.08,1.08,0,0,0-1.52.06,1.05,1.05,0,0,0,0,1.48l3.84,3.75H9.14a1.08,1.08,0,0,0,0,2.16H19.45l-3.84,3.74a1.08,1.08,0,0,0-.06,1.52,1.09,1.09,0,0,0,1.53.06l0,0,5.74-5.59a1.09,1.09,0,0,0,0-1.53Z"/></g></g></g></g></g></svg>