<svg xmlns="http://www.w3.org/2000/svg" viewBox="0 0 23.59 23.59"><g id="圖層_2" data-name="圖層 2"><g id="圖層_1-2" data-name="圖層 1"><g id="_060-pencil" data-name=" 060-pencil"><g id="Group_1202" data-name="Group 1202"><path id="Path_1770" data-name="Path 1770" d="M22.1,1.5a5.11,5.11,0,0,0-7.23,0L.27,16.09a.91.91,0,0,0-.27.64H0v5.93a.92.92,0,0,0,.92.92H6.85a.91.91,0,0,0,.65-.27L22.1,8.72A5.11,5.11,0,0,0,22.1,1.5ZM1.84,21.75V19l2.79,2.78Zm5-.38L2.22,16.74,13.74,5.22,15.4,6.88,9.21,13.07a.92.92,0,0,0,1.3,1.3L16.7,8.18l1.66,1.66Zm14-13.95L19.67,8.54,15.05,3.92,16.17,2.8A3.27,3.27,0,1,1,20.8,7.42Z"/></g></g></g></g></svg>