<svg xmlns="http://www.w3.org/2000/svg" viewBox="0 0 20.53 14.33"><g id="圖層_2" data-name="圖層 2"><g id="圖層_1-2" data-name="圖層 1"><g id="_062-menu" data-name=" 062-menu"><g id="Group_1197" data-name="Group 1197"><g id="Group_1196" data-name="Group 1196"><path id="Path_1767" data-name="Path 1767" d="M19.65,6.37H.88A.8.8,0,0,0,.88,8H19.65a.8.8,0,0,0,0-1.59Z"/></g></g><g id="Group_1199" data-name="Group 1199"><g id="Group_1198" data-name="Group 1198"><path id="Path_1768" data-name="Path 1768" d="M19.65,0H.88A.82.82,0,0,0,0,.72a.82.82,0,0,0,.72.88H19.65a.81.81,0,0,0,.88-.72A.8.8,0,0,0,19.82,0Z"/></g></g><g id="Group_1201" data-name="Group 1201"><g id="Group_1200" data-name="Group 1200"><path id="Path_1769" data-name="Path 1769" d="M19.65,12.73H.88a.8.8,0,0,0-.88.71.81.81,0,0,0,.72.88H19.65a.8.8,0,1,0,.17-1.59Z"/></g></g></g></g></g></svg>