<svg xmlns="http://www.w3.org/2000/svg" viewBox="0 0 24.52 22.61"><g id="圖層_2" data-name="圖層 2"><g id="圖層_1-2" data-name="圖層 1"><g id="_071-print" data-name=" 071-print"><g id="Group_1183" data-name="Group 1183"><path id="Path_1763" data-name="Path 1763" d="M22.16,4.36H19.55V1a1,1,0,0,0-1-1H5.93A1,1,0,0,0,5,1H5v3.4H2.37A2.38,2.38,0,0,0,0,6.75v9.1a2.38,2.38,0,0,0,2.37,2.4H5v3.4a1,1,0,0,0,1,1H18.59a1,1,0,0,0,1-1h0v-3.4h2.61a2.38,2.38,0,0,0,2.36-2.4V6.75A2.38,2.38,0,0,0,22.16,4.36ZM6.89,1.92H17.63V4.36H6.89Zm0,18.77V13.46H17.63v7.23Zm15.27-4.36H19.55V13.46h.85a1,1,0,0,0,0-1.92H4.12a1,1,0,1,0,0,1.92H5v2.87H2.37a.46.46,0,0,1-.45-.48V6.75a.47.47,0,0,1,.45-.48H22.16a.48.48,0,0,1,.45.48v9.1h0a.47.47,0,0,1-.45.48Z"/></g></g></g></g></svg>