<svg xmlns="http://www.w3.org/2000/svg" viewBox="0 0 24.52 24.52"><g id="圖層_2" data-name="圖層 2"><g id="圖層_1-2" data-name="圖層 1"><g id="_076-move" data-name=" 076-move"><g id="Group_1170" data-name="Group 1170"><g id="Group_1169" data-name="Group 1169"><path id="Path_1755" data-name="Path 1755" d="M16.48,3.82,12.94.28a1,1,0,0,0-1.36,0L8,3.82A1,1,0,1,0,9.4,5.17l1.9-1.9v7a1,1,0,1,0,1.91,0v-7l1.9,1.9a1,1,0,0,0,1.36-1.35Z"/></g></g><g id="Group_1172" data-name="Group 1172"><g id="Group_1171" data-name="Group 1171"><path id="Path_1756" data-name="Path 1756" d="M16.48,19.35a1,1,0,0,0-1.36,0h0l-1.9,1.9v-7a1,1,0,1,0-1.92,0h0v7l-1.9-1.9a.94.94,0,0,0-1.35,0,1,1,0,0,0,0,1.35h0l3.54,3.54a1,1,0,0,0,1.35,0l3.54-3.54a1,1,0,0,0,0-1.35Z"/></g></g><g id="Group_1174" data-name="Group 1174"><g id="Group_1173" data-name="Group 1173"><path id="Path_1757" data-name="Path 1757" d="M24.24,11.59h0L20.7,8.05a.94.94,0,0,0-1.35,0,1,1,0,0,0,0,1.35h0l1.9,1.9h-7a1,1,0,1,0,0,1.92h7l-1.9,1.9a1,1,0,0,0,0,1.35.94.94,0,0,0,1.35,0l3.54-3.54A1,1,0,0,0,24.24,11.59Z"/></g></g><g id="Group_1176" data-name="Group 1176"><g id="Group_1175" data-name="Group 1175"><path id="Path_1758" data-name="Path 1758" d="M10.27,11.3h-7l1.9-1.9A1,1,0,0,0,3.82,8.05h0L.28,11.58a1,1,0,0,0,0,1.36l3.54,3.54a1,1,0,1,0,1.35-1.36l-1.9-1.9h7a1,1,0,1,0,0-1.92Z"/></g></g></g></g></g></svg>