<svg xmlns="http://www.w3.org/2000/svg" viewBox="0 0 23.13 23.13"><g id="圖層_2" data-name="圖層 2"><g id="圖層_1-2" data-name="圖層 1"><g id="_084-image" data-name=" 084-image"><g id="Group_1160" data-name="Group 1160"><path id="Path_1750" data-name="Path 1750" d="M19.52,0H3.61A3.61,3.61,0,0,0,0,3.61v16a3.56,3.56,0,0,0,3.56,3.56h16a3.56,3.56,0,0,0,3.56-3.56v-16A3.61,3.61,0,0,0,19.52,0Zm1.8,19.52a1.79,1.79,0,0,1-1.8,1.8H3.61a1.8,1.8,0,0,1-1.8-1.8v-.07l5.83-8.66,4.79,7.11a.9.9,0,0,0,1.25.25.85.85,0,0,0,.25-.25l3.17-4.72,4.22,6.27Zm0-3.31-3.47-5.15a.91.91,0,0,0-1.5,0l-3.17,4.71L8.39,8.67a.89.89,0,0,0-1.25-.25.85.85,0,0,0-.25.25L1.81,16.21V3.61a1.81,1.81,0,0,1,1.8-1.8h15.9a1.81,1.81,0,0,1,1.81,1.8Z"/></g></g></g></g></svg>