<?xml version="1.0" encoding="utf-8"?>
<!-- Generator: Adobe Illustrator 25.0.0, SVG Export Plug-In . SVG Version: 6.00 Build 0)  -->
<svg version="1.1" id="Capa_1" xmlns="http://www.w3.org/2000/svg" xmlns:xlink="http://www.w3.org/1999/xlink" x="0px" y="0px"
	 viewBox="0 0 512 512" style="enable-background:new 0 0 512 512;" xml:space="preserve">
<style type="text/css">
	.st0{fill:#ED8F8F;}
</style>
<g>
	<g>
		<path class="st0" d="M432,0H80C35.9,0,0,35.9,0,80c0,10.2,0,346.2,0,352v1.2C0,476.7,35.3,512,78.8,512H80h352h1.2
			c43.4,0,78.8-35.3,78.8-78.8V432c0-5.8,0-341.8,0-352C512,35.9,476.1,0,432,0z M472,432c0,22.1-17.9,40-40,40H80
			c-22.1,0-40-17.9-40-40v-1.6l129.1-191.6l106,157.3c3.7,5.5,9.9,8.8,16.6,8.8c6.7,0,12.9-3.3,16.6-8.8l70.3-104.3L472,430.4V432z
			 M472,358.8l-76.8-114c-3.7-5.5-9.9-8.8-16.6-8.8c-6.7,0-12.9,3.3-16.6,8.8l-70.3,104.3l-106-157.3c-3.7-5.5-9.9-8.8-16.6-8.8
			c-6.7,0-12.9,3.3-16.6,8.8L40,358.8V80c0-22.1,17.9-40,40-40h352c22.1,0,40,17.9,40,40V358.8z"/>
	</g>
</g>
</svg>
