<svg xmlns="http://www.w3.org/2000/svg" viewBox="0 0 23.13 18.98"><g id="圖層_2" data-name="圖層 2"><g id="圖層_1-2" data-name="圖層 1"><g id="_088-shopping_cart" data-name=" 088-shopping cart"><g id="Group_1150" data-name="Group 1150"><g id="Group_1149" data-name="Group 1149"><path id="Path_1746" data-name="Path 1746" d="M23,2.86a.89.89,0,0,0-.73-.38H5.2L4.7.69A.91.91,0,0,0,3.84,0H.89A1,1,0,0,0,0,1a1,1,0,0,0,.89.89H3.16l3.6,13a.9.9,0,0,0,.87.68H19.12a.89.89,0,0,0,.86-.68L23.09,3.7A1,1,0,0,0,23,2.86ZM18.44,13.69H8.31L5.73,4.39H21Z"/></g></g><g id="Group_1152" data-name="Group 1152"><g id="Group_1151" data-name="Group 1151"><circle id="Ellipse_51" data-name="Ellipse 51" cx="10.93" cy="18" r="0.98"/></g></g><g id="Group_1154" data-name="Group 1154"><g id="Group_1153" data-name="Group 1153"><circle id="Ellipse_52" data-name="Ellipse 52" cx="15.91" cy="18" r="0.98"/></g></g></g></g></g></svg>