<svg xmlns="http://www.w3.org/2000/svg" viewBox="0 0 23.13 23.13"><g id="圖層_2" data-name="圖層 2"><g id="圖層_1-2" data-name="圖層 1"><g id="_093-push_pin" data-name=" 093-push pin"><g id="Group_1140" data-name="Group 1140"><path id="Path_1744" data-name="Path 1744" d="M22.87,7.59,15.54.26a.91.91,0,1,0-1.28,1.28l.28.28L8.36,8,3.85,9a.9.9,0,0,0-.68,1.07.92.92,0,0,0,.25.45L7.36,14.5.26,21.59a.91.91,0,0,0,1.28,1.28l7.09-7.1,3.95,3.95a.9.9,0,0,0,1.27,0,.83.83,0,0,0,.24-.44l1.05-4.51,6.17-6.18.28.28a.91.91,0,1,0,1.28-1.28ZM12.7,17.29,5.85,10.43l2.68-.62,4.79,4.79ZM14.31,13,10.1,8.82,15.82,3.1,20,7.32Z"/></g></g></g></g></svg>