<svg xmlns="http://www.w3.org/2000/svg" viewBox="0 0 22.2 22.2"><g id="圖層_2" data-name="圖層 2"><g id="圖層_1-2" data-name="圖層 1"><g id="_094-dashboard" data-name=" 094-dashboard"><g id="Group_1129" data-name="Group 1129"><g id="Group_1128" data-name="Group 1128"><path id="Path_1738" data-name="Path 1738" d="M11.1,0A11.1,11.1,0,1,0,22.2,11.1,11.1,11.1,0,0,0,11.1,0Zm0,20.47a9.37,9.37,0,1,1,9.37-9.37,9.38,9.38,0,0,1-9.37,9.37Z"/></g></g><g id="Group_1131" data-name="Group 1131"><g id="Group_1130" data-name="Group 1130"><path id="Path_1739" data-name="Path 1739" d="M4.44,10.24H3.16a.87.87,0,1,0,0,1.73H4.43a.87.87,0,1,0,0-1.73Z"/></g></g><g id="Group_1133" data-name="Group 1133"><g id="Group_1132" data-name="Group 1132"><path id="Path_1740" data-name="Path 1740" d="M19.09,10.24H17.82a.87.87,0,1,0,0,1.73h1.27a.87.87,0,1,0,0-1.73Z"/></g></g><g id="Group_1135" data-name="Group 1135"><g id="Group_1134" data-name="Group 1134"><path id="Path_1741" data-name="Path 1741" d="M15.52,3.45a.87.87,0,0,0-1.19.32l-.63,1.1a.87.87,0,1,0,1.46.93.21.21,0,0,0,0-.06l.63-1.1A.87.87,0,0,0,15.52,3.45Z"/></g></g><g id="Group_1137" data-name="Group 1137"><g id="Group_1136" data-name="Group 1136"><path id="Path_1742" data-name="Path 1742" d="M13.63,6.73a.87.87,0,0,0-1.19.32h0L11.21,9.18H11.1A1.93,1.93,0,1,0,13,11.11a2,2,0,0,0-.31-1.06l1.22-2.13a.86.86,0,0,0-.31-1.19Z"/></g></g><g id="Group_1139" data-name="Group 1139"><g id="Group_1138" data-name="Group 1138"><path id="Path_1743" data-name="Path 1743" d="M8.51,4.88l-.64-1.1a.86.86,0,1,0-1.53.8l0,.06L7,5.74a.87.87,0,0,0,1.17.37.87.87,0,0,0,.37-1.17A.21.21,0,0,1,8.51,4.88Z"/></g></g></g></g></g></svg>