<?xml version="1.0" encoding="utf-8"?>
<!-- Generator: Adobe Illustrator 25.0.0, SVG Export Plug-In . SVG Version: 6.00 Build 0)  -->
<svg version="1.1" id="Capa_1" xmlns="http://www.w3.org/2000/svg" xmlns:xlink="http://www.w3.org/1999/xlink" x="0px" y="0px"
	 viewBox="0 0 512 512" style="enable-background:new 0 0 512 512;" xml:space="preserve">
<style type="text/css">
	.st0{fill:#FFFFFD;}
</style>
<g>
	<g>
		<path class="st0" d="M441.8,240.3h-170v-170c0-8.7-7-15.7-15.7-15.7c-8.7,0-15.7,7-15.7,15.7v170h-170c-8.7,0-15.7,7-15.7,15.7
			c0,8.7,7,15.7,15.7,15.7h170v170c0,8.7,7,15.7,15.7,15.7c8.7,0,15.7-7,15.7-15.7v-170h170c8.7,0,15.7-7,15.7-15.7
			C457.5,247.3,450.5,240.3,441.8,240.3z"/>
	</g>
</g>
</svg>
