<?xml version="1.0" encoding="utf-8"?>
<!-- Generator: Adobe Illustrator 25.0.0, SVG Export Plug-In . SVG Version: 6.00 Build 0)  -->
<svg version="1.1" id="Capa_1" xmlns="http://www.w3.org/2000/svg" xmlns:xlink="http://www.w3.org/1999/xlink" x="0px" y="0px"
	 viewBox="0 0 512 512" style="enable-background:new 0 0 512 512;" xml:space="preserve">
<style type="text/css">
	.st0{fill:#FFFFFD;}
</style>
<g>
	<g>
		<g>
			<path class="st0" d="M441.9,78.4c-34.4-34.4-90.3-34.4-124.7,0L65.6,330c-3,2.9-4.6,7-4.6,11.1c0,0,0,0.1,0,0.1v102.2
				c0,8.8,7.1,15.9,15.9,15.9H179c4.1,0,8.2-1.7,11.2-4.7c8.2-8.2,247.5-247.5,251.6-251.6C476.2,168.7,476.2,112.8,441.9,78.4z
				 M92.7,433.7v-48l48,48H92.7z M179,427.1l-79.7-79.7l198.5-198.5l28.6,28.6L219.7,284.2c-6.2,6.2-6.2,16.3,0,22.5
				c6.2,6.2,16.3,6.2,22.5,0l106.7-106.7l28.6,28.6L179,427.1z M419.4,186.7L400,206.1l-79.7-79.7l19.4-19.4c22-22,57.8-22,79.7,0
				C441.4,128.9,441.4,164.7,419.4,186.7z"/>
		</g>
	</g>
</g>
</svg>
