<svg xmlns="http://www.w3.org/2000/svg" viewBox="0 0 748.42 227.85"><defs><style>.cls-1{fill:#729c53;}.cls-2{fill:#154424;}.cls-3{fill:#2b3b22;}.cls-4{fill:#367b8c;}.cls-5{fill:#0f3f5f;}.cls-6{fill:#11445f;}.cls-7{fill:#86992a;}.cls-8{fill:#424521;}.cls-9{fill:#282e14;}.cls-10{fill:#f6af71;}.cls-11{fill:#a85e23;}.cls-12{fill:#814121;}.cls-13{fill:#ccc;}.cls-14{fill:#e6e6e6;}.cls-15{fill:#f2f2f2;}</style></defs><g id="圖層_2" data-name="圖層 2"><g id="圖層_1-2" data-name="圖層 1"><path class="cls-1" d="M26.8,28.72S11.57,67.07,18.37,82.44c0,0,1.49,5.3,8.84,5h1.36s11,1.63,8.56-20C37.13,67.48,33.19,40.69,26.8,28.72Z"/><path class="cls-2" d="M27.29,71l-.23-.5a15.07,15.07,0,0,0,5.28-5c.58-1,1.76-6.34,1.53-6.91l.45-.33c.53.63-1,6.59-1.5,7.52A15.31,15.31,0,0,1,27.29,71Z"/><path class="cls-2" d="M27.15,81l-.23-.5a5.92,5.92,0,0,0,1.49-1.17,8.14,8.14,0,0,1,1.36-1.14c.57-.35,1.18-.67,1.77-1s.89-.45,1.32-.7c1-.56,3.23-2.2,3.38-3.37a.74.74,0,0,0-.25-.66l.38-.4a1.29,1.29,0,0,1,.42,1.13C36.6,74.67,34,76.45,33.13,77c-.44.25-.89.49-1.34.72s-1.18.6-1.73.94a7.76,7.76,0,0,0-1.27,1.07A6.3,6.3,0,0,1,27.15,81Z"/><path class="cls-2" d="M27.31,64l-.55-.1a11,11,0,0,1,1.43-3.51,9.69,9.69,0,0,0,1.49-4.18,25,25,0,0,0-.49-5.32c-.11-.67-.22-1.35-.31-2a9.88,9.88,0,0,1,0-1.39c0-1.43.06-4.08-.88-4.16l.05-.55c1.45.12,1.41,2.77,1.38,4.71a10.4,10.4,0,0,0,0,1.32c.09.68.2,1.36.31,2a25.18,25.18,0,0,1,.49,5.43,10.11,10.11,0,0,1-1.56,4.42A10.64,10.64,0,0,0,27.31,64Z"/><path class="cls-2" d="M26.89,67.76a12.06,12.06,0,0,1-3.84-4.67,15.1,15.1,0,0,1-1.19-4.46,20.42,20.42,0,0,0-.63-3.07l.53-.17a21.92,21.92,0,0,1,.65,3.16,14.07,14.07,0,0,0,1.14,4.29,11.52,11.52,0,0,0,3.64,4.46Z"/><path class="cls-2" d="M26.46,75.38c-.66-.49-1.4-.93-2.12-1.36a16.8,16.8,0,0,1-3.22-2.27,10,10,0,0,1-2.19-3.94h-.21v-.64l0-1.66.68,1.86a10.13,10.13,0,0,0,2.15,4,16.22,16.22,0,0,0,3.11,2.19c.73.44,1.49.89,2.17,1.39Z"/><path class="cls-2" d="M26.12,84.87a14.74,14.74,0,0,0-2.65-2.65c-1.9-1.62-3.87-3.3-3.92-6h.56c0,2.4,1.91,4,3.72,5.54a14.89,14.89,0,0,1,2.74,2.76Z"/><path class="cls-2" d="M35.29,81a9.86,9.86,0,0,1-3.71-1.34,7.12,7.12,0,0,0-1.76-.75h0v-.56h0a6,6,0,0,1,2,.81c1.3.67,3.08,1.57,3.92,1.21a.8.8,0,0,0,.44-.57l.54.15a1.39,1.39,0,0,1-.76.93A1.83,1.83,0,0,1,35.29,81Z"/><path class="cls-2" d="M33.07,68.8c-.62,0-1.25,0-1.82-.09s-.93-.07-1.3-.07v-.55c.39,0,.85,0,1.34.07,1.93.15,4.32.33,5.06-1.3l.5.23C36.21,68.5,34.64,68.8,33.07,68.8Z"/><path class="cls-2" d="M30.23,56.4l-.29-.47c1.59-1,3.75-3.52,3.47-5.4l.55-.08C34.3,52.76,31.7,55.47,30.23,56.4Z"/><path class="cls-2" d="M29.94,52.06,29.4,52c.2-1.18-2.19-2.79-3.46-3.66l-.72-.49c-.38-.29-3.7-2.81-3.31-5.13l.55.09c-.28,1.62,1.81,3.65,3.08,4.59l.71.49C27.82,48.91,30.2,50.52,29.94,52.06Z"/><path class="cls-2" d="M29.48,46.21,29,45.89c1.29-1.84.79-5,.61-6-.07-.34-.12-.78-.17-1.25-.14-1.19-.31-2.68-.83-3.22l.4-.38c.65.67.82,2.19,1,3.54.05.45.1.88.16,1.2C30.38,40.79,30.9,44.19,29.48,46.21Z"/><path class="cls-2" d="M23.6,63.32l-.33-.44c1.81-1.33,2.46-5.18,2.15-7.36l-.05-.3a31.77,31.77,0,0,0-.9-5.11l.15-.09.22-.31c.16.11.33.23,1.08,5.43l0,.29C26.3,57.71,25.65,61.82,23.6,63.32Z"/><path class="cls-2" d="M22.38,60.18a7.49,7.49,0,0,1-2.6-1.56,5,5,0,0,1-.62-.74,3.07,3.07,0,0,0-.71-.78l.27-.48a3,3,0,0,1,.88.93,5.49,5.49,0,0,0,.55.66,6.74,6.74,0,0,0,2.39,1.44Z"/><path class="cls-2" d="M23,72.62a11.4,11.4,0,0,1-.4-4.11c0-2,.08-4-1.07-5.22l.4-.38c1.31,1.41,1.26,3.54,1.23,5.61a10.89,10.89,0,0,0,.35,3.9Z"/><path class="cls-2" d="M20.66,70.3a8.83,8.83,0,0,1-3.85-.71l.22-.51a8.31,8.31,0,0,0,3.63.67Z"/><path class="cls-2" d="M23.43,81.53h-.55a12.65,12.65,0,0,0-.37-3.67,7.82,7.82,0,0,0-.35-.93,4.68,4.68,0,0,1-.53-2.22l.55.06a4.42,4.42,0,0,0,.49,2,7.41,7.41,0,0,1,.37,1A13.1,13.1,0,0,1,23.43,81.53Z"/><path class="cls-2" d="M21.15,80.15a8,8,0,0,1-3.23-.86l.22-.51a7.06,7.06,0,0,0,3.2.81l0,.55Z"/><path class="cls-2" d="M34.59,85.6c-1-1.13-2.73-4.09-2-5.84l.51.21c-.61,1.45.88,4.15,1.89,5.25Z"/><path class="cls-2" d="M32.26,64.83a4.17,4.17,0,0,1-1-2.08,6.21,6.21,0,0,0-.44-1.22,6.07,6.07,0,0,0-.51-.78,3.24,3.24,0,0,1-.87-2l.56,0a2.81,2.81,0,0,0,.76,1.62,7.21,7.21,0,0,1,.56.84,7.39,7.39,0,0,1,.47,1.32,3.67,3.67,0,0,0,.89,1.82Z"/><path class="cls-2" d="M26.21,47.72h-.56a10.65,10.65,0,0,0-.5-2.92,9.27,9.27,0,0,1-.48-3.3,5.1,5.1,0,0,1,.45-1.4,4.38,4.38,0,0,0,.47-1.62A8.31,8.31,0,0,0,25,35.34l.51-.2a8.8,8.8,0,0,1,.65,3.34,4.86,4.86,0,0,1-.51,1.83,4.46,4.46,0,0,0-.41,1.25,8.83,8.83,0,0,0,.46,3.08A11.72,11.72,0,0,1,26.21,47.72Z"/><path class="cls-2" d="M27.76,49.38c-.91,0-7.18-.07-7.37-1.91l.55-.06c.11,1,4.91,1.47,6.92,1.41v.56Z"/><path class="cls-2" d="M33,53.41l-.55,0a9.49,9.49,0,0,0-.13-1.91,10.91,10.91,0,0,1-.14-1.82,4.8,4.8,0,0,1,.19-1.09,2.59,2.59,0,0,0,.11-1.43l.5-.22a2.84,2.84,0,0,1-.08,1.79,5.51,5.51,0,0,0-.17,1,10.14,10.14,0,0,0,.14,1.72A9.67,9.67,0,0,1,33,53.41Z"/><path class="cls-2" d="M25.74,55.82a10,10,0,0,1-1.62-2.1,13.16,13.16,0,0,0-1.18-1.64,7.75,7.75,0,0,1-1.86-3l.54-.13a7.2,7.2,0,0,0,1.74,2.82,12.83,12.83,0,0,1,1.22,1.7,10,10,0,0,0,1.53,2Z"/><path class="cls-2" d="M26.46,39l-.5-.23.09-.21c1-2,3-6.27.82-7.91l.34-.44c2.52,1.91.38,6.42-.66,8.59Z"/><path class="cls-2" d="M33.35,63.36l-.15-.53a3,3,0,0,0,1.27-1,5.69,5.69,0,0,1,.85-.85l.34.44a5.09,5.09,0,0,0-.77.77A3.45,3.45,0,0,1,33.35,63.36Z"/><path class="cls-2" d="M34.14,73.48a1.47,1.47,0,0,1-.5-.09c-1.29-.49-2.21-2.71-2.71-3.91l-.13-.31.51-.22.13.32c.4,1,1.33,3.2,2.39,3.6a.88.88,0,0,0,.71,0l.24.5A1.46,1.46,0,0,1,34.14,73.48Z"/><path class="cls-2" d="M30.51,77.86c-.11-.42-.23-.86-.36-1.31-.53-1.86-1.13-4-.75-5.48l.54.13c-.35,1.37.23,3.4.74,5.19.13.46.26.91.37,1.33Z"/><path class="cls-2" d="M35.88,77.12A6.28,6.28,0,0,1,34,76.8l.18-.52c.81.28,2.18.45,2.64,0l.37.42A2,2,0,0,1,35.88,77.12Z"/><path class="cls-2" d="M20.06,84.56,19.87,84a3.3,3.3,0,0,0,1-.66A3.09,3.09,0,0,1,22,82.62,4.81,4.81,0,0,1,25,83l.47.18-.18.52-.49-.17a4.22,4.22,0,0,0-2.65-.42,3.1,3.1,0,0,0-.95.65A3.43,3.43,0,0,1,20.06,84.56Z"/><path class="cls-2" d="M19.29,68l-.3-.46c1.69-1.11.56-3.65-.34-5.69A13.71,13.71,0,0,1,17.9,60l.54-.14a13.86,13.86,0,0,0,.71,1.83C20.09,63.78,21.38,66.68,19.29,68Z"/><path class="cls-2" d="M23.8,53.74a1.9,1.9,0,0,0-1.43-.3,4.71,4.71,0,0,1-1.06,0,4.44,4.44,0,0,1-2.07-1.17l.35-.42a4.1,4.1,0,0,0,1.82,1.05,4.19,4.19,0,0,0,.94,0,2.36,2.36,0,0,1,1.82.45Z"/><path class="cls-2" d="M34.76,56.32a3.89,3.89,0,0,1-1.46-.38,2.74,2.74,0,0,0-1.51-.33l-.08-.55a3.44,3.44,0,0,1,1.81.36,2.74,2.74,0,0,0,1.39.33l.05.56Z"/><path class="cls-2" d="M29.4,57.89A4.57,4.57,0,0,0,28,55.61l-.61-.68a6.36,6.36,0,0,1-1.12-2.15c-.1-.27-.19-.53-.31-.8l.51-.22c.12.28.22.56.32.83a5.59,5.59,0,0,0,1,2c.2.24.4.45.6.66a5.14,5.14,0,0,1,1.54,2.54Z"/><path class="cls-2" d="M30.38,43.37l-.31-.46.15-.1c.54-.36,1.1-.74,1.11-1.34h.56c0,.9-.76,1.4-1.37,1.79Z"/><path class="cls-2" d="M30.1,41.85a5.6,5.6,0,0,0-1.85-2.51l.35-.43a6.12,6.12,0,0,1,2,2.75Z"/><path class="cls-2" d="M28,34.75l-.54-.12c.18-.82-.67-2.1-1.46-2.94l.41-.38C26.85,31.79,28.29,33.46,28,34.75Z"/><rect class="cls-3" x="25.45" y="62.52" width="2.28" height="49.84"/><path class="cls-4" d="M99.65,46.72S87.94,76.2,93.16,88c0,0,1.15,4.08,6.8,3.87H101s8.47,1.25,6.58-15.37C107.59,76.52,104.56,55.92,99.65,46.72Z"/><rect class="cls-5" x="98.61" y="72.7" width="1.75" height="38.32"/><path class="cls-6" d="M100,79.2l-.18-.38A11.43,11.43,0,0,0,103.9,75a18.83,18.83,0,0,0,1.19-5.32l.33-.25c.42.48-.74,5.07-1.14,5.78A11.81,11.81,0,0,1,100,79.2Z"/><path class="cls-6" d="M99.92,86.88l-.18-.39a4.54,4.54,0,0,0,1.14-.9,6.21,6.21,0,0,1,1.05-.88c.44-.27.91-.51,1.36-.74s.68-.35,1-.54c.77-.43,2.49-1.69,2.6-2.59a.52.52,0,0,0-.19-.5L107,80a1,1,0,0,1,.32.87c-.15,1.15-2.13,2.52-2.82,2.9-.33.19-.68.37-1,.55s-.9.46-1.33.73a5.22,5.22,0,0,0-1,.82A5.18,5.18,0,0,1,99.92,86.88Z"/><path class="cls-6" d="M100,73.82l-.42-.07a8.66,8.66,0,0,1,1.09-2.7,7.49,7.49,0,0,0,1.15-3.21,20,20,0,0,0-.37-4.09c-.09-.52-.17-1-.24-1.57a6.9,6.9,0,0,1,0-1.07c0-1.1,0-3.14-.67-3.2l0-.42c1.12.09,1.08,2.13,1.06,3.62a9.49,9.49,0,0,0,0,1q.1.8.24,1.56a19.41,19.41,0,0,1,.37,4.18,7.79,7.79,0,0,1-1.19,3.4A8,8,0,0,0,100,73.82Z"/><path class="cls-6" d="M99.71,76.74a9.39,9.39,0,0,1-2.95-3.6,11.37,11.37,0,0,1-.91-3.42,15.86,15.86,0,0,0-.49-2.37l.41-.12a15.55,15.55,0,0,1,.5,2.42A11.26,11.26,0,0,0,97.14,73,8.9,8.9,0,0,0,100,76.38Z"/><path class="cls-6" d="M99.38,82.59a18.89,18.89,0,0,0-1.63-1,13.59,13.59,0,0,1-2.47-1.75,7.69,7.69,0,0,1-1.69-3h-.15c0-.16,0-.32,0-.49l0-1.28.53,1.43a7.69,7.69,0,0,0,1.65,3.07A12.94,12.94,0,0,0,98,81.18c.56.34,1.15.68,1.67,1.07Z"/><path class="cls-6" d="M99.12,89.89a11.49,11.49,0,0,0-2-2c-1.47-1.24-3-2.53-3-4.57h.43c0,1.85,1.47,3.07,2.86,4.26a11.75,11.75,0,0,1,2.11,2.12Z"/><path class="cls-6" d="M106.17,86.91a7.58,7.58,0,0,1-2.85-1A5.48,5.48,0,0,0,102,85.3h0v-.43h0a4.59,4.59,0,0,1,1.55.63c1,.5,2.37,1.2,3,.92a.61.61,0,0,0,.34-.44l.41.12a1,1,0,0,1-.59.71A1.21,1.21,0,0,1,106.17,86.91Z"/><path class="cls-6" d="M104.47,77.53c-.48,0-1,0-1.4-.06s-.72-.06-1-.06V77c.3,0,.65,0,1,.05,1.48.11,3.32.25,3.89-1l.38.18C106.88,77.31,105.67,77.53,104.47,77.53Z"/><path class="cls-6" d="M102.29,68l-.23-.36c1.22-.78,2.88-2.71,2.67-4.16l.42-.06C105.41,65.21,103.41,67.29,102.29,68Z"/><path class="cls-6" d="M102.06,64.66l-.42-.07c.16-.91-1.68-2.15-2.66-2.81-.22-.15-.41-.28-.55-.39-.29-.21-2.84-2.15-2.54-3.94l.42.07c-.21,1.25,1.39,2.81,2.37,3.53l.54.37C100.43,62.24,102.26,63.48,102.06,64.66Z"/><path class="cls-6" d="M101.71,60.17l-.35-.25c1-1.42.61-3.88.47-4.61,0-.26-.09-.6-.13-1a5.34,5.34,0,0,0-.64-2.47l.31-.29a5.27,5.27,0,0,1,.75,2.72c0,.34.08.67.13.92C102.4,56,102.8,58.61,101.71,60.17Z"/><path class="cls-6" d="M97.18,73.32,96.93,73c1.39-1,1.9-4,1.65-5.66l0-.23a23.54,23.54,0,0,0-.7-3.93L98,63.1l.17-.25c.12.09.25.18.83,4.18l0,.23C99.26,69,98.76,72.17,97.18,73.32Z"/><path class="cls-6" d="M96.25,70.9a5.59,5.59,0,0,1-2-1.19,4.39,4.39,0,0,1-.48-.57,2.33,2.33,0,0,0-.54-.6l.2-.37a2.44,2.44,0,0,1,.68.71,3.84,3.84,0,0,0,.43.52,5.39,5.39,0,0,0,1.83,1.1Z"/><path class="cls-6" d="M96.75,80.47a9,9,0,0,1-.3-3.16c0-1.5.06-3.06-.83-4l.32-.29c1,1.09,1,2.73.93,4.32a8.34,8.34,0,0,0,.28,3Z"/><path class="cls-6" d="M94.93,78.69a6.9,6.9,0,0,1-3-.55l.17-.39a6.47,6.47,0,0,0,2.8.51Z"/><path class="cls-6" d="M97.06,87.32h-.43a9.86,9.86,0,0,0-.28-2.82,6.35,6.35,0,0,0-.27-.71,3.65,3.65,0,0,1-.41-1.71l.43,0a3.28,3.28,0,0,0,.37,1.5,5.91,5.91,0,0,1,.29.76A10.11,10.11,0,0,1,97.06,87.32Z"/><path class="cls-6" d="M95.3,86.26a6.29,6.29,0,0,1-2.49-.66l.18-.39a5.45,5.45,0,0,0,2.46.62l0,.42Z"/><path class="cls-6" d="M105.64,90.45c-.79-.87-2.1-3.15-1.53-4.49l.39.17c-.47,1.11.68,3.18,1.45,4Z"/><path class="cls-6" d="M103.84,74.48a3.24,3.24,0,0,1-.8-1.6,5.31,5.31,0,0,0-.34-.93,4.68,4.68,0,0,0-.39-.6,2.5,2.5,0,0,1-.67-1.51l.43,0a2.17,2.17,0,0,0,.58,1.24,5.21,5.21,0,0,1,.43.65,6.36,6.36,0,0,1,.37,1,2.83,2.83,0,0,0,.67,1.4Z"/><path class="cls-6" d="M99.19,61.33h-.43a8.35,8.35,0,0,0-.38-2.25A7.16,7.16,0,0,1,98,56.54a3.69,3.69,0,0,1,.35-1.08,3.38,3.38,0,0,0,.35-1.25,6.16,6.16,0,0,0-.47-2.4l.4-.15a6.92,6.92,0,0,1,.5,2.56,3.73,3.73,0,0,1-.39,1.41,3.39,3.39,0,0,0-.32,1A6.74,6.74,0,0,0,98.79,59,8.66,8.66,0,0,1,99.19,61.33Z"/><path class="cls-6" d="M100.39,62.6c-.7,0-5.52-.05-5.68-1.47l.43,0c.08.8,3.77,1.12,5.32,1.08v.43Z"/><path class="cls-6" d="M104.41,65.7l-.43,0a7.32,7.32,0,0,0-.1-1.47,9.13,9.13,0,0,1-.11-1.4,4,4,0,0,1,.15-.83,2,2,0,0,0,.08-1.11l.39-.16a2.16,2.16,0,0,1-.06,1.37,3.12,3.12,0,0,0-.13.74,8.51,8.51,0,0,0,.1,1.33A7.92,7.92,0,0,1,104.41,65.7Z"/><path class="cls-6" d="M98.83,67.56a8.12,8.12,0,0,1-1.25-1.62,9.83,9.83,0,0,0-.9-1.26,5.84,5.84,0,0,1-1.43-2.35l.42-.1A5.38,5.38,0,0,0,97,64.4a10.37,10.37,0,0,1,.94,1.31,7.2,7.2,0,0,0,1.18,1.53Z"/><path class="cls-6" d="M99.38,54.6,99,54.41l.07-.16c.75-1.56,2.29-4.82.63-6.08l.26-.34c1.94,1.47.29,4.94-.5,6.61Z"/><path class="cls-6" d="M104.68,73.35l-.11-.41a2.3,2.3,0,0,0,1-.8,5.06,5.06,0,0,1,.66-.65l.26.34a4.15,4.15,0,0,0-.6.59A2.59,2.59,0,0,1,104.68,73.35Z"/><path class="cls-6" d="M105.29,81.13a1.07,1.07,0,0,1-.39-.07c-1-.37-1.7-2.09-2.08-3l-.1-.23.39-.17.11.24c.3.74,1,2.46,1.83,2.77a.64.64,0,0,0,.54,0l.19.38A1.07,1.07,0,0,1,105.29,81.13Z"/><path class="cls-6" d="M102.5,84.5c-.08-.32-.18-.66-.28-1-.41-1.43-.87-3-.57-4.21l.41.1a9,9,0,0,0,.57,4c.1.35.2.7.28,1Z"/><path class="cls-6" d="M106.62,83.93a5.12,5.12,0,0,1-1.43-.24l.14-.41c.62.22,1.67.35,2,0l.28.33A1.6,1.6,0,0,1,106.62,83.93Z"/><path class="cls-6" d="M94.47,89.65l-.15-.4a2.48,2.48,0,0,0,.73-.51,2.55,2.55,0,0,1,.87-.58,3.62,3.62,0,0,1,2.33.32l.37.13-.14.41-.37-.14a3.29,3.29,0,0,0-2-.32,2.35,2.35,0,0,0-.72.5A2.73,2.73,0,0,1,94.47,89.65Z"/><path class="cls-6" d="M93.87,77l-.23-.36c1.3-.84.44-2.8-.26-4.37a11.9,11.9,0,0,1-.58-1.47l.42-.1a9.22,9.22,0,0,0,.55,1.4C94.49,73.68,95.48,75.9,93.87,77Z"/><path class="cls-6" d="M97.34,66a1.45,1.45,0,0,0-1.1-.24,3.78,3.78,0,0,1-.82,0,3.54,3.54,0,0,1-1.59-.9l.27-.33a3.07,3.07,0,0,0,1.4.81,3.45,3.45,0,0,0,.72,0,1.82,1.82,0,0,1,1.41.34Z"/><path class="cls-6" d="M105.77,67.94a2.74,2.74,0,0,1-1.12-.3,2.16,2.16,0,0,0-1.17-.25l-.06-.42a2.63,2.63,0,0,1,1.39.28,2.16,2.16,0,0,0,1.07.25l0,.43Z"/><path class="cls-6" d="M101.64,69.15a3.44,3.44,0,0,0-1.08-1.76c-.15-.16-.31-.33-.47-.52a4.86,4.86,0,0,1-.86-1.65c-.08-.21-.15-.41-.24-.62l.39-.16c.1.21.17.42.25.63a4.57,4.57,0,0,0,.79,1.53c.15.18.3.34.45.5a3.82,3.82,0,0,1,1.19,2Z"/><path class="cls-6" d="M102.4,58l-.24-.35.11-.08c.42-.28.85-.56.86-1h.43c0,.69-.59,1.07-1,1.38Z"/><path class="cls-6" d="M102.19,56.81a4.41,4.41,0,0,0-1.43-1.93l.27-.33a4.84,4.84,0,0,1,1.56,2.12Z"/><path class="cls-6" d="M100.57,51.35l-.42-.09c.14-.63-.51-1.61-1.12-2.26l.31-.29C99.69,49.08,100.79,50.36,100.57,51.35Z"/><path class="cls-7" d="M119.74,76.73s-6.38,16.07-3.53,22.5c0,0,.62,2.23,3.7,2.11h.57s4.61.69,3.59-8.37C124.07,93,122.42,81.74,119.74,76.73Z"/><path class="cls-8" d="M119.94,94.43l-.09-.21a6.33,6.33,0,0,0,2.21-2.1,10.18,10.18,0,0,0,.64-2.9l.19-.14c.22.27-.41,2.77-.63,3.15A6.42,6.42,0,0,1,119.94,94.43Z"/><path class="cls-8" d="M119.88,98.61l-.09-.21a2.66,2.66,0,0,0,.62-.49,4.26,4.26,0,0,1,.57-.48c.24-.14.5-.27.74-.4l.56-.29c.41-.24,1.35-.93,1.41-1.42a.29.29,0,0,0-.1-.27l.16-.17a.56.56,0,0,1,.17.47c-.07.63-1.16,1.38-1.53,1.59l-.56.3c-.24.12-.5.25-.73.39a3.09,3.09,0,0,0-.53.45A2.45,2.45,0,0,1,119.88,98.61Z"/><path class="cls-8" d="M120,91.5l-.23,0a4.55,4.55,0,0,1,.6-1.47,4,4,0,0,0,.62-1.75,10.4,10.4,0,0,0-.2-2.23c0-.28-.09-.57-.13-.86a5,5,0,0,1,0-.58c0-.6,0-1.71-.37-1.74l0-.23c.61.05.59,1.16.58,2a4.37,4.37,0,0,0,0,.55c0,.29.08.57.13.85a10.24,10.24,0,0,1,.2,2.28,4.13,4.13,0,0,1-.65,1.85A4.35,4.35,0,0,0,120,91.5Z"/><path class="cls-8" d="M119.77,93.09a5.06,5.06,0,0,1-1.6-2,6.06,6.06,0,0,1-.5-1.87A7.81,7.81,0,0,0,117.4,88l.23-.07a9.51,9.51,0,0,1,.27,1.33,5.6,5.6,0,0,0,.48,1.8,4.8,4.8,0,0,0,1.52,1.86Z"/><path class="cls-8" d="M119.59,96.28a8.84,8.84,0,0,0-.88-.57,7.27,7.27,0,0,1-1.35-.95,4.28,4.28,0,0,1-.92-1.65h-.09v-1l.28.78a4.23,4.23,0,0,0,.9,1.67,7,7,0,0,0,1.31.92,10.61,10.61,0,0,1,.9.58Z"/><path class="cls-8" d="M119.45,100.26a5.83,5.83,0,0,0-1.11-1.11,3.54,3.54,0,0,1-1.64-2.5h.23c0,1,.81,1.67,1.56,2.32a6,6,0,0,1,1.15,1.16Z"/><path class="cls-8" d="M123.3,98.63a4.22,4.22,0,0,1-1.56-.56,2.76,2.76,0,0,0-.74-.32h0v-.23h0a2.58,2.58,0,0,1,.85.34c.54.28,1.29.66,1.64.5a.35.35,0,0,0,.19-.23l.22.06a.58.58,0,0,1-.32.39A.82.82,0,0,1,123.3,98.63Z"/><path class="cls-8" d="M122.36,93.52c-.26,0-.52,0-.76,0l-.54,0v-.24l.56,0c.81.06,1.81.14,2.12-.54l.21.1C123.68,93.4,123,93.52,122.36,93.52Z"/><path class="cls-8" d="M121.18,88.33l-.13-.2c.67-.42,1.57-1.48,1.46-2.26l.23,0C122.88,86.8,121.79,87.94,121.18,88.33Z"/><path class="cls-8" d="M121.05,86.51l-.23,0c.09-.5-.91-1.17-1.45-1.54l-.3-.2c-.15-.12-1.55-1.18-1.38-2.15l.23,0c-.12.68.76,1.52,1.29,1.92l.29.2C120.17,85.19,121.16,85.86,121.05,86.51Z"/><path class="cls-8" d="M120.86,84.06l-.19-.14a3.78,3.78,0,0,0,.26-2.51c0-.14-.05-.33-.07-.52a2.91,2.91,0,0,0-.35-1.35l.16-.16a2.86,2.86,0,0,1,.42,1.48c0,.19,0,.37.07.51A4,4,0,0,1,120.86,84.06Z"/><path class="cls-8" d="M118.4,91.23l-.14-.19a3.82,3.82,0,0,0,.9-3.08l0-.13a12.62,12.62,0,0,0-.38-2.14l.06,0,.1-.13c.07,0,.13.1.45,2.28l0,.12C119.53,88.87,119.25,90.6,118.4,91.23Z"/><path class="cls-8" d="M117.89,89.91a3.07,3.07,0,0,1-1.09-.65,2.51,2.51,0,0,1-.26-.31,1.23,1.23,0,0,0-.3-.33l.11-.2a1.27,1.27,0,0,1,.37.39,3.45,3.45,0,0,0,.23.28,3,3,0,0,0,1,.6Z"/><path class="cls-8" d="M118.16,95.12A4.57,4.57,0,0,1,118,93.4a3.17,3.17,0,0,0-.45-2.19l.17-.16a3.35,3.35,0,0,1,.51,2.35,4.48,4.48,0,0,0,.15,1.64Z"/><path class="cls-8" d="M117.17,94.15a3.7,3.7,0,0,1-1.62-.3l.1-.21a3.48,3.48,0,0,0,1.52.28Z"/><path class="cls-8" d="M118.33,98.85h-.23a5.08,5.08,0,0,0-.16-1.53,2.08,2.08,0,0,0-.15-.39,2.08,2.08,0,0,1-.22-.93l.23,0a1.85,1.85,0,0,0,.21.82,4.14,4.14,0,0,1,.15.41A5.3,5.3,0,0,1,118.33,98.85Z"/><path class="cls-8" d="M117.37,98.28a3.36,3.36,0,0,1-1.35-.36l.09-.22a2.92,2.92,0,0,0,1.34.34v.23Z"/><path class="cls-8" d="M123,100.56c-.43-.47-1.14-1.72-.83-2.45l.21.09c-.25.61.37,1.74.8,2.2Z"/><path class="cls-8" d="M122,91.86a1.78,1.78,0,0,1-.43-.88,2.9,2.9,0,0,0-.19-.5,2,2,0,0,0-.21-.33,1.34,1.34,0,0,1-.37-.82h.24a1.17,1.17,0,0,0,.31.67,2.5,2.5,0,0,1,.24.36,3.27,3.27,0,0,1,.2.55,1.55,1.55,0,0,0,.37.76Z"/><path class="cls-8" d="M119.49,84.69h-.23a4.2,4.2,0,0,0-.22-1.22,4,4,0,0,1-.2-1.38,2.39,2.39,0,0,1,.19-.59,1.78,1.78,0,0,0,.2-.68A3.39,3.39,0,0,0,119,79.5l.22-.08a3.62,3.62,0,0,1,.27,1.4,2,2,0,0,1-.21.76,1.56,1.56,0,0,0-.17.53,3.67,3.67,0,0,0,.19,1.29A4.92,4.92,0,0,1,119.49,84.69Z"/><path class="cls-8" d="M120.14,85.38c-.38,0-3,0-3.09-.8l.23,0c0,.44,2.06.61,2.9.59v.23Z"/><path class="cls-8" d="M122.33,87.07h-.23a4.35,4.35,0,0,0,0-.8,3.84,3.84,0,0,1-.06-.76,1.93,1.93,0,0,1,.08-.46,1.06,1.06,0,0,0,0-.6l.21-.09a1.14,1.14,0,0,1,0,.75,2.25,2.25,0,0,0-.07.4,3.6,3.6,0,0,0,.06.73A4.68,4.68,0,0,1,122.33,87.07Z"/><path class="cls-8" d="M119.29,88.08a4.67,4.67,0,0,1-.68-.88,5.6,5.6,0,0,0-.49-.68,3.27,3.27,0,0,1-.78-1.28l.23-.06a2.87,2.87,0,0,0,.73,1.18,6.21,6.21,0,0,1,.51.72,3.89,3.89,0,0,0,.64.83Z"/><path class="cls-8" d="M119.59,81l-.21-.1,0-.09c.41-.85,1.25-2.62.35-3.31l.14-.18c1,.8.16,2.69-.28,3.59Z"/><path class="cls-8" d="M122.48,91.24l-.06-.22a1.26,1.26,0,0,0,.53-.44,2.38,2.38,0,0,1,.36-.35l.14.18a2,2,0,0,0-.32.33A1.43,1.43,0,0,1,122.48,91.24Z"/><path class="cls-8" d="M122.81,95.48a.52.52,0,0,1-.21,0c-.54-.2-.92-1.13-1.13-1.63l-.06-.14.22-.09.05.14c.17.4.56,1.34,1,1.5a.35.35,0,0,0,.3,0l.1.21A.66.66,0,0,1,122.81,95.48Z"/><path class="cls-8" d="M121.29,97.32c0-.18-.1-.36-.15-.55a5.08,5.08,0,0,1-.31-2.3l.22.06a5,5,0,0,0,.31,2.17c.06.19.11.38.16.56Z"/><path class="cls-8" d="M123.54,97a2.37,2.37,0,0,1-.78-.14l.08-.22c.34.12.91.19,1.1,0l.15.17A.82.82,0,0,1,123.54,97Z"/><path class="cls-8" d="M116.92,100.13l-.08-.22a1.48,1.48,0,0,0,.39-.28,1.39,1.39,0,0,1,.48-.32,2,2,0,0,1,1.27.18l.2.07-.08.22-.2-.08a1.88,1.88,0,0,0-1.12-.17,1.37,1.37,0,0,0-.39.27A1.54,1.54,0,0,1,116.92,100.13Z"/><path class="cls-8" d="M116.59,93.2l-.12-.19c.7-.46.23-1.53-.15-2.38a5.34,5.34,0,0,1-.31-.8l.22-.06a6.88,6.88,0,0,0,.3.76C116.93,91.42,117.47,92.63,116.59,93.2Z"/><path class="cls-8" d="M118.48,87.21a.84.84,0,0,0-.6-.13,1.63,1.63,0,0,1-.44,0,1.92,1.92,0,0,1-.87-.49l.15-.18a1.29,1.29,0,0,0,1.15.45,1,1,0,0,1,.77.19Z"/><path class="cls-8" d="M123.07,88.29a1.58,1.58,0,0,1-.61-.16,1.06,1.06,0,0,0-.63-.13l0-.23a1.35,1.35,0,0,1,.76.15,1.38,1.38,0,0,0,.59.14l0,.23Z"/><path class="cls-8" d="M120.83,89a2.06,2.06,0,0,0-.59-1,3.58,3.58,0,0,1-.26-.28,2.52,2.52,0,0,1-.47-.9c0-.11-.08-.22-.13-.34l.22-.09c.05.12.09.24.13.35a2.36,2.36,0,0,0,.43.83,3.33,3.33,0,0,0,.25.28,2,2,0,0,1,.64,1.06Z"/><path class="cls-8" d="M121.24,82.87l-.13-.19.06-.05c.23-.15.46-.31.47-.56h.23c0,.37-.32.58-.57.75Z"/><path class="cls-8" d="M121.12,82.23a2.34,2.34,0,0,0-.78-1l.15-.18a2.52,2.52,0,0,1,.85,1.15Z"/><path class="cls-8" d="M120.24,79.25l-.23,0c.08-.34-.28-.87-.61-1.23l.17-.16C119.76,78,120.36,78.71,120.24,79.25Z"/><rect class="cls-9" x="119.17" y="90.89" width="0.95" height="20.88"/><path class="cls-10" d="M66.83,0S46.28,51.75,55.45,72.48c0,0,2,7.16,11.93,6.79h1.84s14.86,2.21,11.55-27C80.77,52.3,75.45,16.15,66.83,0Z"/><path class="cls-11" d="M67.49,57l-.31-.68a20.08,20.08,0,0,0,7.12-6.76c.79-1.41,2.38-8.56,2.08-9.34l.59-.44c.73.85-1.32,8.9-2,10.14A20.61,20.61,0,0,1,67.49,57Z"/><path class="cls-11" d="M67.3,70.48,67,69.8a8.14,8.14,0,0,0,2-1.58,11.5,11.5,0,0,1,1.83-1.54c.78-.47,1.6-.89,2.4-1.3.59-.31,1.19-.61,1.78-.94,1.34-.77,4.36-3,4.55-4.55a1,1,0,0,0-.33-.89l.52-.54A1.74,1.74,0,0,1,80.31,60c-.25,2-3.73,4.43-4.94,5.1-.59.34-1.2.65-1.81,1-.78.4-1.59.81-2.33,1.27a10.29,10.29,0,0,0-1.71,1.44A8.47,8.47,0,0,1,67.3,70.48Z"/><path class="cls-11" d="M67.52,47.57l-.74-.12a14.91,14.91,0,0,1,1.92-4.74,13,13,0,0,0,2-5.65,33.72,33.72,0,0,0-.65-7.16c-.15-.91-.3-1.83-.43-2.76a17.57,17.57,0,0,1,0-1.88c0-1.93.08-5.5-1.17-5.61l.06-.75c2,.17,1.9,3.75,1.86,6.37a15.27,15.27,0,0,0,0,1.77c.12.92.27,1.83.42,2.74a33.69,33.69,0,0,1,.65,7.32,13.47,13.47,0,0,1-2.09,6A14.07,14.07,0,0,0,67.52,47.57Z"/><path class="cls-11" d="M66.94,52.69a16.43,16.43,0,0,1-5.17-6.31,19.88,19.88,0,0,1-1.6-6,27.49,27.49,0,0,0-.86-4.14L60,36a28.59,28.59,0,0,1,.88,4.26,18.88,18.88,0,0,0,1.53,5.8,15.69,15.69,0,0,0,4.91,6Z"/><path class="cls-11" d="M66.36,63c-.87-.65-1.88-1.25-2.85-1.83a22.79,22.79,0,0,1-4.34-3.07,13.35,13.35,0,0,1-3-5.31h-.28c0-.29,0-.57,0-.86l-.05-2.25.92,2.51a13.71,13.71,0,0,0,2.9,5.38,22.39,22.39,0,0,0,4.2,2.95,33.81,33.81,0,0,1,2.92,1.88Z"/><path class="cls-11" d="M65.91,75.77a19.78,19.78,0,0,0-3.57-3.58c-2.57-2.18-5.23-4.45-5.29-8h.75c.05,3.24,2.58,5.39,5,7.48a20,20,0,0,1,3.7,3.72Z"/><path class="cls-11" d="M78.29,70.54c-1.45,0-3.39-1-5-1.82a9.45,9.45,0,0,0-2.38-1h0V67h0a8.19,8.19,0,0,1,2.72,1.1c1.75.89,4.15,2.11,5.28,1.62a1.12,1.12,0,0,0,.61-.77l.71.21a1.79,1.79,0,0,1-1,1.25A2.42,2.42,0,0,1,78.29,70.54Z"/><path class="cls-11" d="M75.29,54.09c-.84,0-1.69-.07-2.45-.13s-1.26-.09-1.76-.09v-.75c.53,0,1.15.05,1.81.1,2.6.2,5.83.44,6.82-1.75l.68.31C79.53,53.68,77.41,54.09,75.29,54.09Z"/><path class="cls-11" d="M71.46,37.35l-.4-.63c2.16-1.37,5.06-4.75,4.69-7.29l.74-.11C77,32.45,73.44,36.1,71.46,37.35Z"/><path class="cls-11" d="M71.07,31.49l-.74-.12c.27-1.6-2.94-3.78-4.67-4.94-.38-.26-.72-.49-1-.68-.51-.37-5-3.78-4.46-6.91L61,19c-.37,2.19,2.44,4.92,4.17,6.19.24.18.57.4.94.66C68.21,27.25,71.42,29.42,71.07,31.49Z"/><path class="cls-11" d="M70.45,23.6l-.61-.43c1.74-2.49,1.07-6.82.82-8.08-.09-.46-.16-1.06-.23-1.69-.19-1.61-.42-3.61-1.12-4.34l.54-.52c.87.91,1.11,3,1.32,4.78.08.61.14,1.19.23,1.62C71.66,16.29,72.36,20.87,70.45,23.6Z"/><path class="cls-11" d="M62.51,46.69l-.45-.6c2.44-1.79,3.33-7,2.9-9.93l-.06-.4c-.8-5.55-1.1-6.71-1.21-6.9l.19-.11.31-.43c.21.15.44.31,1.45,7.33l.06.4C66.15,39.11,65.28,44.67,62.51,46.69Z"/><path class="cls-11" d="M60.87,42.44a9.87,9.87,0,0,1-3.52-2.09,8.16,8.16,0,0,1-.83-1,4,4,0,0,0-1-1.05l.36-.65a4.24,4.24,0,0,1,1.2,1.25,7,7,0,0,0,.74.9,9,9,0,0,0,3.23,1.93Z"/><path class="cls-11" d="M61.75,59.24a15.36,15.36,0,0,1-.53-5.55c.05-2.64.1-5.37-1.45-7l.55-.5C62.07,48,62,50.92,62,53.7A14.58,14.58,0,0,0,62.45,59Z"/><path class="cls-11" d="M58.54,56.11a12,12,0,0,1-5.19-1l.3-.69a11.09,11.09,0,0,0,4.9.9Z"/><path class="cls-11" d="M62.29,71.26h-.75a17,17,0,0,0-.5-5,9.88,9.88,0,0,0-.47-1.26,6.32,6.32,0,0,1-.71-3l.74.08a5.78,5.78,0,0,0,.66,2.63,10.28,10.28,0,0,1,.5,1.33A17.6,17.6,0,0,1,62.29,71.26Z"/><path class="cls-11" d="M59.2,69.4a10.75,10.75,0,0,1-4.36-1.17l.31-.68a9.56,9.56,0,0,0,4.31,1.09l0,.75Z"/><path class="cls-11" d="M77.34,76.75c-1.38-1.52-3.68-5.52-2.68-7.88l.69.29c-.83,2,1.19,5.6,2.55,7.08Z"/><path class="cls-11" d="M74.2,48.73a5.65,5.65,0,0,1-1.42-2.82,8.64,8.64,0,0,0-.59-1.63,7.25,7.25,0,0,0-.69-1.05,4.37,4.37,0,0,1-1.17-2.65l.75,0a3.83,3.83,0,0,0,1,2.17,9.92,9.92,0,0,1,.76,1.15,10.34,10.34,0,0,1,.64,1.77,5,5,0,0,0,1.19,2.46Z"/><path class="cls-11" d="M66,25.64l-.75,0a15,15,0,0,0-.68-3.94A12.59,12.59,0,0,1,64,17.24a6.52,6.52,0,0,1,.62-1.9,5.75,5.75,0,0,0,.62-2.18,11.23,11.23,0,0,0-.82-4.22l.7-.27a11.88,11.88,0,0,1,.87,4.5,6.28,6.28,0,0,1-.69,2.47,6.33,6.33,0,0,0-.56,1.69,12.21,12.21,0,0,0,.63,4.16A14.94,14.94,0,0,1,66,25.64Z"/><path class="cls-11" d="M68.13,27.88c-1.23,0-9.69-.1-9.95-2.58l.74-.08c.15,1.41,6.62,2,9.34,1.91l0,.75Z"/><path class="cls-11" d="M75.19,33.32l-.75,0a13.29,13.29,0,0,0-.18-2.58,16.53,16.53,0,0,1-.19-2.45,7,7,0,0,1,.26-1.47,3.51,3.51,0,0,0,.14-1.94l.69-.29A3.86,3.86,0,0,1,75.05,27a6.87,6.87,0,0,0-.23,1.3A15.57,15.57,0,0,0,75,30.6,13.57,13.57,0,0,1,75.19,33.32Z"/><path class="cls-11" d="M65.4,36.57a13.7,13.7,0,0,1-2.19-2.83,16.36,16.36,0,0,0-1.59-2.21,10.22,10.22,0,0,1-2.5-4.13l.73-.17A9.56,9.56,0,0,0,62.18,31a18.93,18.93,0,0,1,1.66,2.3A12.49,12.49,0,0,0,65.9,36Z"/><path class="cls-11" d="M66.36,13.83l-.67-.33.13-.28c1.31-2.74,4-8.46,1.1-10.66l.46-.6c3.4,2.58.51,8.66-.88,11.59Z"/><path class="cls-11" d="M75.67,46.75,75.46,46a4.11,4.11,0,0,0,1.72-1.4,7.89,7.89,0,0,1,1.15-1.16l.45.6a7.39,7.39,0,0,0-1,1A4.72,4.72,0,0,1,75.67,46.75Z"/><path class="cls-11" d="M76.74,60.4a1.79,1.79,0,0,1-.68-.13c-1.75-.65-3-3.66-3.66-5.27l-.17-.42.69-.3.18.43c.53,1.29,1.78,4.32,3.22,4.86a1.17,1.17,0,0,0,1,0l.33.67A1.91,1.91,0,0,1,76.74,60.4Z"/><path class="cls-11" d="M71.84,66.3c-.15-.56-.32-1.16-.49-1.77-.72-2.5-1.53-5.34-1-7.39l.72.19c-.47,1.84.32,4.58,1,7,.17.61.34,1.22.49,1.79Z"/><path class="cls-11" d="M79.08,65.31a8.61,8.61,0,0,1-2.52-.43l.25-.71c1.09.38,2.93.61,3.56.07l.49.57A2.78,2.78,0,0,1,79.08,65.31Z"/><path class="cls-11" d="M57.74,75.35l-.26-.7a4.31,4.31,0,0,0,1.29-.9,4.66,4.66,0,0,1,1.53-1c1.33-.45,2.86.11,4.08.56l.65.23-.25.71L64.13,74c-1.18-.44-2.51-.93-3.59-.57a4.1,4.1,0,0,0-1.27.88A4.94,4.94,0,0,1,57.74,75.35Z"/><path class="cls-11" d="M56.7,53.06l-.41-.63c2.28-1.48.76-4.91-.46-7.67a18,18,0,0,1-1-2.58l.72-.19a17.58,17.58,0,0,0,1,2.47C57.78,47.31,59.51,51.23,56.7,53.06Z"/><path class="cls-11" d="M62.79,33.76a2.59,2.59,0,0,0-1.95-.41,5.78,5.78,0,0,1-1.43-.06,6.18,6.18,0,0,1-2.79-1.57l.48-.58a5.4,5.4,0,0,0,2.46,1.42,5.28,5.28,0,0,0,1.26,0,3.28,3.28,0,0,1,2.47.61Z"/><path class="cls-11" d="M77.57,37.24a4.87,4.87,0,0,1-2-.52,3.84,3.84,0,0,0-2-.43l-.1-.74a4.48,4.48,0,0,1,2.43.48,4,4,0,0,0,1.89.45l.06.74Z"/><path class="cls-11" d="M70.34,39.36a6.26,6.26,0,0,0-1.9-3.08c-.27-.29-.55-.58-.83-.91a8.65,8.65,0,0,1-1.52-2.9c-.12-.36-.25-.72-.41-1.08l.69-.29c.16.37.29.74.43,1.12a7.93,7.93,0,0,0,1.38,2.67c.27.31.54.6.8.88a6.88,6.88,0,0,1,2.09,3.44Z"/><path class="cls-11" d="M71.66,19.77l-.42-.62.2-.13c.74-.49,1.49-1,1.51-1.81h.74c0,1.21-1,1.88-1.83,2.42Z"/><path class="cls-11" d="M71.29,17.72a7.59,7.59,0,0,0-2.5-3.39l.46-.58A8.42,8.42,0,0,1,72,17.46Z"/><path class="cls-11" d="M68.45,8.14,67.72,8c.25-1.1-.91-2.82-2-4l.55-.51C66.9,4.15,68.84,6.39,68.45,8.14Z"/><rect class="cls-12" x="65" y="45.6" width="3.07" height="67.25"/><path class="cls-4" d="M713.54,46.41S702,75.35,707.18,87c0,0,1.12,4,6.67,3.79h1s8.32,1.24,6.47-15.08C721.34,75.66,718.36,55.44,713.54,46.41Z"/><rect class="cls-5" x="712.52" y="71.91" width="1.72" height="37.62"/><path class="cls-6" d="M713.91,78.29l-.18-.38a11.34,11.34,0,0,0,4-3.78,18.44,18.44,0,0,0,1.16-5.22l.33-.25c.41.48-.73,5-1.13,5.67A11.52,11.52,0,0,1,713.91,78.29Z"/><path class="cls-6" d="M713.8,85.82l-.17-.38a4.15,4.15,0,0,0,1.12-.88,6.44,6.44,0,0,1,1-.86c.43-.26.89-.5,1.34-.73s.66-.34,1-.53c.75-.42,2.44-1.65,2.55-2.54a.51.51,0,0,0-.19-.49l.3-.31a1,1,0,0,1,.3.86c-.13,1.13-2.08,2.47-2.75,2.85l-1,.54c-.44.22-.9.45-1.31.71a6.36,6.36,0,0,0-1,.8A4.82,4.82,0,0,1,713.8,85.82Z"/><path class="cls-6" d="M713.92,73l-.41-.06a8.23,8.23,0,0,1,1.08-2.66,7.21,7.21,0,0,0,1.12-3.15,18.59,18.59,0,0,0-.36-4c-.09-.51-.17-1-.24-1.55a8.18,8.18,0,0,1,0-1c0-1.07,0-3.08-.66-3.14l0-.41c1.09.09,1.06,2.09,1,3.56a9.87,9.87,0,0,0,0,1q.11.77.24,1.53a18.68,18.68,0,0,1,.36,4.1A7.41,7.41,0,0,1,715,70.49,8,8,0,0,0,713.92,73Z"/><path class="cls-6" d="M713.6,75.87a9.1,9.1,0,0,1-2.89-3.53,10.69,10.69,0,0,1-.89-3.36,15.25,15.25,0,0,0-.49-2.32l.4-.12a16,16,0,0,1,.5,2.38,10.79,10.79,0,0,0,.85,3.24,8.73,8.73,0,0,0,2.75,3.36Z"/><path class="cls-6" d="M713.28,81.62c-.49-.37-1.06-.7-1.6-1a12.65,12.65,0,0,1-2.43-1.71,7.45,7.45,0,0,1-1.65-3h-.16v-.48l0-1.26.51,1.4a7.64,7.64,0,0,0,1.62,3,13.19,13.19,0,0,0,2.35,1.65c.56.34,1.13.67,1.64,1Z"/><path class="cls-6" d="M713,88.79a11.08,11.08,0,0,0-2-2c-1.44-1.22-2.93-2.49-3-4.49h.42c0,1.82,1.44,3,2.81,4.19a11.31,11.31,0,0,1,2.07,2.08Z"/><path class="cls-6" d="M720,85.86a7.52,7.52,0,0,1-2.81-1,5,5,0,0,0-1.33-.56h0v-.42h0a4.4,4.4,0,0,1,1.52.61c1,.5,2.33,1.18,3,.91a.59.59,0,0,0,.34-.43l.4.11a1,1,0,0,1-.57.7A1.25,1.25,0,0,1,720,85.86Z"/><path class="cls-6" d="M718.27,76.66c-.47,0-.94,0-1.37-.07s-.71,0-1,0v-.42c.3,0,.65,0,1,0,1.45.11,3.26.25,3.81-1l.38.18C720.64,76.43,719.46,76.66,718.27,76.66Z"/><path class="cls-6" d="M716.13,67.3l-.22-.35c1.2-.77,2.83-2.66,2.62-4.09l.41-.06C719.2,64.55,717.24,66.59,716.13,67.3Z"/><path class="cls-6" d="M715.91,64,715.5,64c.15-.89-1.65-2.11-2.61-2.76l-.55-.38c-.28-.21-2.79-2.12-2.49-3.87l.41.07c-.2,1.22,1.37,2.75,2.33,3.47l.53.36C714.31,61.64,716.11,62.86,715.91,64Z"/><path class="cls-6" d="M715.56,59.61l-.34-.24c1-1.4.6-3.82.46-4.53,0-.26-.09-.59-.13-.94a5.22,5.22,0,0,0-.62-2.43l.3-.29a5.26,5.26,0,0,1,.74,2.67c0,.35.07.67.12.91C716.24,55.51,716.63,58.08,715.56,59.61Z"/><path class="cls-6" d="M711.12,72.52l-.24-.34c1.36-1,1.85-3.9,1.61-5.55l0-.22a24.64,24.64,0,0,0-.68-3.86l.11-.07.17-.24c.12.09.25.18.81,4.11l0,.22C713.16,68.28,712.67,71.39,711.12,72.52Z"/><path class="cls-6" d="M710.2,70.15a5.5,5.5,0,0,1-2-1.18,4.35,4.35,0,0,1-.47-.56,2,2,0,0,0-.54-.58l.21-.37a2.65,2.65,0,0,1,.67.7,3.54,3.54,0,0,0,.41.5,4.87,4.87,0,0,0,1.81,1.08Z"/><path class="cls-6" d="M710.7,79.54a8.7,8.7,0,0,1-.3-3.11c0-1.47.06-3-.81-3.94l.31-.28c1,1.06,1,2.67.92,4.23a8.32,8.32,0,0,0,.27,3Z"/><path class="cls-6" d="M708.9,77.79a6.73,6.73,0,0,1-2.9-.54l.17-.38a6.28,6.28,0,0,0,2.73.5Z"/><path class="cls-6" d="M711,86.26h-.42a9.53,9.53,0,0,0-.28-2.77,6.86,6.86,0,0,0-.26-.7,3.49,3.49,0,0,1-.4-1.68l.42,0a3.18,3.18,0,0,0,.36,1.47,5.71,5.71,0,0,1,.28.75A9.68,9.68,0,0,1,711,86.26Z"/><path class="cls-6" d="M709.27,85.22a6,6,0,0,1-2.44-.65l.17-.38a5.51,5.51,0,0,0,2.42.61l0,.41Z"/><path class="cls-6" d="M719.42,89.33c-.78-.85-2.06-3.09-1.5-4.4l.38.16c-.46,1.09.67,3.13,1.43,4Z"/><path class="cls-6" d="M717.66,73.66a3.23,3.23,0,0,1-.8-1.57,4.51,4.51,0,0,0-.32-.92,5.43,5.43,0,0,0-.39-.59,2.41,2.41,0,0,1-.66-1.48l.42,0a2.13,2.13,0,0,0,.58,1.21,5.12,5.12,0,0,1,.42.65,5.29,5.29,0,0,1,.36,1,2.88,2.88,0,0,0,.66,1.37Z"/><path class="cls-6" d="M713.09,60.75h-.42a8,8,0,0,0-.38-2.21,7.1,7.1,0,0,1-.36-2.48,3.46,3.46,0,0,1,.34-1.06,3.16,3.16,0,0,0,.35-1.22,6.07,6.07,0,0,0-.46-2.36l.39-.16a6.55,6.55,0,0,1,.49,2.52,3.41,3.41,0,0,1-.39,1.38,3.26,3.26,0,0,0-.3,1,6.69,6.69,0,0,0,.34,2.32A8.44,8.44,0,0,1,713.09,60.75Z"/><path class="cls-6" d="M714.27,62c-.69,0-5.42-.06-5.57-1.44l.41-.05c.09.79,3.71,1.11,5.23,1.07V62Z"/><path class="cls-6" d="M718.22,65l-.42,0a8,8,0,0,0-.1-1.45,10.11,10.11,0,0,1-.12-1.37,4.19,4.19,0,0,1,.15-.82,1.88,1.88,0,0,0,.08-1.08l.39-.16a2.21,2.21,0,0,1-.06,1.34,3.86,3.86,0,0,0-.14.73,9.78,9.78,0,0,0,.11,1.31A7.62,7.62,0,0,1,718.22,65Z"/><path class="cls-6" d="M712.74,66.86a7.83,7.83,0,0,1-1.23-1.59,10.94,10.94,0,0,0-.88-1.23,5.64,5.64,0,0,1-1.4-2.31l.4-.1a5.31,5.31,0,0,0,1.31,2.13,9.74,9.74,0,0,1,.92,1.29,7.54,7.54,0,0,0,1.16,1.5Z"/><path class="cls-6" d="M713.28,54.14,712.9,54l.07-.16c.73-1.53,2.25-4.73.62-6l.25-.33c1.91,1.44.29,4.85-.49,6.48Z"/><path class="cls-6" d="M718.48,72.55l-.11-.4a2.29,2.29,0,0,0,1-.78,3.94,3.94,0,0,1,.64-.65l.25.33a4.65,4.65,0,0,0-.58.59A2.56,2.56,0,0,1,718.48,72.55Z"/><path class="cls-6" d="M719.08,80.19a1,1,0,0,1-.38-.08c-1-.36-1.67-2-2.05-2.94l-.09-.24.38-.16.1.24c.3.72,1,2.41,1.8,2.71a.64.64,0,0,0,.54,0l.18.38A1.07,1.07,0,0,1,719.08,80.19Z"/><path class="cls-6" d="M716.34,83.49c-.08-.32-.18-.65-.27-1a8.9,8.9,0,0,1-.57-4.13l.41.1a8.62,8.62,0,0,0,.56,3.91c.1.35.19.69.27,1Z"/><path class="cls-6" d="M720.39,82.93a4.69,4.69,0,0,1-1.41-.24l.14-.39c.61.21,1.64.34,2,0l.27.32A1.57,1.57,0,0,1,720.39,82.93Z"/><path class="cls-6" d="M708.46,88.55l-.15-.39a2.6,2.6,0,0,0,.72-.5,2.51,2.51,0,0,1,.86-.58,3.61,3.61,0,0,1,2.28.32l.36.13-.14.39-.36-.13a3.31,3.31,0,0,0-2-.31,2,2,0,0,0-.71.49A2.79,2.79,0,0,1,708.46,88.55Z"/><path class="cls-6" d="M707.87,76.08l-.23-.35c1.28-.83.43-2.75-.25-4.29a10.1,10.1,0,0,1-.57-1.44l.41-.11a9.59,9.59,0,0,0,.54,1.38C708.48,72.87,709.45,75.06,707.87,76.08Z"/><path class="cls-6" d="M711.28,65.29a1.42,1.42,0,0,0-1.09-.23,3.6,3.6,0,0,1-.8,0,3.42,3.42,0,0,1-1.56-.89l.27-.32a2.94,2.94,0,0,0,1.37.79,2.78,2.78,0,0,0,.71,0,1.8,1.8,0,0,1,1.37.34Z"/><path class="cls-6" d="M719.55,67.23a2.79,2.79,0,0,1-1.1-.28,2.09,2.09,0,0,0-1.15-.25l-.06-.41a2.45,2.45,0,0,1,1.37.27,2.29,2.29,0,0,0,1,.25l0,.42Z"/><path class="cls-6" d="M715.5,68.42a3.47,3.47,0,0,0-1.06-1.72c-.15-.16-.31-.33-.46-.51a4.79,4.79,0,0,1-.85-1.62c-.08-.2-.15-.41-.23-.61l.38-.16c.09.21.17.42.24.62a4.56,4.56,0,0,0,.77,1.5l.45.49a3.82,3.82,0,0,1,1.17,1.92Z"/><path class="cls-6" d="M716.24,57.46l-.24-.34.12-.08c.41-.27.83-.55.84-1h.42c0,.67-.58,1.05-1,1.35Z"/><path class="cls-6" d="M716,56.32a4.19,4.19,0,0,0-1.4-1.9l.26-.33a4.64,4.64,0,0,1,1.53,2.08Z"/><path class="cls-6" d="M714.45,51l-.41-.09c.13-.62-.51-1.59-1.1-2.22l.3-.29C713.58,48.72,714.66,50,714.45,51Z"/><path class="cls-1" d="M737.71,25.72s-15.26,38.43-8.45,53.83c0,0,1.5,5.31,8.85,5h1.37s11,1.63,8.58-20C748.06,64.56,744.11,37.71,737.71,25.72Z"/><path class="cls-2" d="M738.2,68.06l-.23-.5a15.12,15.12,0,0,0,5.29-5c.58-1.05,1.76-6.36,1.53-6.93l.45-.33c.53.63-1,6.61-1.5,7.53A15.39,15.39,0,0,1,738.2,68.06Z"/><path class="cls-2" d="M738.06,78.06l-.23-.51a5.92,5.92,0,0,0,1.49-1.17,8.14,8.14,0,0,1,1.36-1.14c.57-.35,1.18-.67,1.78-1,.44-.23.88-.45,1.32-.7,1-.57,3.24-2.2,3.38-3.37a.75.75,0,0,0-.24-.67l.38-.4a1.28,1.28,0,0,1,.41,1.13c-.18,1.51-2.77,3.29-3.66,3.79-.44.25-.89.49-1.34.72s-1.19.6-1.74.94a8.29,8.29,0,0,0-1.27,1.07A6.14,6.14,0,0,1,738.06,78.06Z"/><path class="cls-2" d="M738.22,61.05l-.55-.09a11.17,11.17,0,0,1,1.42-3.52,9.66,9.66,0,0,0,1.5-4.19,24.49,24.49,0,0,0-.49-5.33c-.11-.68-.22-1.36-.31-2.05a11.71,11.71,0,0,1,0-1.39c0-1.43.06-4.09-.88-4.17l.05-.55c1.45.12,1.41,2.78,1.38,4.72a12.67,12.67,0,0,0,0,1.32c.09.68.2,1.36.31,2a25.33,25.33,0,0,1,.49,5.44,9.94,9.94,0,0,1-1.56,4.43A10.79,10.79,0,0,0,738.22,61.05Z"/><path class="cls-2" d="M737.79,64.84A12.1,12.1,0,0,1,734,60.16a14.57,14.57,0,0,1-1.19-4.47,20.48,20.48,0,0,0-.64-3.07l.54-.17a21.92,21.92,0,0,1,.65,3.16,14.27,14.27,0,0,0,1.14,4.31,11.52,11.52,0,0,0,3.65,4.46Z"/><path class="cls-2" d="M737.36,72.47c-.65-.48-1.4-.93-2.12-1.36A17.19,17.19,0,0,1,732,68.84a10.06,10.06,0,0,1-2.19-4h-.21v-.64l0-1.67.68,1.87a10.17,10.17,0,0,0,2.15,4,16.54,16.54,0,0,0,3.13,2.2A25.61,25.61,0,0,1,737.69,72Z"/><path class="cls-2" d="M737,82a14.78,14.78,0,0,0-2.65-2.66c-1.91-1.62-3.88-3.3-3.92-6H731c0,2.41,1.92,4,3.73,5.55a15.27,15.27,0,0,1,2.75,2.76Z"/><path class="cls-2" d="M746.21,78.1a9.82,9.82,0,0,1-3.72-1.35,6.82,6.82,0,0,0-1.76-.75h0v-.55h0a5.94,5.94,0,0,1,2,.81c1.31.66,3.09,1.57,3.93,1.2a.79.79,0,0,0,.45-.56l.53.15a1.33,1.33,0,0,1-.76.92A1.65,1.65,0,0,1,746.21,78.1Z"/><path class="cls-2" d="M744,65.88c-.63,0-1.25,0-1.82-.09s-.94-.07-1.31-.07v-.55c.39,0,.86,0,1.35.07,1.93.15,4.33.33,5.06-1.3l.51.23C747.14,65.59,745.56,65.88,744,65.88Z"/><path class="cls-2" d="M741.15,53.46l-.3-.47c1.6-1,3.76-3.53,3.48-5.42l.56-.08C745.22,49.82,742.62,52.53,741.15,53.46Z"/><path class="cls-2" d="M740.86,49.1l-.55-.09c.2-1.18-2.19-2.8-3.47-3.66l-.72-.5c-.38-.29-3.7-2.81-3.31-5.14l.55.09c-.28,1.62,1.81,3.66,3.09,4.6l.7.49C738.73,46,741.12,47.57,740.86,49.1Z"/><path class="cls-2" d="M740.39,43.25l-.45-.32c1.29-1.85.8-5.06.61-6-.07-.34-.11-.78-.17-1.24-.14-1.2-.31-2.69-.83-3.23l.4-.38c.65.67.83,2.19,1,3.54.05.46.1.89.17,1.21C741.29,37.81,741.81,41.22,740.39,43.25Z"/><path class="cls-2" d="M734.5,60.39l-.33-.44c1.81-1.33,2.47-5.19,2.15-7.38l-.05-.29a32.59,32.59,0,0,0-.9-5.13l.15-.08.22-.32c.17.12.33.24,1.08,5.45l0,.29C737.2,54.77,736.55,58.89,734.5,60.39Z"/><path class="cls-2" d="M733.28,57.24a7.15,7.15,0,0,1-2.61-1.56,5,5,0,0,1-.62-.74,3.07,3.07,0,0,0-.71-.78l.27-.48a3,3,0,0,1,.88.93,5.51,5.51,0,0,0,.56.67,6.68,6.68,0,0,0,2.39,1.43Z"/><path class="cls-2" d="M733.94,69.71a11.24,11.24,0,0,1-.4-4.12c0-2,.07-4-1.08-5.23l.41-.38c1.31,1.41,1.26,3.55,1.23,5.62a11,11,0,0,0,.35,3.91Z"/><path class="cls-2" d="M731.55,67.39a9,9,0,0,1-3.85-.72l.22-.51a8.18,8.18,0,0,0,3.64.67Z"/><path class="cls-2" d="M734.33,78.64h-.55a12.69,12.69,0,0,0-.37-3.68c-.09-.29-.22-.6-.35-.93a4.69,4.69,0,0,1-.53-2.23l.55.06a4.43,4.43,0,0,0,.49,2,7.41,7.41,0,0,1,.37,1A13.14,13.14,0,0,1,734.33,78.64Z"/><path class="cls-2" d="M732,77.25a8.07,8.07,0,0,1-3.24-.86l.23-.5a7.2,7.2,0,0,0,3.21.8l0,.56Z"/><path class="cls-2" d="M745.51,82.71c-1-1.13-2.73-4.1-2-5.85l.51.22c-.61,1.45.88,4.15,1.9,5.26Z"/><path class="cls-2" d="M743.18,61.91a4.21,4.21,0,0,1-1.06-2.09,4.49,4.49,0,0,0-1-2,3.33,3.33,0,0,1-.87-2l.56,0a2.91,2.91,0,0,0,.76,1.61,7.32,7.32,0,0,1,.56.85,7.42,7.42,0,0,1,.48,1.32,3.74,3.74,0,0,0,.88,1.83Z"/><path class="cls-2" d="M737.11,44.76h-.56a10.79,10.79,0,0,0-.5-2.93,9.47,9.47,0,0,1-.48-3.3,5.28,5.28,0,0,1,.45-1.41,4.2,4.2,0,0,0,.47-1.62,8.28,8.28,0,0,0-.61-3.13l.52-.2a8.79,8.79,0,0,1,.64,3.35,4.48,4.48,0,0,1-.51,1.82,4.87,4.87,0,0,0-.41,1.26,8.71,8.71,0,0,0,.47,3.09A11.23,11.23,0,0,1,737.11,44.76Z"/><path class="cls-2" d="M738.67,46.42c-.91,0-7.19-.07-7.39-1.91l.55-.06c.11,1,4.92,1.47,6.94,1.41v.56Z"/><path class="cls-2" d="M743.91,50.47l-.55,0a9.49,9.49,0,0,0-.13-1.91,10.9,10.9,0,0,1-.15-1.82,4.64,4.64,0,0,1,.2-1.09,2.62,2.62,0,0,0,.1-1.44l.51-.22a2.84,2.84,0,0,1-.08,1.79,4.72,4.72,0,0,0-.17,1,10.17,10.17,0,0,0,.14,1.73A10.45,10.45,0,0,1,743.91,50.47Z"/><path class="cls-2" d="M736.65,52.88A9.73,9.73,0,0,1,735,50.77a13.94,13.94,0,0,0-1.18-1.64A7.6,7.6,0,0,1,732,46.07l.54-.13a7.06,7.06,0,0,0,1.74,2.82,13,13,0,0,1,1.22,1.72,9.56,9.56,0,0,0,1.54,2Z"/><path class="cls-2" d="M737.36,36l-.5-.24.1-.21c1-2,3-6.28.81-7.92l.34-.44c2.53,1.91.38,6.43-.65,8.6Z"/><path class="cls-2" d="M744.27,60.44l-.15-.54a3,3,0,0,0,1.27-1,5.83,5.83,0,0,1,.86-.86l.33.45a5.59,5.59,0,0,0-.77.77A3.49,3.49,0,0,1,744.27,60.44Z"/><path class="cls-2" d="M745.06,70.57a1.47,1.47,0,0,1-.5-.09c-1.3-.49-2.22-2.72-2.71-3.92l-.13-.31.5-.22.14.32c.4,1,1.33,3.21,2.39,3.61a.88.88,0,0,0,.71,0l.24.5A1.46,1.46,0,0,1,745.06,70.57Z"/><path class="cls-2" d="M741.42,75c-.1-.42-.23-.86-.36-1.32-.53-1.86-1.13-4-.75-5.48l.54.13c-.35,1.37.23,3.41.75,5.2.12.46.25.91.36,1.33Z"/><path class="cls-2" d="M746.8,74.22a6.28,6.28,0,0,1-1.87-.32l.18-.52c.82.28,2.18.45,2.65.05l.36.42A2,2,0,0,1,746.8,74.22Z"/><path class="cls-2" d="M731,81.67l-.19-.52a3.08,3.08,0,0,0,1-.66,3.26,3.26,0,0,1,1.14-.76,4.68,4.68,0,0,1,3,.42l.48.17-.18.53-.49-.18a4.35,4.35,0,0,0-2.67-.42,3,3,0,0,0-.94.65A3.43,3.43,0,0,1,731,81.67Z"/><path class="cls-2" d="M730.18,65.12l-.3-.46c1.7-1.11.57-3.65-.34-5.7a12.63,12.63,0,0,1-.75-1.92l.54-.13a13.26,13.26,0,0,0,.72,1.83C731,60.86,732.27,63.76,730.18,65.12Z"/><path class="cls-2" d="M734.7,50.79a1.91,1.91,0,0,0-1.44-.3,4.77,4.77,0,0,1-1.06-.05,4.4,4.4,0,0,1-2.07-1.17l.35-.42a4.06,4.06,0,0,0,1.82,1,4.21,4.21,0,0,0,.94,0,2.39,2.39,0,0,1,1.83.45Z"/><path class="cls-2" d="M745.68,53.37a3.71,3.71,0,0,1-1.46-.38,2.84,2.84,0,0,0-1.52-.32l-.07-.55a3.37,3.37,0,0,1,1.81.36,3,3,0,0,0,1.4.33l0,.55Z"/><path class="cls-2" d="M740.31,55a4.6,4.6,0,0,0-1.41-2.29c-.2-.21-.41-.43-.61-.67a6.35,6.35,0,0,1-1.13-2.16c-.09-.26-.19-.53-.31-.8l.52-.22c.12.28.21.56.31.83a5.92,5.92,0,0,0,1,2c.2.23.4.45.6.65a5.12,5.12,0,0,1,1.54,2.55Z"/><path class="cls-2" d="M741.29,40.4l-.31-.46.15-.1c.55-.36,1.11-.74,1.12-1.34h.56c0,.9-.77,1.4-1.37,1.79Z"/><path class="cls-2" d="M741,38.88a5.65,5.65,0,0,0-1.86-2.52l.35-.43a6.25,6.25,0,0,1,2,2.76Z"/><path class="cls-2" d="M738.91,31.76l-.54-.12c.18-.82-.68-2.1-1.46-2.94l.4-.38C737.76,28.8,739.2,30.47,738.91,31.76Z"/><rect class="cls-3" x="736.35" y="59.59" width="2.28" height="49.94"/><path class="cls-13" d="M131.55,222.6c0,2.9-5.27,5.25-11.76,5.25S108,225.5,108,222.6s5.27-5.26,11.76-5.26S131.55,219.69,131.55,222.6Z"/><path class="cls-14" d="M95.17,214.09c0,3.73-8.51,6.75-19,6.75s-19-3-19-6.75,8.51-6.75,19-6.75S95.17,210.36,95.17,214.09Z"/><path class="cls-15" d="M49.28,193.83c0,4.83-11,8.75-24.64,8.75S0,198.66,0,193.83s11-8.75,24.64-8.75S49.28,189,49.28,193.83Z"/></g></g></svg>