<svg xmlns="http://www.w3.org/2000/svg" viewBox="0 0 24.15 24.15"><g id="圖層_2" data-name="圖層 2"><g id="圖層_1-2" data-name="圖層 1"><g id="_002-myspace" data-name=" 002-myspace"><path id="Path_1817" data-name="Path 1817" d="M22.73,4.25a4.2,4.2,0,0,0-1.27-3,4.25,4.25,0,1,0,0,6A4.19,4.19,0,0,0,22.73,4.25ZM18.44,7.08a2.83,2.83,0,1,1,2.88-2.83,2.83,2.83,0,0,1-2.88,2.83h0Z"/><path id="Path_1818" data-name="Path 1818" d="M12.73,4.25A2.83,2.83,0,1,0,9.9,7.08,2.82,2.82,0,0,0,12.73,4.25ZM9.9,5.66a1.42,1.42,0,1,1,1.42-1.41h0A1.41,1.41,0,0,1,9.9,5.66Z"/><path id="Path_1819" data-name="Path 1819" d="M0,10.61V17H5.66v2.83h7.07v4.29H24.15v-10a5.72,5.72,0,0,0-10.08-3.64A4.25,4.25,0,0,0,6.53,8.74,3.53,3.53,0,0,0,0,10.61ZM18.44,9.9a4.27,4.27,0,0,1,4.29,4.25v8.58H14.15V14.15A4.27,4.27,0,0,1,18.44,9.9ZM9.9,8.49a2.83,2.83,0,0,1,2.83,2.83v7.12H7.07V11.32A2.84,2.84,0,0,1,9.9,8.49ZM1.41,10.61a2.13,2.13,0,0,1,4.25,0v5H1.41Z"/><path id="Path_1820" data-name="Path 1820" d="M5.66,5A2.12,2.12,0,1,0,3.54,7.07,2.12,2.12,0,0,0,5.66,5Zm-2.12.71A.71.71,0,0,1,2.83,5a.7.7,0,0,1,.71-.7.7.7,0,0,1,.7.7.7.7,0,0,1-.7.71Z"/></g></g></g></svg>