<svg xmlns="http://www.w3.org/2000/svg" viewBox="0 0 13.54 12.89"><g id="圖層_2" data-name="圖層 2"><g id="圖層_1-2" data-name="圖層 1"><g id="Group_720" data-name="Group 720"><g id="Path_1294" data-name="Path 1294"><path d="M10.31,12,6.79,10.11,3.27,12l.66-3.93L1.07,5.29,5,4.7,6.76,1.13,8.53,4.69l3.94.56L9.63,8Z"/><path d="M2.61,12.89l.78-4.66L0,4.94l4.68-.69L6.75,0,8.86,4.23l4.68.67L10.17,8.21,11,12.87,6.79,10.68ZM2.15,5.63,4.47,7.88l-.54,3.18L6.78,9.55,9.65,11,9.09,7.86,11.4,5.6,8.2,5.15,6.76,2.26,5.34,5.16Z"/></g></g></g></g></svg>