<svg xmlns="http://www.w3.org/2000/svg" viewBox="0 0 23.14 23.14"><g id="圖層_2" data-name="圖層 2"><g id="圖層_1-2" data-name="圖層 1"><g id="_006-home" data-name=" 006-home"><path id="Path_1718" data-name="Path 1718" d="M22.87,10.93,12.21.27a.89.89,0,0,0-1.27,0h0L.27,10.93a.89.89,0,0,0,0,1.27.72.72,0,0,0,.29.2L3.2,13.53l.42,8.75a.9.9,0,0,0,.9.86h14.1a.9.9,0,0,0,.9-.86l.42-8.75,2.65-1.13a.9.9,0,0,0,.48-1.18A.72.72,0,0,0,22.87,10.93Zm-9.38,10.4H9.65V16.09h3.84Zm5.22-9.23a.89.89,0,0,0-.54.78l-.41,8.45H15.3V15.18a.91.91,0,0,0-.9-.9H8.75a.9.9,0,0,0-.9.9v6.15H5.38L5,12.88a.89.89,0,0,0-.54-.79l-1.94-.83,9.08-9.08,9.08,9.08Z"/></g></g></g></svg>