<svg xmlns="http://www.w3.org/2000/svg" viewBox="0 0 25.15 19.16"><g id="圖層_2" data-name="圖層 2"><g id="圖層_1-2" data-name="圖層 1"><g id="_011-youtube" data-name=" 011-youtube"><path id="Path_1821" data-name="Path 1821" d="M3.68,19.16H21.47a3.68,3.68,0,0,0,3.68-3.68V3.68A3.68,3.68,0,0,0,21.47,0H3.68A3.68,3.68,0,0,0,0,3.68v11.8A3.68,3.68,0,0,0,3.68,19.16ZM1.47,3.68A2.22,2.22,0,0,1,3.68,1.47H21.47a2.22,2.22,0,0,1,2.21,2.21v11.8a2.21,2.21,0,0,1-2.21,2.21H3.68a2.22,2.22,0,0,1-2.21-2.21Z"/><path id="Path_1822" data-name="Path 1822" d="M8.89,4.64v10l8.87-5.09Zm1.48,2.5,4.4,2.45-4.4,2.52Z"/></g></g></g></svg>