<svg xmlns="http://www.w3.org/2000/svg" viewBox="0 0 22.68 22.68"><g id="圖層_2" data-name="圖層 2"><g id="圖層_1-2" data-name="圖層 1"><g id="_015-zoom_in" data-name=" 015-zoom in"><g id="Group_1119" data-name="Group 1119"><g id="Group_1118" data-name="Group 1118"><path id="Path_1732" data-name="Path 1732" d="M22.42,21.17,16,14.77A9,9,0,1,0,14.77,16l6.4,6.4a.88.88,0,0,0,1.25-1.25Zm-8.24-7a7.27,7.27,0,1,1,0-10.28h0a7.28,7.28,0,0,1,0,10.28Z"/></g></g><g id="Group_1121" data-name="Group 1121"><g id="Group_1120" data-name="Group 1120"><path id="Path_1733" data-name="Path 1733" d="M13.38,8.15H9.93V4.7a.89.89,0,0,0-1.78,0V8.15H4.7a.89.89,0,0,0,0,1.78H8.15v3.45a.89.89,0,0,0,1.78,0h0V9.93h3.45a.89.89,0,0,0,0-1.78Z"/></g></g></g></g></g></svg>