<svg xmlns="http://www.w3.org/2000/svg" viewBox="0 0 19.08 19.23"><g id="圖層_2" data-name="圖層 2"><g id="圖層_1-2" data-name="圖層 1"><g id="_017-settings" data-name=" 017-settings"><g id="Group_1299" data-name="Group 1299"><g id="Group_1298" data-name="Group 1298"><path id="Path_1812" data-name="Path 1812" d="M9.54,6.61a3,3,0,1,0,3,3A3,3,0,0,0,9.54,6.61Zm0,4.51A1.5,1.5,0,1,1,11,9.62,1.5,1.5,0,0,1,9.54,11.12Z"/></g></g><g id="Group_1301" data-name="Group 1301"><g id="Group_1300" data-name="Group 1300"><path id="Path_1813" data-name="Path 1813" d="M18.79,11.86l-1.94-1.5a7.52,7.52,0,0,0,0-1.5l1.94-1.49a.75.75,0,0,0,.19-1L17.1,3.21a.74.74,0,0,0-.92-.32l-2.31.91A7.51,7.51,0,0,0,12.52,3L12.17.64A.74.74,0,0,0,11.43,0H7.66a.74.74,0,0,0-.74.64L6.57,3a7.84,7.84,0,0,0-1.35.77L2.91,2.89A.74.74,0,0,0,2,3.21L.1,6.4a.76.76,0,0,0,.19,1l2,1.49a7.52,7.52,0,0,0,0,1.5L.3,11.86a.75.75,0,0,0-.19,1L2,16a.75.75,0,0,0,.92.31l2.31-.91a7.23,7.23,0,0,0,1.35.77l.35,2.39a.74.74,0,0,0,.74.64h3.77a.74.74,0,0,0,.74-.64l.35-2.39a7.57,7.57,0,0,0,1.35-.77l2.3.91A.76.76,0,0,0,17.1,16L19,12.83A.75.75,0,0,0,18.79,11.86Zm-2.66,2.85L14,13.88a.74.74,0,0,0-.74.12,6.21,6.21,0,0,1-1.7,1,.74.74,0,0,0-.49.6l-.31,2.17H8.31L8,15.56A.77.77,0,0,0,7.51,15,5.93,5.93,0,0,1,5.81,14a.74.74,0,0,0-.74-.12L3,14.71,1.74,12.65,3.5,11.29a.75.75,0,0,0,.29-.72,5.51,5.51,0,0,1,0-1.9.74.74,0,0,0-.29-.73L1.74,6.59,3,4.52l2.11.83a.72.72,0,0,0,.74-.12,5.88,5.88,0,0,1,1.69-1A.75.75,0,0,0,8,3.68L8.31,1.5h2.47l.31,2.18a.77.77,0,0,0,.49.6,5.93,5.93,0,0,1,1.7,1,.72.72,0,0,0,.74.12l2.11-.83,1.22,2.07L15.58,7.94a.74.74,0,0,0-.28.72,5.51,5.51,0,0,1,0,1.9.75.75,0,0,0,.28.73l1.77,1.35Z"/></g></g></g></g></g></svg>