<svg xmlns="http://www.w3.org/2000/svg" viewBox="0 0 23.13 26.92"><g id="圖層_2" data-name="圖層 2"><g id="圖層_1-2" data-name="圖層 1"><g id="_019-file" data-name=" 019-file"><g id="Group_1122" data-name="Group 1122"><path id="Path_1734" data-name="Path 1734" d="M20.5,0H8a1.07,1.07,0,0,0-.74.3L.32,7.09A1,1,0,0,0,0,7.84V24.32a2.61,2.61,0,0,0,2.63,2.6H20.5a2.61,2.61,0,0,0,2.63-2.6V2.6A2.62,2.62,0,0,0,20.5,0ZM6.94,3.55V6.79H3.63ZM21,24.32a.52.52,0,0,1-.53.5H2.63a.53.53,0,0,1-.53-.5V8.89H8A1,1,0,0,0,9,7.84V2.1H20.5a.51.51,0,0,1,.53.49Z"/></g></g></g></g></svg>