<svg xmlns="http://www.w3.org/2000/svg" viewBox="0 0 18.97 18.97"><g id="圖層_2" data-name="圖層 2"><g id="圖層_1-2" data-name="圖層 1"><g id="_022-upload" data-name=" 022-upload"><g id="Group_1284" data-name="Group 1284"><g id="Group_1283" data-name="Group 1283"><path id="Path_1804" data-name="Path 1804" d="M18.23,12a.74.74,0,0,0-.74.74v4.39a.35.35,0,0,1-.35.35H1.83a.35.35,0,0,1-.35-.35V12.75a.74.74,0,0,0-1.48,0v4.39A1.83,1.83,0,0,0,1.83,19H17.14A1.83,1.83,0,0,0,19,17.14V12.75A.74.74,0,0,0,18.23,12Z"/></g></g><g id="Group_1286" data-name="Group 1286"><g id="Group_1285" data-name="Group 1285"><path id="Path_1805" data-name="Path 1805" d="M15.47,6,10,.23a.73.73,0,0,0-1,0l0,0L3.5,6a.75.75,0,0,0,0,1,.74.74,0,0,0,.51.2H6.57v8a.74.74,0,0,0,.74.74h4.35a.74.74,0,0,0,.74-.74v-8h2.53a.74.74,0,0,0,.74-.74A.79.79,0,0,0,15.47,6Zm-3.81-.23a.74.74,0,0,0-.74.74v8H8.05v-8a.74.74,0,0,0-.74-.74H5.76L9.48,1.82l3.73,3.95Z"/></g></g></g></g></g></svg>