<svg xmlns="http://www.w3.org/2000/svg" viewBox="0 0 19.43 19.43"><g id="圖層_2" data-name="圖層 2"><g id="圖層_1-2" data-name="圖層 1"><g id="_026-tag" data-name=" 026-tag"><g id="Group_1276" data-name="Group 1276"><g id="Group_1275" data-name="Group 1275"><path id="Path_1800" data-name="Path 1800" d="M19.21.22A.77.77,0,0,0,18.67,0h-7a.75.75,0,0,0-.53.22L.22,11.1a.77.77,0,0,0,0,1.07l7,7a.75.75,0,0,0,1.07,0L19.21,8.34a.79.79,0,0,0,.22-.54v-7A.77.77,0,0,0,19.21.22Zm-1.3,7.26L7.8,17.6l-6-6L12,1.52h6Z"/></g></g><g id="Group_1278" data-name="Group 1278"><g id="Group_1277" data-name="Group 1277"><path id="Path_1801" data-name="Path 1801" d="M15.84,3.59a2.35,2.35,0,1,0,0,3.33h0A2.35,2.35,0,0,0,15.84,3.59ZM14.77,5.84a.83.83,0,0,1-1.18-1.18.85.85,0,0,1,1.18,0h0a.85.85,0,0,1,0,1.18Z"/></g></g></g></g></g></svg>