<svg xmlns="http://www.w3.org/2000/svg" viewBox="0 0 19.43 19.43"><g id="圖層_2" data-name="圖層 2"><g id="圖層_1-2" data-name="圖層 1"><g id="_027-play_button" data-name=" 027-play button"><g id="Group_1274" data-name="Group 1274"><path id="Path_1799" data-name="Path 1799" d="M18.34,8,2.85.21a2,2,0,0,0-2.64.88A1.9,1.9,0,0,0,0,2V17.46a2,2,0,0,0,2.85,1.76l15.5-7.75a2,2,0,0,0,.88-2.64A2,2,0,0,0,18.35,8Zm-.68,2.16L2.16,17.86a.45.45,0,0,1-.6-.2.65.65,0,0,1-.05-.2V2A.46.46,0,0,1,2,1.52a.45.45,0,0,1,.19.05l15.5,7.74a.45.45,0,0,1,.2.61.41.41,0,0,1-.2.19Z"/></g></g></g></g></svg>