<svg xmlns="http://www.w3.org/2000/svg" viewBox="0 0 22.2 22.2"><g id="圖層_2" data-name="圖層 2"><g id="圖層_1-2" data-name="圖層 1"><g id="_034-error" data-name=" 034-error"><g id="Group_1259" data-name="Group 1259"><g id="Group_1258" data-name="Group 1258"><path id="Path_1793" data-name="Path 1793" d="M11.1,0A11.1,11.1,0,1,0,22.2,11.1,11.1,11.1,0,0,0,11.1,0Zm0,20.47a9.37,9.37,0,1,1,9.37-9.37,9.38,9.38,0,0,1-9.37,9.37Z"/></g></g><g id="Group_1261" data-name="Group 1261"><g id="Group_1260" data-name="Group 1260"><path id="Path_1794" data-name="Path 1794" d="M14.9,13.68,12.33,11.1,14.9,8.53A.87.87,0,0,0,13.68,7.3L11.1,9.88,8.53,7.3A.87.87,0,1,0,7.3,8.53L9.88,11.1,7.3,13.68A.87.87,0,0,0,8.53,14.9l2.57-2.57,2.58,2.57a.86.86,0,0,0,1.22-1.22Z"/></g></g></g></g></g></svg>