<svg xmlns="http://www.w3.org/2000/svg" viewBox="0 0 24.7 24.66"><g id="圖層_2" data-name="圖層 2"><g id="圖層_1-2" data-name="圖層 1"><g id="_035-whatsapp" data-name=" 035-whatsapp"><path id="Path_1834" data-name="Path 1834" d="M6,22.9a12.28,12.28,0,1,0-4.21-4.21L0,24.66ZM1.46,12.31a10.84,10.84,0,1,1,5,9.2l-.28-.18-4.05,1.2,1.2-4.05-.18-.28a11,11,0,0,1-1.7-5.88Z"/><path id="Path_1835" data-name="Path 1835" d="M6,10a10.91,10.91,0,0,0,8.75,8.75c1.43.28,3.54.32,4.57-.71l.58-.58a1.53,1.53,0,0,0,0-2.17L17.62,13a1.55,1.55,0,0,0-2.18,0l-.57.57a1,1,0,0,1-1.37,0l-2.29-2.38v0a.9.9,0,0,1,0-1.27h0l.58-.57a1.55,1.55,0,0,0,0-2.18h0l-2.3-2.3a1.55,1.55,0,0,0-2.18,0l-.57.58h0C5.91,6.27,5.63,8,6,10ZM7.76,6.48c.6-.59.57-.6.63-.6a.09.09,0,0,1,.07,0c2.42,2.43,2.32,2.29,2.32,2.36a.09.09,0,0,1,0,.06l-.57.57a2.35,2.35,0,0,0,0,3.32l2.3,2.39h0a2.46,2.46,0,0,0,3.42,0l.57-.57a.08.08,0,0,1,.12,0h0c2.42,2.43,2.32,2.29,2.32,2.36a.09.09,0,0,1,0,.06l-.57.57c-.4.4-1.65.63-3.29.32a9.47,9.47,0,0,1-7.6-7.6c-.31-1.63-.07-2.89.32-3.28Z"/></g></g></g></svg>