<svg xmlns="http://www.w3.org/2000/svg" viewBox="0 0 16.07 18.16"><g id="圖層_2" data-name="圖層 2"><g id="圖層_1-2" data-name="圖層 1"><g id="_040-html" data-name=" 040-html"><path id="Path_1832" data-name="Path 1832" d="M1.13,15.88l6.92,2.28,6.89-2.28L16.07,0H0ZM14.92,1.06l-1,14L8.05,17,2.14,15.1l-1-14Z"/><path id="Path_1833" data-name="Path 1833" d="M10,10.17,9.88,12l-1.83.61L6.18,12l0-.72H2.94l.21,3.07,4.9,1.63,4.86-1.63L13.43,7H5.83L5.71,5.32h7.84l.23-3.19H2.29l.56,8.05Zm2.62-7-.07,1.06h-8l.27,3.8h7.45l-.38,5.47L8.05,14.81,4.16,13.52,4.08,12.3H5.14l0,.45,2.88.94,2.85-.94.25-3.64H3.85L3.43,3.19Z"/></g></g></g></svg>