<svg xmlns="http://www.w3.org/2000/svg" viewBox="0 0 17.85 16.52"><g id="圖層_2" data-name="圖層 2"><g id="圖層_1-2" data-name="圖層 1"><g id="_045-calendar" data-name=" 045-calendar"><g id="Group_1231" data-name="Group 1231"><g id="Group_1230" data-name="Group 1230"><path id="Path_1787" data-name="Path 1787" d="M17.15,1.46H13.72V.76a.7.7,0,0,0-1.4-.12v.82H5.52V.76A.7.7,0,0,0,4.89,0a.7.7,0,0,0-.76.64v.82H.7a.7.7,0,0,0-.7.7H0V15.82a.7.7,0,0,0,.7.7H17.15a.7.7,0,0,0,.7-.7h0V2.16a.7.7,0,0,0-.7-.7Zm-.7,13.66H1.39V2.86H4.13v.7a.7.7,0,0,0,.76.63.69.69,0,0,0,.63-.63v-.7h6.8v.7a.7.7,0,0,0,1.4,0v-.7h2.73Z"/></g></g><g id="Group_1233" data-name="Group 1233"><g id="Group_1232" data-name="Group 1232"><circle id="Ellipse_57" data-name="Ellipse 57" cx="8.92" cy="7.56" r="0.94"/></g></g><g id="Group_1235" data-name="Group 1235"><g id="Group_1234" data-name="Group 1234"><circle id="Ellipse_58" data-name="Ellipse 58" cx="8.92" cy="11.65" r="0.94"/></g></g><g id="Group_1237" data-name="Group 1237"><g id="Group_1236" data-name="Group 1236"><circle id="Ellipse_59" data-name="Ellipse 59" cx="4.83" cy="7.56" r="0.94"/></g></g><g id="Group_1239" data-name="Group 1239"><g id="Group_1238" data-name="Group 1238"><circle id="Ellipse_60" data-name="Ellipse 60" cx="13.02" cy="7.56" r="0.94"/></g></g><g id="Group_1241" data-name="Group 1241"><g id="Group_1240" data-name="Group 1240"><circle id="Ellipse_61" data-name="Ellipse 61" cx="4.83" cy="11.65" r="0.94"/></g></g><g id="Group_1243" data-name="Group 1243"><g id="Group_1242" data-name="Group 1242"><circle id="Ellipse_62" data-name="Ellipse 62" cx="13.02" cy="11.65" r="0.94"/></g></g></g></g></g></svg>