<svg xmlns="http://www.w3.org/2000/svg" viewBox="0 0 27.04 17.49"><g id="圖層_2" data-name="圖層 2"><g id="圖層_1-2" data-name="圖層 1"><g id="_047-google-plus" data-name=" 047-google-plus"><path id="Path_1830" data-name="Path 1830" d="M25.45,4.77H20.67V6.36H19.08v4.78h1.59v1.59h4.78V11.14H27V6.36H25.45Zm0,4.78H23.86v1.59h-1.6V9.55H20.67V8h1.59V6.36h1.6V8h1.59Z"/><path id="Path_1831" data-name="Path 1831" d="M8.68,0a8.75,8.75,0,1,0,8.81,8.68A9.49,9.49,0,0,0,17.31,7l-.13-.64H12.25l3.24-3.23A9.17,9.17,0,0,0,8.68,0Zm3.39,4.29A5.73,5.73,0,0,0,8.68,3.18,5.63,5.63,0,0,0,3.06,8.75,5.63,5.63,0,0,0,14,10.61l.38-1.06H9.48V8h6.38c0,.26,0,.53,0,.8A7.22,7.22,0,1,1,8.64,1.59h0A7.28,7.28,0,0,1,13.2,3.16Zm-.17,6.85a4.13,4.13,0,0,1-3.22,1.59,4,4,0,0,1,0-8h0A4.4,4.4,0,0,1,12,6.36H7.89v4.78Z"/></g></g></g></svg>