<svg xmlns="http://www.w3.org/2000/svg" viewBox="0 0 23.55 21.16"><g id="圖層_2" data-name="圖層 2"><g id="圖層_1-2" data-name="圖層 1"><g id="_049-dislike" data-name=" 049-dislike"><g id="Group_1227" data-name="Group 1227"><path id="Path_1784" data-name="Path 1784" d="M23.49,11.92,21.4,3.14a2.27,2.27,0,0,0-2.21-1.76h-12V.92A.92.92,0,0,0,6.32,0H.92A.92.92,0,0,0,0,.92H0V15.23a.92.92,0,0,0,.92.92h5.4a.92.92,0,0,0,.92-.92v-.46H9.36a.41.41,0,0,1,.32.15l4.6,5.44a2.28,2.28,0,0,0,4-1.52,2.31,2.31,0,0,0-.1-.64l-1-3.44h4.07a2.25,2.25,0,0,0,1.77-.86A2.35,2.35,0,0,0,23.49,11.92ZM5.4,14.31H1.84V1.84H5.4Zm16.2-1.55a.43.43,0,0,1-.33.17H16.89a1.6,1.6,0,0,0-1.6,1.62,1.35,1.35,0,0,0,.07.44l1.06,3.72a.44.44,0,0,1-.26.57.46.46,0,0,1-.48-.11l-4.6-5.44a2.25,2.25,0,0,0-1.72-.8H7.24V3.22h12a.45.45,0,0,1,.42.35l2.09,8.78a.47.47,0,0,1-.09.41Z"/></g></g></g></g></svg>