<svg xmlns="http://www.w3.org/2000/svg" viewBox="0 0 7.61 24.36"><g id="圖層_2" data-name="圖層 2"><g id="圖層_1-2" data-name="圖層 1"><g id="_052-link" data-name=" 052-link"><g id="Group_1224" data-name="Group 1224"><path id="Path_1781" data-name="Path 1781" d="M7.61,8.35V3.81A3.81,3.81,0,1,0,0,3.81V8.35A3.81,3.81,0,0,0,2.85,12v.3A3.81,3.81,0,0,0,0,16v4.54a3.81,3.81,0,1,0,7.61,0h0V16a3.8,3.8,0,0,0-2.85-3.68V12A3.8,3.8,0,0,0,7.61,8.35ZM5.71,16v4.54a1.9,1.9,0,1,1-3.8,0V16a1.89,1.89,0,0,1,1-1.64v1.3a1,1,0,0,0,1.9,0v-1.3a1.89,1.89,0,0,1,1,1.64ZM3.81,7.73a1,1,0,0,0-1,1V10a1.87,1.87,0,0,1-.95-1.64V3.81a1.91,1.91,0,1,1,3.81,0V8.35a1.88,1.88,0,0,1-1,1.64V8.69a1,1,0,0,0-.95-1Z"/></g></g></g></g></svg>