<svg xmlns="http://www.w3.org/2000/svg" viewBox="0 0 15.27 22.99"><g id="圖層_2" data-name="圖層 2"><g id="圖層_1-2" data-name="圖層 1"><g id="_072-bookmark" data-name=" 072-bookmark"><g id="Group_1182" data-name="Group 1182"><path id="Path_1762" data-name="Path 1762" d="M14.37,0H.9A.9.9,0,0,0,0,.9H0V22.09a.9.9,0,0,0,.91.9.89.89,0,0,0,.65-.3L7.63,16l6.07,6.7a.9.9,0,0,0,1.28.06.92.92,0,0,0,.29-.66V.9A.9.9,0,0,0,14.37,0Zm-.9,19.76L8.3,14.05A.91.91,0,0,0,7,14L7,14.05,1.8,19.76V1.8H13.47Z"/></g></g></g></g></svg>