<svg xmlns="http://www.w3.org/2000/svg" viewBox="0 0 24.24 19.98"><g id="圖層_2" data-name="圖層 2"><g id="圖層_1-2" data-name="圖層 1"><g id="_074-photo_camera" data-name=" 074-photo camera"><g id="Group_1179" data-name="Group 1179"><g id="Group_1178" data-name="Group 1178"><path id="Path_1760" data-name="Path 1760" d="M21.9,3.88H17.13L15.67,1.22a2.33,2.33,0,0,0-2-1.22h-3a2.34,2.34,0,0,0-2,1.22L7.11,3.88H2.34A2.36,2.36,0,0,0,0,6.25V17.61A2.36,2.36,0,0,0,2.34,20H21.9a2.36,2.36,0,0,0,2.34-2.37V6.25A2.36,2.36,0,0,0,21.9,3.88Zm.44,13.73a.46.46,0,0,1-.44.48H2.34a.47.47,0,0,1-.45-.48V6.25a.47.47,0,0,1,.45-.47H7.67a1,1,0,0,0,.83-.49l1.74-3.16a.46.46,0,0,1,.38-.24h3a.47.47,0,0,1,.38.24l1.73,3.16a1,1,0,0,0,.83.49H21.9a.46.46,0,0,1,.44.47Z"/></g></g><g id="Group_1181" data-name="Group 1181"><g id="Group_1180" data-name="Group 1180"><path id="Path_1761" data-name="Path 1761" d="M12.12,8.14a3.79,3.79,0,1,0,3.79,3.79h0A3.8,3.8,0,0,0,12.12,8.14Zm0,5.69a1.9,1.9,0,1,1,1.9-1.9h0A1.91,1.91,0,0,1,12.12,13.83Z"/></g></g></g></g></g></svg>