<svg xmlns="http://www.w3.org/2000/svg" viewBox="0 0 23.97 15.92"><g id="圖層_2" data-name="圖層 2"><g id="圖層_1-2" data-name="圖層 1"><g id="_075-video_camera" data-name=" 075-video camera"><g id="Group_1177" data-name="Group 1177"><path id="Path_1759" data-name="Path 1759" d="M23.58,2.52a.92.92,0,0,0-.85-.13L17.92,4V2.34A2.34,2.34,0,0,0,15.61,0H2.31A2.33,2.33,0,0,0,0,2.34V13.58a2.33,2.33,0,0,0,2.31,2.34h13.3a2.34,2.34,0,0,0,2.31-2.34V11.91l4.81,1.62a1,1,0,0,0,1.19-.59,1,1,0,0,0,0-.3V3.28A.94.94,0,0,0,23.58,2.52ZM22.1,11.34,17.28,9.72a.94.94,0,0,0-1.23.88v3a.44.44,0,0,1-.44.46H2.31a.45.45,0,0,1-.44-.46V2.34a.46.46,0,0,1,.44-.47h13.3a.46.46,0,0,1,.44.47v3a.94.94,0,0,0,.93.94,1,1,0,0,0,.3,0L22.1,4.58Z"/></g></g></g></g></svg>