<svg xmlns="http://www.w3.org/2000/svg" viewBox="0 0 23.59 14.66"><g id="圖層_2" data-name="圖層 2"><g id="圖層_1-2" data-name="圖層 1"><g id="_086-vision" data-name=" 086-vision"><g id="Group_1157" data-name="Group 1157"><g id="Group_1156" data-name="Group 1156"><path id="Path_1748" data-name="Path 1748" d="M23.47,6.87a13.36,13.36,0,0,0-23.35,0,.92.92,0,0,0,0,.91,13.34,13.34,0,0,0,23.35,0A.92.92,0,0,0,23.47,6.87ZM11.8,12.81A11.56,11.56,0,0,1,2,7.33a11.5,11.5,0,0,1,19.6,0A11.56,11.56,0,0,1,11.8,12.81Z"/></g></g><g id="Group_1159" data-name="Group 1159"><g id="Group_1158" data-name="Group 1158"><path id="Path_1749" data-name="Path 1749" d="M11.8,4.1A3.23,3.23,0,1,0,15,7.33h0A3.23,3.23,0,0,0,11.8,4.1Zm0,4.61a1.38,1.38,0,1,1,1.38-1.38A1.38,1.38,0,0,1,11.8,8.71Z"/></g></g></g></g></g></svg>