<svg xmlns="http://www.w3.org/2000/svg" viewBox="0 0 23.13 20.6"><g id="圖層_2" data-name="圖層 2"><g id="圖層_1-2" data-name="圖層 1"><g id="_087-vision" data-name=" 087-vision"><g id="Group_1155" data-name="Group 1155"><path id="Path_1747" data-name="Path 1747" d="M23,9.86A13.09,13.09,0,0,0,8.64,3.45L6.9.45A.9.9,0,0,0,5.67.12a.91.91,0,0,0-.33,1.24L6.87,4A13.34,13.34,0,0,0,.12,9.85a.9.9,0,0,0,0,.9,13.16,13.16,0,0,0,11.45,6.73,13.07,13.07,0,0,0,2.92-.33l1.74,3a.9.9,0,1,0,1.56-.91l-1.53-2.63A13.3,13.3,0,0,0,23,10.75.89.89,0,0,0,23,9.86ZM11.57,15.68A11.34,11.34,0,0,1,2,10.3,11.5,11.5,0,0,1,7.79,5.58L9.27,8.13a3.16,3.16,0,0,0,3,5.25l1.24,2.12A10.86,10.86,0,0,1,11.57,15.68ZM10.21,10.3a1.23,1.23,0,0,1,.07-.42l1,1.75A1.36,1.36,0,0,1,10.21,10.3ZM11.84,9a1.36,1.36,0,0,1,1.05,1.61.74.74,0,0,1,0,.14Zm3.5,6-1.48-2.55a3.16,3.16,0,0,0-3-5.25L9.6,5.1a10.85,10.85,0,0,1,2-.17,11.34,11.34,0,0,1,9.61,5.37A11.47,11.47,0,0,1,15.34,15Z"/></g></g></g></g></svg>