<svg xmlns="http://www.w3.org/2000/svg" viewBox="0 0 23.47 17.69"><g id="圖層_2" data-name="圖層 2"><g id="圖層_1-2" data-name="圖層 1"><g id="_089-chat" data-name=" 089-chat"><g id="Group_1142" data-name="Group 1142"><g id="Group_1141" data-name="Group 1141"><path id="Path_1745" data-name="Path 1745" d="M11.74,0C5.38,0,0,3.35,0,7.8c0,2.32,1.48,4.46,4.09,5.94v3a.91.91,0,0,0,1.56.64l2.23-2.24a17.29,17.29,0,0,0,3.86.42c6.35,0,11.73-3.34,11.73-7.8S18.09,0,11.74,0Zm0,13.77a15.05,15.05,0,0,1-3.9-.49.94.94,0,0,0-.89.24l-1,1V13.19a.9.9,0,0,0-.5-.81C3.14,11.22,1.83,9.56,1.83,7.8c0-3.25,4.49-6,9.9-6s9.9,2.72,9.9,6S17.16,13.77,11.74,13.77Z"/></g></g><g id="Group_1144" data-name="Group 1144"><g id="Group_1143" data-name="Group 1143"><circle id="Ellipse_48" data-name="Ellipse 48" cx="11.74" cy="7.8" r="1.24"/></g></g><g id="Group_1146" data-name="Group 1146"><g id="Group_1145" data-name="Group 1145"><circle id="Ellipse_49" data-name="Ellipse 49" cx="6.35" cy="7.8" r="1.24"/></g></g><g id="Group_1148" data-name="Group 1148"><g id="Group_1147" data-name="Group 1147"><circle id="Ellipse_50" data-name="Ellipse 50" cx="17.12" cy="7.8" r="1.24"/></g></g></g></g></g></svg>