<svg xmlns="http://www.w3.org/2000/svg" viewBox="0 0 26.83 26.83"><g id="圖層_2" data-name="圖層 2"><g id="圖層_1-2" data-name="圖層 1"><g id="_096-telephone" data-name=" 096-telephone"><g id="Group_1127" data-name="Group 1127"><path id="Path_1737" data-name="Path 1737" d="M25.66,18.07,22.75,16a2.8,2.8,0,0,0-3.63.3L17.42,18A54.39,54.39,0,0,1,8.84,9.41l1.71-1.7a2.81,2.81,0,0,0,.3-3.62L8.77,1.18A2.82,2.82,0,0,0,4.84.52a3.27,3.27,0,0,0-.35.3L1.81,3.51c-2.41,2.41-2.41,5.68,0,9A54.41,54.41,0,0,0,14.37,25c3,2.24,6.37,2.59,9,0L26,22.34a2.81,2.81,0,0,0,0-4A3.17,3.17,0,0,0,25.66,18.07Zm-1.13,2.79-2.69,2.68c-1.86,1.87-4.12,1.35-6.23-.21A52.53,52.53,0,0,1,3.5,11.22C1.94,9.11,1.43,6.85,3.29,5L6,2.31a.71.71,0,0,1,1,0,.24.24,0,0,1,.08.09L9.14,5.31a.71.71,0,0,1-.08.92L6.8,8.5a1,1,0,0,0-.25,1.09c.72,2,8.66,10,10.7,10.7a1,1,0,0,0,1.09-.24l2.27-2.27a.71.71,0,0,1,.92-.08l2.91,2.08a.72.72,0,0,1,.16,1Z"/></g></g></g></g></svg>