<svg xmlns="http://www.w3.org/2000/svg" viewBox="0 0 21.36 29.4"><g id="圖層_2" data-name="圖層 2"><g id="圖層_1-2" data-name="圖層 1"><g id="_100-user" data-name=" 100-user"><g id="Group_1124" data-name="Group 1124"><g id="Group_1123" data-name="Group 1123"><path id="Path_1735" data-name="Path 1735" d="M10.68,0a8.44,8.44,0,1,0,8.44,8.44h0A8.45,8.45,0,0,0,10.68,0Zm0,14.58a6.14,6.14,0,1,1,6.15-6.14h0A6.16,6.16,0,0,1,10.68,14.58Z"/></g></g><g id="Group_1126" data-name="Group 1126"><g id="Group_1125" data-name="Group 1125"><path id="Path_1736" data-name="Path 1736" d="M11.1,18h-.85A10.27,10.27,0,0,0,0,28.25,1.15,1.15,0,0,0,1.15,29.4H20.21a1.15,1.15,0,0,0,1.15-1.15h0A10.28,10.28,0,0,0,11.1,18ZM2.38,27.1a8,8,0,0,1,7.87-6.81h.85A8,8,0,0,1,19,27.1Z"/></g></g></g></g></g></svg>